<?xml version="1.0" standalone="no"?>
<!DOCTYPE svg PUBLIC "-//W3C//DTD SVG 1.1//EN" "http://www.w3.org/Graphics/SVG/1.1/DTD/svg11.dtd" >
<svg xmlns="http://www.w3.org/2000/svg">
<metadata></metadata>
<defs>
<font id="itc_american_typewriter_ligRg" horiz-adv-x="1024" >
<font-face units-per-em="2048" ascent="1638" descent="-410" />
<missing-glyph horiz-adv-x="641" />
<glyph horiz-adv-x="2048" />
<glyph horiz-adv-x="2048" />
<glyph unicode="&#xd;" horiz-adv-x="2048" />
<glyph unicode=" "  horiz-adv-x="641" />
<glyph unicode="&#x09;" horiz-adv-x="641" />
<glyph unicode="&#xa0;" horiz-adv-x="641" />
<glyph unicode="!" horiz-adv-x="638" d="M223 66q0 41 28.5 68.5t70.5 27.5q40 0 67 -27.5t27 -68.5q0 -39 -27.5 -67t-66.5 -28q-40 0 -69.5 28.5t-29.5 66.5zM287 1321q0 28 6.5 37.5t25.5 9.5q21 0 28 -8.5t7 -38.5l-4 -997v-11q0 -53 -26 -53q-15 0 -24 10t-9 27v27z" />
<glyph unicode="&#x22;" horiz-adv-x="530" d="M102 881v553h70v-553h-70zM358 881v553h70v-553h-70z" />
<glyph unicode="#" horiz-adv-x="1574" d="M143 506l23 74h342l106 290h-372l22 74h375l180 508h96l-180 -508h275l180 508h94l-178 -508h326l-23 -74h-332l-102 -290h356l-22 -74h-359l-178 -504h-96l180 504h-276l-181 -504h-94l178 504h-340zM608 580h273l100 290h-272z" />
<glyph unicode="$" horiz-adv-x="1280" d="M201 377q0 57 25 88t69 31q31 0 50.5 -18.5t19.5 -47.5q0 -31 -16 -45.5t-35.5 -14.5t-35.5 -7t-16 -25q0 -64 84 -137t205 -92v608q-148 33 -217.5 99.5t-69.5 180.5q0 117 73 197t214 115v200q0 29 18 29q8 0 14.5 -8t6.5 -21v-196q58 4 72 4q46 0 77 -2v194 q0 13 5.5 21t13.5 8t14 -8t6 -21v-200q132 -26 206.5 -96.5t74.5 -163.5q0 -54 -25.5 -84.5t-68.5 -30.5q-31 0 -49.5 15t-18.5 40q0 27 13.5 43t30.5 20.5t30.5 17t13.5 34.5q0 45 -55 91.5t-152 68.5v-537q154 -35 226.5 -110t72.5 -201q0 -262 -299 -348v-187 q0 -28 -18 -28q-8 0 -14.5 7.5t-6.5 20.5v180q-67 -6 -86 -6q-40 0 -63 2v-176q0 -13 -6.5 -20.5t-14.5 -7.5q-18 0 -18 28v180q-160 24 -255 113.5t-95 202.5zM332 1008q0 -101 52.5 -156.5t166.5 -75.5v490q-104 -26 -161.5 -94t-57.5 -164zM590 102q46 -4 65 -4 q24 0 84 8v568l-149 33v-605zM590 768l149 -33v535q-33 4 -77 4q-49 0 -72 -2v-504zM778 117q234 77 234 295q0 103 -57.5 164.5t-176.5 89.5v-549z" />
<glyph unicode="%" horiz-adv-x="1806" d="M164 993q0 191 86 298.5t233 107.5q96 0 197 -72q11 -8 54.5 -41.5t62.5 -45t58 -25t79 -13.5q122 0 240 121q17 18 37.5 45.5t33 39t29.5 11.5q18 0 18 -28q0 -10 -4.5 -21t-15 -28.5t-15.5 -28.5l-706 -1333q-15 -29 -39 -29q-11 0 -20 9t-9 22q0 8 11 30l647 1221 q-106 -86 -213 -86q-71 0 -160 47q35 -130 35 -211q0 -177 -89 -286t-231 -109q-153 0 -236 105t-83 300zM229 995q0 -173 67 -267.5t187 -94.5q113 0 182.5 96t69.5 266t-67.5 265.5t-184.5 95.5t-185.5 -95.5t-68.5 -265.5zM983 377q0 191 85.5 299t234.5 108 q147 0 232 -107.5t85 -299.5q0 -190 -87 -298t-230 -108q-153 0 -236.5 105.5t-83.5 300.5zM1049 379q0 -173 67.5 -268t186.5 -95q113 0 182 96.5t69 266.5t-67 265t-184 95q-118 0 -186 -95.5t-68 -264.5z" />
<glyph unicode="&#x26;" horiz-adv-x="1593" d="M90 477q0 192 98.5 315.5t278.5 155.5q-121 59 -121 193q0 109 74 179.5t196 70.5q110 0 174 -49.5t64 -131.5q0 -57 -30.5 -91t-84.5 -34q-37 0 -59.5 19t-22.5 47q0 49 48 49q36 0 36 -37v-14q0 -3 5.5 -6.5t11.5 -3.5q18 0 30.5 18.5t12.5 50.5q0 62 -48 100t-130 38 q-99 0 -158 -57.5t-59 -143.5q0 -87 49.5 -132.5t138.5 -45.5q6 0 23 2t28 2q16 0 25.5 -6.5t9.5 -16.5q0 -22 -45 -22h-29q-210 0 -327 -116t-117 -325q0 -229 130.5 -349t381.5 -120q248 0 392 132.5t144 343.5q0 160 -78.5 247.5t-216.5 87.5q-122 0 -192 -69t-70 -187 q0 -77 35 -121t94 -44q42 0 71.5 22t29.5 49q0 5 -2 9t-4 6t-3 2q-4 0 -13 -2.5t-13 -2.5q-14 0 -25.5 13t-11.5 28q0 64 61 64q34 0 54 -24t20 -64q0 -63 -45 -103.5t-121 -40.5q-87 0 -137.5 59t-50.5 163q0 137 95.5 213.5t277.5 76.5q39 0 131 -4t145 -4q295 0 295 242 q0 108 -63.5 178t-157.5 70q-100 0 -154.5 -50t-54.5 -137q0 -53 25.5 -82.5t70.5 -29.5q30 0 51 14.5t21 30.5q0 3 -10 7t-20.5 14.5t-10.5 29.5t13.5 31t31.5 12q28 0 44.5 -18t16.5 -50q0 -53 -37 -85.5t-94 -32.5q-75 0 -117 45t-42 123q0 96 71 158.5t187 62.5 q129 0 208.5 -77.5t79.5 -203.5q0 -151 -91.5 -223t-280.5 -72q-19 0 -113 4q174 -104 174 -331q0 -236 -169 -381.5t-462 -145.5q-265 0 -414 136.5t-149 371.5z" />
<glyph unicode="'" horiz-adv-x="274" d="M102 881v553h70v-553h-70z" />
<glyph unicode="(" horiz-adv-x="768" d="M100 555q0 196 70 369.5t201 304.5q93 93 182.5 143.5t124.5 50.5q8 0 14 -3.5t6 -8.5q0 -14 -22 -26.5t-64 -32t-71 -41.5q-171 -128 -269 -328.5t-98 -427.5q0 -214 85.5 -402t240.5 -319q44 -37 96 -65t77 -41.5t25 -28.5q0 -10 -20 -10q-29 0 -105.5 39t-156.5 112 q-316 284 -316 715z" />
<glyph unicode=")" horiz-adv-x="768" d="M70 -301q0 14 22 27t64 33t71 42q171 128 268 327t97 427q0 214 -84.5 402.5t-239.5 318.5q-44 37 -96 65t-77 41.5t-25 28.5q0 12 18 12q29 0 106 -40t158 -113q314 -282 314 -715q0 -196 -70 -368.5t-201 -303.5q-93 -93 -182.5 -143.5t-124.5 -50.5q-18 0 -18 10z" />
<glyph unicode="*" d="M217 918q0 8 2 15t7.5 13t9.5 10t14.5 10t16.5 8.5t21.5 9.5t22.5 11q31 15 71 28.5t56.5 21.5t16.5 20q0 5 -4.5 10t-16 10.5t-23 10.5t-32.5 14t-37 16q-71 32 -97 50t-26 43q0 28 45 28q26 0 111 -65.5t104 -65.5q6 0 11.5 11t5.5 24q0 8 -8.5 67.5t-8.5 110.5 q0 30 12 48t27 18q16 0 28.5 -17.5t12.5 -44.5q0 -53 -11 -118t-11 -74q0 -31 22 -31q17 0 55 32t81 63.5t73 31.5q39 0 39 -27q0 -9 -1.5 -16t-7.5 -13.5t-9.5 -10.5t-14.5 -10.5t-16 -9t-21 -10t-22 -10.5q-32 -16 -72 -29.5t-57 -21.5t-17 -20q0 -13 82 -47q2 -2 4 -2.5 t4.5 -1.5t4.5 -2q78 -31 109.5 -51.5t31.5 -47.5q0 -28 -45 -28q-23 0 -111 61q-18 13 -42 34t-38 30.5t-26 9.5q-13 0 -13 -29q0 -19 11.5 -88t11.5 -117q0 -20 -11.5 -35.5t-25.5 -15.5q-16 0 -28.5 18t-12.5 48q0 52 7 115t7 75q0 31 -12 31q-22 0 -105.5 -63.5 t-115.5 -63.5q-39 0 -39 29z" />
<glyph unicode="+" horiz-adv-x="1705" d="M254 580v61h569v580h62v-580h567v-61h-567v-580h-62v580h-569z" />
<glyph unicode="," horiz-adv-x="638" d="M188 53q0 49 28.5 77t78.5 28q62 0 94.5 -44t32.5 -128q0 -68 -21 -142.5t-50 -128.5t-58.5 -89.5t-48.5 -35.5q-9 0 -15 7t-6 18q0 7 21 36t45.5 65t45.5 95t21 119q0 45 -43 45q-3 0 -19.5 -2t-29.5 -2q-34 0 -55 24t-21 58z" />
<glyph unicode="-" horiz-adv-x="671" d="M94 487q0 35 60 35h366q60 0 60 -30q0 -35 -60 -35h-366q-60 0 -60 30z" />
<glyph unicode="." horiz-adv-x="638" d="M223 66q0 41 28.5 68.5t70.5 27.5q40 0 67 -27.5t27 -68.5q0 -39 -27.5 -67t-66.5 -28q-40 0 -69.5 28.5t-29.5 66.5z" />
<glyph unicode="/" horiz-adv-x="559" d="M-106 -172q0 10 6 22l630 1506q9 23 18 31t27 8q31 0 31 -21q0 -4 -8 -20l-631 -1506q-10 -23 -17.5 -30.5t-25.5 -7.5q-30 0 -30 18z" />
<glyph unicode="0" horiz-adv-x="1280" d="M139 684q0 332 134.5 518.5t365.5 186.5q230 0 366 -187.5t136 -517.5q0 -326 -136 -514t-368 -188q-231 0 -364.5 186.5t-133.5 515.5zM211 684q0 -309 115 -484t313 -175t314 175.5t116 483.5q0 310 -116.5 486t-311.5 176q-198 0 -314 -174.5t-116 -487.5z" />
<glyph unicode="1" horiz-adv-x="1280" d="M336 27q0 11 12 19.5t33 8.5q3 0 44.5 -3t80.5 -3q26 0 44 3.5t30 15.5t18 23t9.5 38t4 48.5t0.5 64.5v16v850v16q0 40 -0.5 58.5t-2.5 44.5t-6 36.5t-11.5 24t-20 18t-29 8t-40.5 3.5q-28 0 -53.5 -1t-41.5 -2t-20 -1q-21 0 -33 7.5t-12 18.5t10.5 20t28.5 9q9 0 41 -4 t57 -4q36 0 84 5t58 5q38 0 47.5 -16t9.5 -70v-1026v-29q0 -59 2 -86.5t12.5 -52.5t32 -33t59.5 -8q32 0 60.5 1.5t46.5 3t22 1.5q21 0 33 -8.5t12 -19.5t-10 -19t-28 -8q-22 0 -112.5 8t-158.5 8q-74 0 -165.5 -8t-108.5 -8q-18 0 -28.5 8t-10.5 19z" />
<glyph unicode="2" horiz-adv-x="1280" d="M168 160q0 319 350 446q69 25 169 54.5t159.5 51.5t95.5 50q102 78 102 244q0 155 -100.5 246t-281.5 91q-185 0 -295.5 -92.5t-110.5 -214.5q0 -30 12 -30q4 0 19 4t26 4q28 0 45 -16.5t17 -45.5q0 -33 -22.5 -54t-55.5 -21q-109 0 -109 141q0 154 129 260t342 106 q205 0 330 -103.5t125 -272.5q0 -170 -119 -273q-43 -37 -103 -61.5t-166 -54t-155 -46.5q-172 -59 -257 -161t-91 -260q90 141 232 141q122 0 239 -111q9 -9 32.5 -31.5t33.5 -31.5t30.5 -26.5t34.5 -25t34.5 -17.5t41.5 -13.5t45 -3.5q69 0 120.5 60.5t51.5 144.5 q0 34 -6 60t-14 38t-15 12q-2 0 -8.5 -8t-18 -16.5t-26.5 -8.5q-22 0 -34.5 13.5t-12.5 38.5q0 59 74 59q51 0 81.5 -46.5t30.5 -133.5q0 -125 -64 -202t-163 -77q-40 0 -74.5 10.5t-72 37.5t-59 46t-68.5 64q-57 54 -109.5 80t-116.5 26q-70 0 -127 -40.5t-69 -96.5h2 q3 0 9.5 2t10.5 2q18 0 32.5 -15t14.5 -36q0 -57 -65 -57q-38 0 -60 43.5t-22 126.5z" />
<glyph unicode="3" horiz-adv-x="1280" d="M150 340q0 73 39 120.5t94 47.5q75 0 75 -72q0 -26 -15.5 -40.5t-41.5 -14.5q-13 0 -29 7t-22 7q-17 0 -31 -22.5t-14 -59.5q0 -119 115.5 -206t302.5 -87q206 0 329 122t123 321q0 162 -91 256t-243 94q-55 0 -101 -12.5t-73.5 -24.5t-36.5 -12q-22 0 -22 16q0 14 29 39 l503 494h-682q-64 0 -80 -14t-16 -70q0 -77 6 -158t6 -86q0 -37 -26 -37q-27 0 -27 37q0 10 4 46t4 61q0 68 -3 141.5t-3 79.5q0 38 19 46.5t104 8.5h51h600q97 0 97 -43q0 -34 -31 -65l-418 -412q90 8 113 8q170 0 276.5 -105t106.5 -284q0 -222 -142.5 -356t-382.5 -134 q-211 0 -338.5 103.5t-127.5 259.5z" />
<glyph unicode="4" horiz-adv-x="1280" d="M119 465q0 29 33 70l628 790q26 33 40 46t30 13q43 0 43 -47v-45v-809h55q46 0 86.5 1t63 2t24.5 1q62 0 62 -32q0 -33 -45 -33q-2 0 -20.5 1t-52.5 2t-73 1q-61 0 -100 -2v-166v-29q0 -48 1 -71t6 -49t16 -36t30 -17t49 -7q27 0 60.5 3t38.5 3q21 0 33 -8.5t12 -19.5 t-9.5 -19t-27.5 -8q-1 0 -82 8t-162 8q-78 0 -157.5 -8t-82.5 -8q-18 0 -28 8t-10 19t12 19.5t33 8.5q5 0 38 -3t60 -3q69 0 85.5 35.5t16.5 142.5v31v166h-596q-59 0 -84.5 8t-25.5 33zM184 483h641l6 820z" />
<glyph unicode="5" horiz-adv-x="1280" d="M158 344q0 73 39 120.5t94 47.5q76 0 76 -72q0 -26 -15.5 -40.5t-42.5 -14.5q-13 0 -30 7t-23 7q-16 0 -29.5 -22.5t-13.5 -59.5q0 -119 115.5 -205.5t302.5 -86.5q206 0 330 121.5t124 322.5q0 178 -110 284.5t-295 106.5q-183 0 -307 -112q-14 -13 -34.5 -32.5t-31 -29 t-23.5 -17t-24 -7.5q-37 0 -37 53q0 4 1 11t1 11l62 555q5 47 19.5 61.5t60.5 14.5h559h43q30 0 41.5 -11.5t17.5 -45.5l27 -158q0 -13 -6 -22t-15 -9q-11 0 -17 5.5t-9 18t-4.5 26t-4.5 38t-8 45.5q-12 60 -90 60h-491h-2q-36 0 -45.5 -10t-14.5 -45l-65 -535 q151 176 397 176q216 0 343.5 -115.5t127.5 -310.5q0 -221 -143.5 -357t-384.5 -136q-211 0 -338 103t-127 259z" />
<glyph unicode="6" horiz-adv-x="1280" d="M168 647q0 336 160.5 539t412.5 203q175 0 284.5 -83.5t109.5 -209.5q0 -57 -28.5 -93t-74.5 -36q-38 0 -60 18.5t-22 50.5q0 25 15.5 41.5t40.5 16.5q12 0 22.5 -2t17 -4.5t7.5 -2.5q14 0 14 52q0 78 -94 144.5t-228 66.5q-229 0 -371.5 -197.5t-142.5 -542.5 q0 -21 3 -59.5t4 -48.5q26 184 147 288.5t309 104.5q216 0 344.5 -118.5t128.5 -319.5q0 -215 -131 -344t-354 -129q-240 0 -377 175t-137 490zM283 432q0 -172 118 -289.5t295 -117.5t288.5 113t111.5 294q0 192 -108.5 304t-291.5 112q-182 0 -297.5 -116t-115.5 -300z " />
<glyph unicode="7" horiz-adv-x="1280" d="M207 883q0 9 4 49.5t8 107.5t4 140q0 50 -6 100.5t-6 54.5q0 14 10 26.5t19 12.5q10 0 18 -11.5t8 -27.5q0 -5 -3 -38t-3 -60v-47q44 92 106 145.5t156 53.5q65 0 115.5 -28.5t105.5 -90.5q47 -52 84.5 -76.5t87.5 -24.5q61 0 99.5 35t38.5 66q0 5 -11.5 9.5t-22.5 16 t-11 33.5q0 23 15 38t40 15q67 0 67 -112q0 -60 -16.5 -114t-53 -107t-69 -91.5t-90 -101.5t-90.5 -102q-114 -134 -159.5 -270.5t-45.5 -315.5q0 -20 1 -59t1 -58q0 -51 -37 -51q-22 0 -30.5 12t-8.5 39q0 202 25 334t113 268q44 69 102 135.5t122.5 134t96.5 105.5 q72 84 78 186q-73 -104 -170 -104q-53 0 -97 28.5t-104 92.5q-52 56 -90 80t-94 24q-106 0 -181 -98t-75 -258q0 -17 3 -48.5t3 -45.5t-10.5 -27.5t-20.5 -13.5q-9 0 -17.5 12t-8.5 27z" />
<glyph unicode="8" horiz-adv-x="1280" d="M141 420q0 140 83 238t243 145q-126 41 -185 107.5t-59 168.5q0 134 110.5 217.5t297.5 83.5q201 0 312.5 -82.5t111.5 -224.5q0 -91 -60 -160t-176 -110q162 -53 241 -149.5t79 -243.5q0 -192 -135 -310t-365 -118q-232 0 -365 118t-133 320zM209 403q0 -169 117 -273.5 t309 -104.5q196 0 316 104.5t120 261.5q0 180 -115 282.5t-317 102.5q-196 0 -313 -103t-117 -270zM291 1087q0 -115 92 -185.5t252 -70.5t256 71.5t96 176.5q0 120 -93 189t-257 69q-160 0 -253 -69.5t-93 -180.5z" />
<glyph unicode="9" horiz-adv-x="1280" d="M158 913q0 215 130 344t353 129q240 0 377 -175t137 -490q0 -336 -160.5 -538.5t-412.5 -202.5q-175 0 -284.5 83t-109.5 209q0 57 29.5 93t75.5 36q38 0 60 -18.5t22 -50.5q0 -25 -16.5 -41.5t-41.5 -16.5q-12 0 -22 2t-16 4.5t-7 2.5q-16 0 -16 -52q0 -77 95 -142.5 t229 -65.5q229 0 370.5 196t141.5 541q0 16 -5 108q-26 -184 -148 -288.5t-310 -104.5q-215 0 -343 118.5t-128 319.5zM229 936q0 -193 108 -304.5t290 -111.5t297.5 116t115.5 300q0 172 -118 289.5t-295 117.5t-287.5 -113t-110.5 -294z" />
<glyph unicode=":" horiz-adv-x="638" d="M223 66q0 41 28.5 68.5t70.5 27.5q40 0 67 -27.5t27 -68.5q0 -39 -27.5 -67t-66.5 -28q-40 0 -69.5 28.5t-29.5 66.5zM223 639q0 41 29 69.5t70 28.5q40 0 67 -28.5t27 -69.5q0 -38 -27 -65t-67 -27t-69.5 27t-29.5 65z" />
<glyph unicode=";" horiz-adv-x="638" d="M201 53q0 49 28 77t78 28q62 0 94.5 -44t32.5 -128q0 -68 -20.5 -142.5t-49 -128.5t-58 -89.5t-48.5 -35.5q-20 0 -20 25q0 7 20.5 36t45 65t45 95t20.5 119q0 45 -43 45q-3 0 -20 -2t-30 -2q-34 0 -54.5 24t-20.5 58zM217 639q0 41 27.5 69.5t68.5 28.5q40 0 67.5 -28.5 t27.5 -69.5q0 -38 -27.5 -65t-67.5 -27t-68 27t-28 65z" />
<glyph unicode="&#x3c;" horiz-adv-x="1705" d="M264 590v41l1178 481v-70l-1069 -432l1069 -432v-69z" />
<glyph unicode="=" horiz-adv-x="1705" d="M254 403v62h1198v-62h-1198zM254 758v61h1198v-61h-1198z" />
<glyph unicode="&#x3e;" horiz-adv-x="1705" d="M264 109v69l1067 432l-1067 432v70l1178 -481v-41z" />
<glyph unicode="?" horiz-adv-x="1124" d="M123 1018q0 152 130.5 249t352.5 97q209 0 335 -93.5t126 -250.5q0 -46 -9 -84.5t-21.5 -67.5t-39.5 -57t-47.5 -45.5t-63 -41t-68.5 -36t-80.5 -38t-84.5 -40.5q-41 -19 -66.5 -44t-37.5 -61t-15.5 -72t-3.5 -95v-29q0 -43 -28 -43q-17 0 -23 12t-6 41v62q0 124 34 178 t152 117q28 15 69.5 35.5t65.5 32.5t56.5 30.5t51.5 33.5t40 37t31.5 45t18 53.5t7.5 66.5q0 144 -105 226.5t-286 82.5q-196 0 -310 -86t-114 -215q0 -62 29 -97.5t80 -35.5q20 0 20 12q0 4 -3 18t-3 23q0 27 19 45t47 18q34 0 52.5 -17t18.5 -48q0 -52 -37.5 -80.5 t-105.5 -28.5q-79 0 -128.5 52.5t-49.5 138.5zM406 63q0 40 26 66.5t66 26.5q39 0 65.5 -26t26.5 -67q0 -38 -27 -64t-65 -26q-39 0 -65.5 27t-26.5 63z" />
<glyph unicode="@" horiz-adv-x="2048" d="M127 524q0 325 197 566q142 173 343 263.5t447 90.5q161 0 304.5 -44.5t244.5 -121.5q258 -199 258 -502q0 -167 -62.5 -304.5t-177.5 -229.5q-142 -111 -303 -111q-188 0 -188 141q0 13 4 45q-47 -88 -124.5 -138t-164.5 -50q-155 0 -235 82.5t-80 241.5q0 228 136 385 t325 157q196 0 258 -176l61 135h66l-138 -546q-24 -98 -24 -121q0 -44 32.5 -69t92.5 -25q70 0 141 32.5t127 91.5q79 85 125.5 206.5t46.5 254.5q0 176 -90.5 313.5t-257.5 215t-385 77.5q-335 0 -567 -188q-158 -128 -240 -302.5t-82 -385.5q0 -215 99.5 -379t285 -254 t430.5 -90q164 0 328.5 50t302.5 142l23 -34q-290 -215 -644 -215q-381 0 -616 180q-299 229 -299 616zM682 446q0 -121 59 -187t164 -66q115 0 202.5 73.5t119.5 198.5l65 258q-23 102 -85 155.5t-158 53.5q-156 0 -261.5 -140t-105.5 -346z" />
<glyph unicode="A" horiz-adv-x="1347" d="M-92 31q0 30 55 30q8 0 26 -2t27 -2q66 0 98 18.5t54 76.5l469 1204q7 22 15.5 27.5t33.5 5.5q40 0 53 -39l435 -1196q21 -58 54 -76.5t99 -18.5q9 0 26 1t25 1q56 0 56 -28q0 -10 -13.5 -20.5t-27.5 -10.5q-3 0 -29.5 3.5t-76.5 7t-109 3.5q-76 0 -141 -5t-99.5 -10 t-36.5 -5q-16 0 -27.5 9.5t-11.5 19.5q0 30 49 30q6 0 43 -2t68 -2q50 0 73 12t23 41q0 27 -4 39l-135 379q-102 2 -303 2q-199 0 -297 -2l-146 -381q-10 -30 -10 -39q0 -29 22 -41t74 -12q27 0 64 2t47 2q49 0 49 -30q0 -10 -10 -19.5t-23 -9.5q-4 0 -41.5 5t-104.5 10 t-144 5q-54 0 -102.5 -3.5t-77 -7t-33.5 -3.5q-13 0 -24 10t-11 21zM397 571q242 -4 275 -4q40 0 286 4l-274 748z" />
<glyph unicode="B" horiz-adv-x="1355" d="M53 29q0 26 58 26q5 0 34 -2t54 -2t42 3.5t30 7.5t20.5 18t12 24.5t6.5 38.5t2.5 49t0.5 66v850q0 45 -0.5 66t-2.5 49t-6.5 38.5t-12 24.5t-20.5 18t-30 7.5t-42 3.5q-19 0 -53 -2t-48 -2q-19 0 -32 8t-13 18q0 29 45 29q10 0 87 -7t143 -7q69 0 204.5 8t202.5 8 q486 0 486 -313q0 -241 -260 -305q317 -59 317 -365q0 -196 -120 -292.5t-363 -96.5q-49 0 -193 10t-240 10q-74 0 -162 -8t-102 -8q-45 0 -45 29zM381 180q0 -52 6 -76.5t25 -31.5q67 -29 344 -29q231 0 340.5 82.5t109.5 263.5q0 169 -98.5 255.5t-290.5 86.5h-321 q-71 0 -93 -17.5t-22 -86.5v-447zM381 877q0 -72 12 -90.5t70 -18.5h325q363 0 363 276q0 145 -102.5 212t-319.5 67h-139q-61 0 -93 -1.5t-59 -5.5t-37 -14.5t-15 -25.5t-5 -41v-358z" />
<glyph unicode="C" horiz-adv-x="1230" d="M100 680q0 338 151.5 526.5t410.5 188.5q281 0 401 -240v37q0 42 -4 84t-4 43q0 21 8 34t18 13q13 0 22 -11t9 -32l-2 -21q-1 -22 -2.5 -64t-1.5 -93q0 -90 2 -164.5t4 -112.5t2 -39q0 -17 -8 -29t-19 -12q-12 0 -21 11.5t-9 31.5q0 3 2 28.5t2 47.5q0 216 -106.5 330.5 t-288.5 114.5q-227 0 -361.5 -179t-134.5 -497q0 -310 137.5 -486t368.5 -176q422 0 422 447q0 43 22 43q29 0 29 -62q0 -222 -126 -346.5t-349 -124.5q-276 0 -425 182.5t-149 526.5z" />
<glyph unicode="D" horiz-adv-x="1470" d="M53 29q0 26 58 26q5 0 34 -2t54 -2t42 3.5t30 7.5t20.5 18t12 24.5t6.5 38.5t2.5 49t0.5 66v850q0 45 -0.5 66t-2.5 49t-6.5 38.5t-12 24.5t-20.5 18t-30 7.5t-42 3.5q-19 0 -53 -2t-48 -2q-19 0 -32 8t-13 18q0 13 11 21t30 8q18 0 100 -10t144 -10q41 0 173 9t222 9 q321 0 477 -164.5t156 -507.5q0 -341 -166 -516.5t-491 -175.5q-88 0 -212 9t-159 9q-62 0 -144 -9t-100 -9q-19 0 -30 8t-11 21zM381 223q0 -100 20 -139q16 -26 76 -33.5t203 -7.5q316 0 467 161.5t151 502.5q0 333 -145.5 474.5t-460.5 141.5q-222 0 -272 -20 q-27 -10 -33 -50t-6 -143v-852v-35z" />
<glyph unicode="E" horiz-adv-x="1392" d="M53 29q0 26 58 26q5 0 34 -2t54 -2t42 3.5t30 7.5t20.5 18t12 24.5t6.5 38.5t2.5 49t0.5 66v850q0 45 -0.5 66t-2.5 49t-6.5 38.5t-12 24.5t-20.5 18t-30 7.5t-42 3.5q-19 0 -53 -2t-48 -2q-19 0 -32 8t-13 18q0 13 11 21t30 8q3 0 34 -2.5t89 -5t125 -2.5q128 0 350 4 t316 4q104 0 135 -16t31 -82q0 -3 -2 -29.5t-3.5 -74.5t-1.5 -101q0 -58 6.5 -118t6.5 -62q0 -14 -10.5 -27.5t-20.5 -13.5q-9 0 -17 14t-8 35q0 1 1 23.5t2 66t1 96.5v76.5t-4 56t-7 42t-15 27.5t-21 18t-33 8.5t-42.5 5t-57.5 0.5l-430 8h-10q-45 0 -70 -7t-38 -29.5 t-16 -49t-3 -80.5v-346q0 -38 10.5 -45.5t57.5 -7.5h169h74q47 0 74 6.5t40 25t16 39t3 62.5q0 32 -1.5 61t-3 47t-1.5 21q0 43 29 43q31 0 31 -49q0 -8 -10.5 -100t-10.5 -175q0 -103 11.5 -209.5t11.5 -109.5q0 -26 -10 -41t-23 -15t-21 13t-8 37q0 2 1.5 25.5t3 66.5 t1.5 94q0 36 -6.5 57.5t-16 34.5t-37 18.5t-52 7t-78.5 1.5h-17h-172q-44 0 -54.5 -11.5t-10.5 -50.5v-393v-72q0 -33 2 -54t10 -36t15.5 -22.5t27.5 -11.5t36.5 -4t51.5 -1h434q37 0 59 0.5t45 5.5t34 9.5t22 19.5t15 28.5t7.5 42.5t4 56.5t0.5 75.5q0 45 -1 83t-2 57.5 t-1 21.5q0 22 8 35.5t18 13.5q29 0 29 -49q0 -5 -4 -80t-4 -146q0 -44 2 -89t2 -46q0 -62 -30.5 -78t-112.5 -16h-39q-141 0 -362.5 7t-301.5 7q-74 0 -158 -8t-94 -8q-19 0 -30 8t-11 21z" />
<glyph unicode="F" horiz-adv-x="1269" d="M53 29q0 26 58 26q5 0 34 -2t54 -2t42 3.5t30 7.5t20.5 18t12 24.5t6.5 38.5t2.5 49t0.5 66v850q0 45 -0.5 66t-2.5 49t-6.5 38.5t-12 24.5t-20.5 18t-30 7.5t-42 3.5q-19 0 -53 -2t-48 -2q-19 0 -32 8t-13 18q0 13 11 21t30 8q3 0 34.5 -2.5t89.5 -5t124 -2.5h107 q74 0 241 4t260 4q104 0 135 -16t31 -82q0 -3 -1.5 -29.5t-3 -74.5t-1.5 -101q0 -58 6 -118t6 -62q0 -14 -10.5 -27.5t-19.5 -13.5t-18 14t-9 35q0 1 1.5 23.5t3 66t1.5 96.5v76t-4.5 56.5t-7 41.5t-15.5 27t-21 18t-32.5 8.5t-42 5t-57.5 1.5l-371 8h-10q-45 0 -70.5 -7.5 t-38.5 -29.5t-16.5 -49.5t-3.5 -79.5v-377q0 -39 11 -47t57 -8h172h71q47 0 74.5 6.5t40.5 25.5t16.5 40.5t3.5 62.5q0 32 -2 60.5t-4 46t-2 20.5q0 45 31 45q29 0 29 -51q0 -8 -9.5 -99t-9.5 -174q0 -103 10.5 -209.5t10.5 -109.5q0 -26 -9 -41.5t-22 -15.5t-21 13.5 t-8 37.5q0 2 1.5 25.5t3 66.5t1.5 94q0 36 -6.5 57.5t-16 34.5t-37 18.5t-52 7t-78.5 1.5h-16h-175q-44 0 -54.5 -11t-10.5 -50v-363v-80q0 -79 24.5 -103t90.5 -24q20 0 53 2t47 2q19 0 31 -8t12 -18q0 -29 -39 -29q-8 0 -94 8t-160 8t-159 -8t-93 -8q-19 0 -30 8t-11 21z " />
<glyph unicode="G" horiz-adv-x="1462" d="M98 682q0 332 162 522.5t438 190.5q340 0 459 -262q-2 49 -5.5 92.5t-6 67.5t-2.5 28q0 45 28 45q14 0 23.5 -12t9.5 -33l-2 -21q-1 -22 -2.5 -63.5t-1.5 -91.5q0 -89 2.5 -163.5t5 -112t2.5 -38.5q0 -17 -9 -30t-21 -13q-13 0 -23 12.5t-10 33.5q0 6 2 25.5t2 33.5 q0 223 -118 341t-333 118q-239 0 -381.5 -178t-142.5 -484q0 -320 143 -498t392 -178q195 0 316.5 98t121.5 238v43q0 44 -0.5 65.5t-2.5 49t-7 39t-12.5 25t-20.5 18t-30 7.5t-42 3q-20 0 -53 -2t-47 -2q-19 0 -32 8.5t-13 18.5q0 28 41 28q13 0 97 -10t155 -10 q66 0 148 10t97 10q41 0 41 -28q0 -11 -14.5 -19t-42.5 -8q-5 0 -34 2t-54 2q-82 0 -98.5 -35.5t-16.5 -171.5v-172v-10q0 -28 3 -78t3 -70q0 -45 -28 -45q-33 0 -33 39q0 2 1 17t2 41t1 55v37q-70 -121 -182 -178.5t-275 -57.5q-280 0 -440 188t-160 523z" />
<glyph unicode="H" horiz-adv-x="1574" d="M53 29q0 26 58 26q5 0 34 -2t54 -2t42 3.5t30 7.5t20.5 18t12 24.5t6.5 38.5t2.5 49t0.5 66v850q0 45 -0.5 66t-2.5 49t-6.5 38.5t-12 24.5t-20.5 18t-30 7.5t-42 3.5q-19 0 -53 -2t-48 -2q-19 0 -32 8t-13 18q0 13 11 21t30 8q11 0 95 -10t157 -10t158 10t96 10 q39 0 39 -29q0 -26 -55 -26q-5 0 -34 2t-54 2q-82 0 -98.5 -35.5t-16.5 -171.5v-354q294 -4 405 -4q122 0 408 4v354q0 37 -0.5 58t-2 45.5t-4.5 37t-9 26.5t-14 19.5t-21 11.5t-28.5 7.5t-37.5 1.5q-19 0 -52 -2t-46 -2q-19 0 -32 8t-13 18q0 29 39 29q11 0 96 -10t158 -10 t157 10t95 10q19 0 30 -8t11 -21q0 -26 -58 -26q-5 0 -33 2t-53 2q-22 0 -38 -1t-28.5 -8t-20 -11t-13.5 -20.5t-8.5 -25.5t-4 -37.5t-1.5 -45v-58.5v-850v-35q0 -110 19.5 -141t94.5 -31q20 0 53 2t46 2q19 0 32 -8t13 -18q0 -13 -11 -21t-30 -8q-11 0 -95 9t-157 9 t-158 -9t-96 -9q-39 0 -39 29q0 26 57 26q5 0 33 -2t53 -2q22 0 37.5 1.5t28.5 7.5t21 11.5t14 19.5t9 26.5t4.5 37t2 45.5t0.5 58v440q-301 7 -408 7q-104 0 -405 -7v-440v-35q0 -109 20 -140.5t95 -31.5q20 0 53 2t47 2q19 0 31 -8t12 -18q0 -29 -39 -29q-11 0 -96 9 t-158 9t-157 -9t-95 -9q-19 0 -30 8t-11 21z" />
<glyph unicode="I" horiz-adv-x="690" d="M51 29q0 26 58 26q5 0 34 -2t54 -2t42 3.5t30 7.5t20.5 18t12 24.5t6.5 38.5t2.5 49t0.5 66v850q0 45 -0.5 66t-2.5 49t-6.5 38.5t-12 24.5t-20.5 18t-30 7.5t-42 3.5q-19 0 -53 -2t-48 -2q-19 0 -32 8t-13 18q0 13 11 21t30 8q11 0 96 -10t158 -10t157 10t95 10 q19 0 30 -8t11 -21q0 -26 -57 -26q-5 0 -34 2t-54 2q-82 0 -98.5 -35.5t-16.5 -171.5v-850v-35q0 -109 20 -140.5t95 -31.5q20 0 53 2t47 2q19 0 32 -8t13 -18q0 -13 -11 -21t-30 -8q-11 0 -95 9t-157 9t-158 -9t-96 -9q-19 0 -30 8t-11 21z" />
<glyph unicode="J" horiz-adv-x="1245" d="M63 305q0 115 63.5 189.5t154.5 74.5q64 0 97.5 -24.5t33.5 -67.5q0 -34 -21 -57t-53 -23q-62 0 -62 54q0 15 11.5 31.5t11.5 17.5q0 10 -10.5 17t-28.5 7q-54 0 -93.5 -59.5t-39.5 -157.5q0 -135 101 -214t278 -79q190 0 295 105q68 68 88 156t20 241v592q0 50 -0.5 75 t-4.5 53.5t-10.5 39.5t-20 22.5t-32.5 14t-48 2.5q-19 0 -52 -2t-47 -2q-19 0 -32 8t-13 18q0 29 39 29q11 0 96 -10t158 -10t157 10t95 10q19 0 30 -8t11 -21q0 -26 -57 -26q-5 0 -34 2t-54 2q-24 0 -41 -3t-30 -7.5t-20.5 -17t-12 -23t-6.5 -36t-2.5 -45t-0.5 -59.5v-16 v-619q0 -265 -118.5 -391.5t-379.5 -126.5q-195 0 -305.5 90t-110.5 244z" />
<glyph unicode="K" horiz-adv-x="1484" d="M53 29q0 26 58 26q5 0 34 -2t54 -2t42 3.5t30 7.5t20.5 18t12 24.5t6.5 38.5t2.5 49t0.5 66v850q0 45 -0.5 66t-2.5 49t-6.5 38.5t-12 24.5t-20.5 18t-30 7.5t-42 3.5q-19 0 -53 -2t-48 -2q-19 0 -32 8t-13 18q0 13 11 21t30 8q11 0 95 -10t157 -10t158 10t96 10 q39 0 39 -29q0 -26 -55 -26q-5 0 -34 2t-54 2q-82 0 -98.5 -35.5t-16.5 -171.5v-530l713 651q29 25 39 37t10 26q0 16 -11 20.5t-40 4.5h-19q-24 0 -64.5 -3t-56.5 -3q-25 0 -39 8t-14 18q0 13 11 21t30 8q18 0 98 -10t142 -10q59 0 137.5 10t97.5 10t30 -8t11 -21 q0 -26 -57 -26q-18 0 -45 3t-35 3q-12 0 -24 -2.5t-25.5 -10t-22 -12.5t-25.5 -19t-24 -20t-28.5 -26t-28.5 -27l-391 -358l483 -682q4 -5 16 -22t16 -21.5t14.5 -18t16.5 -17.5t16.5 -12.5t20 -11.5t21.5 -5.5t26 -2.5q18 0 48 3t42 3q27 0 41.5 -7.5t14.5 -18.5 q0 -13 -11 -21t-30 -8q-11 0 -95 9t-157 9q-45 0 -120 -9t-101 -9q-19 0 -30 8t-11 21q0 10 14 18t39 8q20 0 69 -5t76 -5q39 0 39 27q0 19 -37 71l-469 652l-321 -287v-250v-35q0 -109 20 -140.5t95 -31.5q20 0 53 2t47 2q19 0 31 -8t12 -18q0 -29 -39 -29q-11 0 -96 9 t-158 9t-157 -9t-95 -9q-19 0 -30 8t-11 21z" />
<glyph unicode="L" horiz-adv-x="1243" d="M53 29q0 26 58 26q5 0 34 -2t54 -2t42 3.5t30 7.5t20.5 18t12 24.5t6.5 38.5t2.5 49t0.5 66v850q0 45 -0.5 66t-2.5 49t-6.5 38.5t-12 24.5t-20.5 18t-30 7.5t-42 3.5q-19 0 -53 -2t-48 -2q-19 0 -32 8t-13 18q0 13 11 21t30 8q11 0 95 -10t157 -10t158 10t96 10 q39 0 39 -29q0 -26 -55 -26q-5 0 -34 2t-54 2q-82 0 -98.5 -35.5t-16.5 -171.5v-850v-74q0 -28 2.5 -47t6 -33.5t13.5 -23t17.5 -13.5t27 -7t33 -2t43.5 -1h346q37 0 59 0.5t45 5.5t34 9.5t22 19.5t15 28.5t7.5 42.5t4 56.5t0.5 75.5q0 45 -1.5 83t-3 57.5t-1.5 21.5 q0 22 8 35.5t18 13.5q29 0 29 -49q0 -5 -4 -80t-4 -146q0 -44 2 -89t2 -46q0 -20 -3.5 -35t-8.5 -25t-17.5 -16.5t-21.5 -10t-30 -5t-34.5 -2t-42.5 -0.5q-111 0 -300.5 7t-266.5 7q-69 0 -132.5 -4t-102.5 -8t-48 -4q-19 0 -30 8t-11 21z" />
<glyph unicode="M" horiz-adv-x="1835" d="M53 29q0 26 58 26q5 0 34 -2t54 -2t42 3.5t30 7.5t20.5 18t12 24.5t6.5 38.5t2.5 49t0.5 66v850q0 45 -0.5 66t-2.5 49t-6.5 38.5t-12 24.5t-20.5 18t-30 7.5t-42 3.5q-19 0 -53 -2t-48 -2q-19 0 -32 8t-13 18q0 13 11 21t30 8q6 0 58 -5t98 -5q27 0 64 2t48 2 q63 0 80 -43l478 -1231l473 1231q10 27 22.5 35t42.5 8q7 0 48.5 -3t76.5 -3t87 6t69 6q19 0 30 -8t11 -21q0 -26 -58 -26q-5 0 -33 2t-53 2q-22 0 -38 -1.5t-28.5 -8t-20.5 -11.5t-14 -20t-8.5 -26t-4.5 -37.5t-2 -45v-57.5v-850v-35q0 -109 20.5 -140.5t95.5 -31.5 q20 0 53 2t46 2q19 0 32 -8t13 -18q0 -13 -11 -21t-30 -8q-15 0 -97.5 9t-148.5 9q-71 0 -155 -9t-97 -9q-19 0 -30 8t-11 21q0 26 57 26q5 0 34.5 -2t54.5 -2t42 3.5t30 7.5t20.5 18t12 24.5t6.5 38.5t2.5 49t0.5 66v1049l-485 -1239q-13 -35 -21.5 -42.5t-33.5 -7.5 q-23 0 -32 9.5t-22 42.5l-493 1241v-1053v-35q0 -109 20.5 -140.5t95.5 -31.5q19 0 52 2t47 2q19 0 32 -8t13 -18q0 -13 -11 -21t-30 -8q-13 0 -97 9t-155 9q-66 0 -148.5 -9t-97.5 -9q-19 0 -30 8t-11 21z" />
<glyph unicode="N" horiz-adv-x="1570" d="M53 29q0 26 58 26q5 0 34 -2t54 -2q29 0 48 2.5t32.5 14t20 22.5t10.5 39.5t4.5 53.5t0.5 75v850q0 50 -0.5 75t-4.5 53.5t-10.5 39.5t-20 22.5t-32.5 14t-48 2.5q-19 0 -53 -2t-48 -2q-19 0 -32 8t-13 18q0 13 11 21t30 8q1 0 23.5 -2t66 -4t95.5 -2q23 0 42.5 0.5t31 1 t12.5 0.5q35 0 52 -12.5t40 -51.5l733 -1226v1038q0 37 -0.5 58t-2 45.5t-4.5 37t-9 26.5t-14 19.5t-21 11.5t-28.5 7.5t-37.5 1.5q-19 0 -52 -2t-46 -2q-19 0 -32 8t-13 18q0 13 11 21t30 8q11 0 95 -10t157 -10t157 10t95 10q19 0 30 -8t11 -21q0 -26 -58 -26q-5 0 -33 2 t-53 2q-22 0 -38 -1.5t-28.5 -7.5t-21 -11.5t-14 -20.5t-8.5 -26.5t-4.5 -37t-2 -45t-0.5 -57.5v-1038q0 -32 -16 -53t-41 -21q-38 0 -65 49l-752 1260v-1047v-35q0 -109 20 -140.5t95 -31.5q20 0 53 2t47 2q19 0 31 -8t12 -18q0 -29 -39 -29q-11 0 -96 9t-158 9t-157 -9 t-95 -9q-19 0 -30 8t-11 21z" />
<glyph unicode="O" horiz-adv-x="1398" d="M102 682q0 333 160 523t438 190q275 0 435.5 -191t160.5 -522q0 -328 -159.5 -519.5t-438.5 -191.5q-276 0 -436 191t-160 520zM174 682q0 -308 142.5 -488t381.5 -180t383 180.5t144 487.5t-144 488.5t-383 181.5t-381.5 -181t-142.5 -489z" />
<glyph unicode="P" horiz-adv-x="1288" d="M53 29q0 26 58 26q5 0 34 -2t54 -2t42 3.5t30 7.5t20.5 18t12 24.5t6.5 38.5t2.5 49t0.5 66v850q0 45 -0.5 66t-2.5 49t-6.5 38.5t-12 24.5t-20.5 18t-30 7.5t-42 3.5q-19 0 -53 -2t-48 -2q-19 0 -32 8t-13 18q0 13 11 21t30 8q4 0 39 -3.5t97.5 -7t134.5 -3.5 q47 0 171.5 5t200.5 5q475 0 475 -389q0 -190 -123 -281.5t-374 -91.5q-76 0 -172.5 4t-114.5 4q-26 0 -36.5 -9t-10.5 -32v-309v-35q0 -109 20 -140.5t95 -31.5q20 0 53 2t47 2q19 0 31 -8t12 -18q0 -29 -39 -29q-11 0 -96 9t-158 9t-157 -9t-95 -9q-19 0 -30 8t-11 21z M381 711q0 -51 38.5 -59.5t252.5 -8.5q126 0 210.5 16t145 55t88 105.5t27.5 167.5q0 171 -105.5 251.5t-320.5 80.5q-240 0 -288 -13.5t-48 -86.5v-508z" />
<glyph unicode="Q" horiz-adv-x="1398" d="M102 682q0 333 160 523t438 190q275 0 435.5 -191t160.5 -522q0 -261 -102.5 -434.5t-296.5 -247.5q-2 -45 -2 -123q0 -227 160 -227q80 0 122 45.5t42 132.5q0 7 -1 22.5t-1 22.5q0 23 7 36t17 13q31 0 31 -51q0 -135 -52.5 -199.5t-166.5 -64.5q-213 0 -213 270v33 q0 1 0.5 11.5t1 28t0.5 36.5q-80 -17 -140 -17q-276 0 -438 191.5t-162 521.5zM174 682q0 -221 75.5 -376t219.5 -238q-63 75 -63 155q0 91 65 147t176 56q119 0 187.5 -74t68.5 -207q0 -29 -6 -94q154 67 241 231.5t87 399.5q0 307 -144 488.5t-383 181.5t-381.5 -181 t-142.5 -489zM453 219q0 -92 65.5 -149.5t181.5 -57.5q66 0 146 23q8 70 8 106q0 242 -219 242q-82 0 -132 -45.5t-50 -118.5z" />
<glyph unicode="R" horiz-adv-x="1474" d="M53 29q0 26 58 26q5 0 34 -2t54 -2t42 3.5t30 7.5t20.5 18t12 24.5t6.5 38.5t2.5 49t0.5 66v850q0 45 -0.5 66t-2.5 49t-6.5 38.5t-12 24.5t-20.5 18t-30 7.5t-42 3.5q-19 0 -53 -2t-48 -2q-19 0 -32 8t-13 18q0 13 11 21t30 8q4 0 39 -3.5t98 -7t134 -3.5q58 0 187.5 5 t201.5 5q213 0 321.5 -90t108.5 -264q0 -257 -283 -322q62 -17 101 -45.5t59 -76.5t26.5 -102t6.5 -140v-127q0 -95 20.5 -135t77.5 -40q31 0 53 9.5t37 33t23.5 50.5t13 76.5t5.5 95t1 121.5q0 12 -2 36.5t-2 38.5q0 18 9.5 31.5t19.5 13.5q32 0 32 -61v-119 q0 -212 -39 -297.5t-155 -85.5q-90 0 -123 60t-33 194q0 4 1 34t1 56q0 71 -4 120t-16 92t-32.5 68.5t-54 44.5t-79.5 26.5t-111 7.5h-309q-27 0 -37 -6t-10 -31v-371v-35q0 -109 20 -140.5t95 -31.5q20 0 53 2t47 2q19 0 31 -8t12 -18q0 -29 -39 -29q-11 0 -96 9t-158 9 t-157 -9t-95 -9q-19 0 -30 8t-11 21zM381 770q0 -44 22.5 -52.5t120.5 -8.5h54q94 0 160 4t130.5 15t106 31.5t74.5 53.5t48 81.5t15 113.5q0 309 -373 309h-102q-177 0 -216.5 -13t-39.5 -75v-459z" />
<glyph unicode="S" horiz-adv-x="1120" d="M88 524q0 21 8 33t19 12q13 0 21.5 -12.5t8.5 -34.5q0 -9 -3 -47.5t-3 -68.5q0 -186 109.5 -290t298.5 -104q195 0 309.5 99t114.5 264q0 51 -8.5 91t-23 69t-41 51t-54.5 36t-72 24.5t-84.5 17t-101.5 12.5q-14 1 -70 7t-71.5 8t-58 9t-63 15t-49.5 21.5t-53 31.5 q-108 80 -108 254q0 164 118.5 268.5t311.5 104.5q263 0 366 -211v55q0 29 -3 61t-3 35q0 11 9.5 21t19.5 10q31 0 31 -45q0 -1 -2.5 -29t-4.5 -80.5t-2 -113.5q0 -53 3 -98.5t6.5 -70t3.5 -26.5q0 -20 -8 -33.5t-17 -13.5q-12 0 -21.5 13.5t-9.5 39.5q0 4 1 19t1 24 q0 190 -96.5 295t-271.5 105q-163 0 -265 -91.5t-102 -234.5q0 -141 78.5 -202.5t255.5 -82.5q26 -3 96 -10t98.5 -11.5t77 -14.5t82 -25.5t62.5 -38.5q112 -86 112 -252q0 -187 -130.5 -302.5t-354.5 -115.5q-145 0 -246.5 51.5t-167.5 159.5q13 -140 13 -145q0 -21 -9 -32 t-22 -11t-23 14t-10 39q0 4 2 27t4 61t2 80q0 82 -2.5 153.5t-5 111t-2.5 44.5z" />
<glyph unicode="T" horiz-adv-x="1247" d="M90 891q0 3 4 73.5t4 137.5q0 55 -4 123t-4 82q0 33 14 44t60 11q1 0 58 -2.5t166.5 -5t238.5 -2.5t238 3t165 5t57 2q46 0 60 -11t14 -44q0 -14 -4 -82t-4 -123q0 -67 4 -137.5t4 -73.5q0 -51 -31 -51q-30 0 -30 45q0 20 4 99.5t4 137.5q0 48 -2 77.5t-11 53t-20 34.5 t-36 18t-51 8.5t-73 1.5h-65h-70q-74 0 -97.5 -12t-23.5 -56v-989v-35q0 -109 20 -140.5t95 -31.5q20 0 53 2t47 2q19 0 32.5 -8t13.5 -18q0 -13 -11 -21t-30 -8q-11 0 -95 9t-157 9t-158 -9t-96 -9q-19 0 -30 8t-11 21q0 26 57 26q5 0 34 -2t54 -2t42 3t30 7.5t20.5 18 t12.5 25t7 39t2.5 49t0.5 65.5v989q0 44 -24.5 56t-104.5 12h-76h-45q-50 0 -75.5 -1t-52.5 -8t-37.5 -17.5t-20 -34t-11.5 -53.5t-2 -79q0 -58 4.5 -137.5t4.5 -99.5q0 -45 -31 -45t-31 51z" />
<glyph unicode="U" horiz-adv-x="1497" d="M4 1337q0 29 39 29q11 0 96 -10t158 -10t157 10t95 10q19 0 30 -8t11 -21q0 -26 -58 -26q-5 0 -34 2t-54 2t-42 -3.5t-30 -7.5t-20.5 -18t-12 -24.5t-6.5 -38.5t-2.5 -49t-0.5 -66v-700q0 -200 100.5 -297t312.5 -97q206 0 316 100.5t110 293.5v700q0 50 -0.5 75 t-4.5 53.5t-10.5 39.5t-20 22.5t-32.5 14t-48 2.5q-19 0 -52 -2t-47 -2q-19 0 -32 8t-13 18q0 29 39 29q11 0 96 -10t158 -10t157 10t95 10q19 0 30 -8t11 -21q0 -26 -57 -26q-5 0 -34 2t-54 2q-82 0 -98.5 -35.5t-16.5 -171.5v-698q0 -216 -122 -327.5t-355 -111.5 q-265 0 -380.5 105.5t-115.5 333.5v698v58t-1.5 45.5t-4.5 37.5t-8.5 25.5t-13.5 20.5t-20.5 11t-28.5 7.5t-38 1.5q-19 0 -51.5 -2t-46.5 -2q-19 0 -32 8t-13 18z" />
<glyph unicode="V" horiz-adv-x="1296" d="M-66 1329q0 13 10.5 22t28.5 9q3 0 28 -3.5t70 -7t97 -3.5q72 0 134.5 4.5t95.5 9t36 4.5q14 0 24.5 -9t10.5 -20q0 -30 -45 -30q-10 0 -42 2t-54 2q-90 0 -90 -54q0 -28 4 -38l413 -1158l412 1160q10 25 10 38q0 29 -22 41.5t-72 12.5q-23 0 -56.5 -2t-43.5 -2 q-45 0 -45 30q0 11 10 20t24 9q2 0 36.5 -4.5t98 -9t136.5 -4.5q53 0 98 3t70 6t28 3q17 0 26 -8t9 -21q0 -31 -49 -31q-5 0 -21.5 1.5t-27.5 1.5q-61 0 -93 -19t-53 -76l-428 -1202q-7 -21 -17 -28t-32 -7q-23 0 -33 8.5t-18 30.5l-426 1196q-19 55 -49 74.5t-84 19.5 q-16 0 -34 -1t-21 -1q-25 0 -39.5 9t-14.5 22z" />
<glyph unicode="W" horiz-adv-x="1720" d="M-20 1335q0 27 36 27q3 0 28 -2.5t69.5 -5t95.5 -2.5q86 0 171 8l85 8q13 0 24 -9t11 -18q0 -30 -45 -30q-9 0 -44 2t-61 2q-50 0 -73 -17t-23 -55q0 -9 4 -33l254 -1134l295 1241q5 20 19 32.5t34 12.5q49 0 58 -45l290 -1241l250 1153v18q0 39 -24.5 53.5t-85.5 14.5 q-28 0 -59 -2t-34 -2q-41 0 -41 28q0 12 13.5 21.5t34.5 9.5q5 0 35 -4.5t80.5 -9t107.5 -4.5q55 0 102.5 3t73.5 6t29 3q14 0 26.5 -10t12.5 -19q0 -30 -48 -30h-61q-42 0 -63 -15t-31 -59l-269 -1206q-6 -30 -16.5 -42t-34.5 -12q-23 0 -32.5 12t-16.5 42l-297 1265 l-299 -1265q-6 -30 -16.5 -42t-34.5 -12q-21 0 -33 13t-18 41l-266 1189q-12 53 -40.5 73t-86.5 20q-7 0 -21.5 -1t-21.5 -1q-43 0 -43 30z" />
<glyph unicode="X" horiz-adv-x="1460" d="M-25 29q0 11 15.5 18.5t42.5 7.5q20 0 46.5 -3t33.5 -3q13 0 24 2.5t19.5 4.5t19 11t15.5 12.5t16.5 17.5t15.5 19t18.5 24.5t18.5 25.5l434 565l-366 473q-45 59 -77.5 85t-74.5 26q-21 0 -49.5 -2t-36.5 -2q-25 0 -39 8t-14 18q0 29 39 29q13 0 98 -10t156 -10 q45 0 120 10t101 10q39 0 39 -29q0 -10 -14 -18t-39 -8q-20 0 -68 5t-76 5q-19 0 -30 -8t-11 -21q0 -20 37 -69l340 -445l340 451q3 4 9 12.5t9 12.5t6.5 10.5t5 12t1.5 11.5q0 19 -14.5 24t-51.5 5h-26q-18 0 -54 -3t-53 -3q-25 0 -39 8t-14 18q0 13 11 21t30 8 q18 0 97.5 -10t141.5 -10q59 0 138 10t98 10t30 -8t11 -21q0 -26 -55 -26q-20 0 -47.5 3t-34.5 3q-17 0 -32 -5t-24.5 -8.5t-24 -19t-19.5 -21t-24 -31t-24 -32.5l-362 -467l438 -573q24 -32 35.5 -46t31 -32t40 -24.5t47.5 -6.5q22 0 51 2t35 2q25 0 39 -8t14 -18 q0 -13 -11 -21t-30 -8q-13 0 -97 9t-155 9q-45 0 -120 -9t-101 -9q-19 0 -30 8t-11 21q0 10 14 18t39 8q21 0 70 -5t76 -5q38 0 38 27q0 23 -36 71l-408 529l-414 -535q-32 -41 -32 -59q0 -19 15 -25t50 -6l4 1q4 0 10.5 0.5t12.5 0.5q17 0 53 3t53 3q25 0 39 -8t14 -18 q0 -29 -40 -29q-18 0 -98 9t-142 9q-59 0 -138 -9t-98 -9t-30 8t-11 21z" />
<glyph unicode="Y" horiz-adv-x="1234" d="M-49 1337q0 12 10.5 20.5t28.5 8.5q7 0 37 -4t80 -8t104 -4q53 0 128.5 8t94.5 8q39 0 39 -29q0 -26 -55 -26q-20 0 -68 4t-76 4q-22 0 -34.5 -9.5t-12.5 -23.5t29 -63l371 -598l368 596q27 43 27 63t-14 27.5t-45 7.5q-27 0 -73 -4t-63 -4q-23 0 -37 8t-14 18 q0 29 39 29q6 0 75.5 -7t133.5 -7q68 0 124.5 3.5t86 7t31.5 3.5q18 0 28.5 -8.5t10.5 -20.5q0 -10 -14 -18t-36 -8q-8 0 -29 2t-36 2q-42 0 -68.5 -24.5t-66.5 -90.5l-396 -635v-307v-35q0 -109 20 -140.5t95 -31.5q20 0 53 2t47 2q19 0 32.5 -8t13.5 -18q0 -13 -11 -21 t-30 -8q-11 0 -95 9t-157 9t-158 -9t-96 -9q-39 0 -39 29q0 26 57 26q5 0 33 -2t53 -2t42 3t30 7.5t20.5 18t12.5 25t7 39t2.5 49t0.5 65.5v307l-399 639q-4 6 -13 20t-12.5 19.5t-11.5 16.5t-12 15.5t-12 12.5t-14 11l-14 7t-17 5.5t-19 1.5q-11 0 -35 -1t-37 -1 q-19 0 -32 8t-13 18z" />
<glyph unicode="Z" horiz-adv-x="1120" d="M29 29q0 28 34 75l910 1219h-737q-26 0 -40 -1t-26 -10.5t-17 -18t-8 -36.5t-3.5 -51.5t-0.5 -77.5q0 -46 1.5 -86t3 -62t1.5 -24q0 -14 -10.5 -27.5t-19.5 -13.5q-11 0 -21 13t-10 26q0 2 3 33t6 89.5t3 127.5v111q0 31 16 41t68 10h762q54 0 77 -6.5t23 -26.5 q0 -31 -32 -71l-910 -1219h775h30q18 0 30.5 3.5t20.5 16t12 23t6 38t2.5 47t0.5 62.5q0 64 -2.5 119t-5 84.5t-2.5 30.5q0 22 11 39.5t21 17.5q11 0 23 -16t12 -37q0 -1 -4 -38t-8 -109t-4 -158q0 -3 0.5 -15.5t1 -34t0.5 -44.5q0 -44 -13.5 -58t-64.5 -14h-811 q-60 0 -82 4.5t-22 24.5z" />
<glyph unicode="[" horiz-adv-x="782" d="M152 -338v1634q0 39 13 53.5t50 14.5q25 0 91 -2t108 -2q52 0 97 1t70 2t27 1q25 0 38 -8.5t13 -20.5q0 -11 -14 -19.5t-39 -8.5q-2 0 -78 7t-151 7q-25 0 -43.5 -0.5t-34.5 -3.5t-27 -5t-20.5 -10t-14.5 -12.5t-9.5 -19t-6 -23t-3 -31.5t-1.5 -37v-46v-1307v-46t1.5 -37 t3 -31.5t6 -23t9.5 -19t14.5 -12.5t20.5 -10t27 -5t34.5 -3.5t43.5 -0.5q75 0 151 6t78 6q25 0 39 -9t14 -20q0 -12 -13 -20.5t-38 -8.5q-2 0 -27 1t-70 2.5t-97 1.5q-40 0 -107 -1.5t-94 -1.5q-36 0 -48.5 15t-12.5 53z" />
<glyph unicode="\" horiz-adv-x="559" d="M-51 1374q0 21 31 21q18 0 25.5 -8t17.5 -31l630 -1503q9 -22 9 -23q0 -18 -31 -18q-18 0 -27 7.5t-18 28.5l-631 1506q-6 15 -6 20z" />
<glyph unicode="]" horiz-adv-x="782" d="M102 -379q0 11 14.5 20t39.5 9q2 0 78 -6t151 -6q25 0 43.5 0.5t34.5 3.5t27 5t20.5 10t14.5 12.5t9.5 19t6 23t3 31.5t1.5 37v46v1307v46t-1.5 37t-3 31.5t-6 23t-9.5 19t-14.5 12.5t-20.5 10t-27 5t-34.5 3.5t-43.5 0.5q-75 0 -151 -7t-78 -7q-25 0 -39.5 8.5 t-14.5 19.5t14.5 20t39.5 9q2 0 26.5 -1t69 -2t96.5 -1q40 0 108 2t95 2q35 0 47 -15t12 -53v-1634q0 -39 -13 -53.5t-50 -14.5q-25 0 -91 1.5t-108 1.5q-52 0 -96.5 -1.5t-69 -2.5t-26.5 -1q-25 0 -39.5 9t-14.5 20z" />
<glyph unicode="^" horiz-adv-x="2048" d="M426 903l547 553h98l549 -553h-109l-487 483l-489 -483h-109z" />
<glyph unicode="_" d="M0 -422h1024v-61h-1024v61z" />
<glyph unicode="`" d="M276 1378q0 12 8 19.5t19 7.5q12 0 23 -8l401 -256q23 -13 23 -25t-19 -12q-13 0 -26 8l-400 225q-29 16 -29 41z" />
<glyph unicode="a" horiz-adv-x="1097" d="M45 244q0 130 84.5 207t239.5 86q35 2 97.5 4t90.5 4t62 8t55 16q92 47 92 164q0 223 -297 223q-128 0 -214.5 -54t-86.5 -132q0 -17 8 -27t17 -10q2 0 9 12.5t21.5 24.5t36.5 12q70 0 70 -67q0 -37 -28 -58.5t-79 -21.5q-49 0 -78.5 33.5t-29.5 89.5q0 99 100 169 t256 70q191 0 274.5 -74t83.5 -233v-500v-57q0 -56 25 -86.5t70 -30.5q29 0 50 10.5t33 27t18.5 46.5t8.5 61t2 77q0 4 -1 12t-1 12q0 41 23 41q26 0 26 -41q0 -77 -5.5 -124.5t-21.5 -88.5t-49 -59.5t-85 -18.5q-154 0 -154 199v25q-56 -106 -159.5 -165t-233.5 -59 q-147 0 -238.5 77t-91.5 196zM111 246q0 -101 77 -165.5t203 -64.5q168 0 272.5 106t104.5 300v174q-50 -58 -111.5 -75.5t-179.5 -24.5q-190 -11 -278 -65t-88 -185z" />
<glyph unicode="b" horiz-adv-x="1103" d="M-55 1343q0 11 10.5 19t28.5 8q4 0 34.5 -3t57.5 -3q24 0 62 4t52 4q33 0 42.5 -18t9.5 -68v-483q117 194 342 194q193 0 307.5 -138t114.5 -382q0 -235 -117 -371.5t-309 -136.5q-117 0 -205.5 56.5t-132.5 160.5v-114q0 -35 -6 -51.5t-25 -16.5q-17 0 -22 13t-5 42v17 v1036v31q0 106 -16.5 142t-83.5 36q-23 0 -55 -3t-39 -3q-21 0 -33 8.5t-12 19.5zM246 383q0 -175 90 -272t242 -97q166 0 263 122.5t97 340.5q0 231 -96 354t-269 123q-151 0 -239 -98.5t-88 -282.5v-190z" />
<glyph unicode="c" horiz-adv-x="966" d="M70 461q0 250 129.5 395t343.5 145q159 0 261.5 -84.5t102.5 -209.5q0 -65 -35.5 -103.5t-89.5 -38.5q-41 0 -63.5 18t-22.5 50q0 26 18 42.5t46 16.5q26 0 47 -13t22 -13q7 0 14 17t7 40q0 94 -88 164.5t-221 70.5q-183 0 -293.5 -130.5t-110.5 -354.5 q0 -222 102 -340.5t293 -118.5q117 0 203 57.5t111 145.5q4 16 9 53t12 54.5t22 17.5q11 0 20 -12t9 -31q0 -62 -27.5 -120.5t-77 -105t-126.5 -74.5t-169 -28q-205 0 -326.5 132.5t-121.5 357.5z" />
<glyph unicode="d" horiz-adv-x="1085" d="M68 481q0 243 114.5 379.5t306.5 136.5q221 0 342 -194v303v31q0 106 -16.5 142t-83.5 36q-25 0 -55.5 -3t-36.5 -3q-21 0 -33 8.5t-12 19.5t10.5 20t28.5 9q6 0 34.5 -4t53.5 -4q24 0 62.5 5t52.5 5q36 0 45.5 -16.5t9.5 -69.5v-1024v-29q0 -40 1 -61.5t4 -45.5t10 -35 t19.5 -21.5t30.5 -13.5t45 -3q30 0 69.5 3t47.5 3q21 0 33 -8.5t12 -19.5t-10.5 -19t-28.5 -8q-4 0 -41 4t-69 4q-31 0 -73.5 -5t-53.5 -5q-37 0 -46.5 17t-9.5 69v102q-53 -111 -138 -164t-212 -53q-188 0 -300.5 135.5t-112.5 376.5zM135 477q0 -218 97.5 -340.5 t263.5 -122.5q147 0 241 97.5t94 234.5v227q0 178 -90.5 279.5t-240.5 101.5q-173 0 -269 -123t-96 -354z" />
<glyph unicode="e" horiz-adv-x="1007" d="M68 485q0 229 120 371.5t304 142.5q183 0 297 -117.5t114 -295.5q0 -47 -17 -58.5t-73 -11.5h-678q0 -11 -0.5 -21t-1 -15.5t-0.5 -6.5q0 -216 101 -337.5t268 -121.5q118 0 203 57t110 146q4 16 9 53t12 54.5t22 17.5q11 0 19 -12t8 -31q0 -129 -108 -228.5t-277 -99.5 q-198 0 -315 136t-117 378zM135 563h709q-3 179 -97 284t-249 105q-151 0 -245.5 -100.5t-117.5 -288.5z" />
<glyph unicode="f" horiz-adv-x="735" d="M39 27q0 11 12 19.5t33 8.5q5 0 38 -3t60 -3q31 0 50.5 7.5t30.5 19t16.5 39.5t6.5 52.5t1 74.5v16v672h-58q-30 0 -56 -1t-40 -2t-16 -1q-35 0 -35 26q0 25 41 25q3 0 38.5 -2t67.5 -2h58q-2 18 -2 53q0 164 78 252t219 88q112 0 176.5 -42.5t64.5 -111.5 q0 -38 -21 -58.5t-59 -20.5q-71 0 -71 65q0 27 17 39.5t34.5 15.5t17.5 7q0 27 -43 45t-110 18q-244 0 -244 -281q0 -19 4 -69h144q30 0 56 1t40 2t16 1q35 0 35 -27q0 -24 -41 -24q-3 0 -38.5 1t-67.5 1h-144v-670v-29q0 -40 0.5 -60.5t4 -45t9.5 -35t17.5 -21.5t29 -14.5 t42.5 -3.5q27 0 61 3t39 3q21 0 32 -8.5t11 -19.5t-9.5 -19t-27.5 -8q-3 0 -82 8t-156 8q-79 0 -158.5 -8t-82.5 -8q-18 0 -28.5 8t-10.5 19z" />
<glyph unicode="g" horiz-adv-x="1142" d="M6 -68q0 185 227 267q-83 13 -125 54.5t-42 106.5q0 63 39 107t102 51q-35 71 -35 156q0 138 98.5 229.5t247.5 91.5q143 0 234 -65q-2 14 -2 39q0 79 46.5 125.5t123.5 46.5q76 0 124 -41.5t48 -104.5q0 -43 -25 -67.5t-70 -24.5q-63 0 -63 70q0 14 18 30.5t39 16.5 q5 0 14 -1t13 -1t4 6q0 32 -26.5 52t-69.5 20q-55 0 -90 -37.5t-35 -93.5q0 -29 21 -77.5t42 -111t21 -123.5q0 -127 -100 -215t-257 -88q-70 0 -126.5 18.5t-84.5 40t-56.5 40t-49.5 18.5q-38 0 -64 -28.5t-26 -73.5q0 -33 25 -65.5t65 -49.5q33 -13 84.5 -17t149.5 -5.5 t161 -4.5q424 -21 424 -282q0 -150 -134.5 -231t-387.5 -81q-241 0 -371.5 82t-130.5 221zM72 -72q0 -117 114.5 -187.5t319.5 -70.5q217 0 337 72.5t120 194.5q0 247 -490 247q-194 0 -297.5 -67.5t-103.5 -188.5zM240 668q0 -120 80.5 -197.5t209.5 -77.5t208 76t79 199 q0 129 -79 206.5t-208 77.5q-130 0 -210 -79.5t-80 -204.5z" />
<glyph unicode="h" horiz-adv-x="1351" d="M39 27q0 11 12 19.5t33 8.5q5 0 38 -3t60 -3q31 0 50.5 7.5t30.5 19t16.5 39.5t6.5 52.5t1 74.5v16v848v31q0 44 -1.5 68t-6.5 49t-16 36t-29.5 18t-47.5 7q-25 0 -56.5 -3t-37.5 -3q-21 0 -33 8.5t-12 19.5t10.5 20t28.5 9q10 0 39 -4t51 -4q26 0 63.5 5t49.5 5 q36 0 45.5 -16.5t9.5 -69.5v-485q63 105 154.5 154.5t222.5 49.5q210 0 315 -124q43 -51 54.5 -117t11.5 -185v-317v-29q0 -48 1 -71t6 -49t16 -36t30 -17t49 -7q27 0 60.5 3t38.5 3q21 0 33 -8.5t12 -19.5t-9.5 -19t-27.5 -8q-3 0 -83 8t-159 8q-77 0 -156 -8t-82 -8 q-18 0 -28 8t-10 19t12 19.5t33 8.5q5 0 38 -3t60 -3q26 0 43.5 4t29 16t18 23.5t9.5 38.5t3.5 48t0.5 63v16v414q0 136 -86 211t-243 75q-195 0 -279 -110.5t-84 -339.5v-250v-29q0 -40 0.5 -60.5t4 -45t9.5 -35t17.5 -21.5t29 -14.5t42.5 -3.5q27 0 61 3t39 3 q21 0 32 -8.5t11 -19.5t-9.5 -19t-27.5 -8q-3 0 -82 8t-156 8q-79 0 -158.5 -8t-82.5 -8q-18 0 -28.5 8t-10.5 19z" />
<glyph unicode="i" horiz-adv-x="616" d="M49 27q0 11 12 19.5t33 8.5q5 0 38.5 -3t60.5 -3q69 0 85.5 35.5t16.5 142.5v31v461v31q0 106 -16.5 142t-83.5 36q-23 0 -54.5 -3t-38.5 -3q-21 0 -33 8.5t-12 19.5t10.5 19t28.5 8q10 0 38.5 -3t47.5 -3q25 0 64.5 4t54.5 4q38 0 47.5 -17.5t9.5 -66.5v-637v-29 q0 -40 0.5 -60.5t4 -45t9.5 -35t17.5 -21.5t29 -14.5t42.5 -3.5q27 0 60 3t38 3q21 0 33 -8.5t12 -19.5t-10.5 -19t-28.5 -8q-3 0 -81.5 8t-155.5 8q-79 0 -158 -8t-82 -8q-18 0 -28.5 8t-10.5 19zM207 1165q0 31 22.5 53.5t53.5 22.5t51 -22t20 -54q0 -31 -20 -51t-51 -20 t-53.5 21t-22.5 50z" />
<glyph unicode="j" horiz-adv-x="589" d="M-242 -209q0 43 25.5 70.5t69.5 27.5q29 0 50 -18.5t21 -46.5q0 -34 -21 -48t-42 -16.5t-21 -9.5q0 -37 48 -64.5t126 -27.5q144 0 208.5 71t64.5 220v770v31q0 44 -1.5 68t-6.5 49t-16 36t-29.5 18t-47.5 7q-23 0 -55 -3t-39 -3q-21 0 -33 8.5t-12 19.5t10.5 19t28.5 8 q10 0 38 -3t48 -3q24 0 63.5 4t55.5 4q38 0 47.5 -16t9.5 -68v-915q0 -187 -73 -275t-252 -88q-123 0 -194 48t-71 126zM197 1165q0 31 22 53.5t53 22.5t51.5 -22t20.5 -54q0 -31 -20.5 -51t-51.5 -20t-53 21t-22 50z" />
<glyph unicode="k" horiz-adv-x="1320" d="M39 27q0 11 12 19.5t33 8.5q5 0 38 -3t60 -3q31 0 50.5 7.5t30.5 19t16.5 39.5t6.5 52.5t1 74.5v16v848v31q0 44 -1.5 68t-6.5 49t-16 36t-29.5 18t-47.5 7q-23 0 -55 -3t-39 -3q-21 0 -33 8.5t-12 19.5t10.5 20t28.5 9q10 0 38 -4t48 -4q24 0 63.5 5t55.5 5 q38 0 47.5 -16.5t9.5 -69.5v-842l453 400q53 47 53 59q0 29 -47 29q-22 0 -52 -3t-38 -3q-21 0 -33 8.5t-12 19.5t9.5 19t27.5 8q4 0 79 -8t148 -8q57 0 107 4t80 8t38 4q17 0 27 -8t10 -19t-11 -19.5t-32 -8.5q-1 0 -40 3t-75 3q-57 0 -114 -51l-295 -263l360 -481 q36 -49 65 -66.5t70 -17.5q23 0 52.5 3t35.5 3q21 0 33.5 -8.5t12.5 -19.5t-10 -19t-27 -8q-8 0 -38.5 4t-81.5 8t-108 4q-73 0 -147 -8t-78 -8q-18 0 -28.5 8t-10.5 19t12 19.5t33 8.5q8 0 35 -3t45 -3q38 0 59 10.5t21 28.5q0 26 -21 53l-327 437l-240 -207v-113v-29 q0 -40 0.5 -60.5t4 -45t9.5 -35t17.5 -21.5t29 -14.5t42.5 -3.5q27 0 61 3t39 3q21 0 32 -8.5t11 -19.5t-9.5 -19t-27.5 -8q-3 0 -82 8t-156 8q-79 0 -158.5 -8t-82.5 -8q-18 0 -28.5 8t-10.5 19z" />
<glyph unicode="l" horiz-adv-x="616" d="M49 27q0 11 12 19.5t33 8.5q5 0 38.5 -3t60.5 -3q69 0 85.5 35.5t16.5 142.5v31v854v31q0 106 -16.5 142t-83.5 36q-23 0 -54.5 -3t-38.5 -3q-21 0 -33 8.5t-12 19.5t10.5 19t28.5 8q10 0 38.5 -4t47.5 -4q25 0 64.5 5t54.5 5q38 0 47.5 -18.5t9.5 -67.5v-1028v-29 q0 -40 0.5 -60.5t4 -45t9.5 -35t17.5 -21.5t29 -14.5t42.5 -3.5q27 0 60 3t38 3q21 0 33 -8.5t12 -19.5t-10.5 -19t-28.5 -8q-3 0 -81.5 8t-155.5 8q-79 0 -158 -8t-82 -8q-18 0 -28.5 8t-10.5 19z" />
<glyph unicode="m" horiz-adv-x="1912" d="M39 27q0 11 12 19.5t33 8.5q5 0 38 -3t60 -3q31 0 50.5 7.5t30.5 19t16.5 39.5t6.5 52.5t1 74.5v16v461v31q0 44 -1.5 68t-6.5 49t-16 36t-29.5 18t-47.5 7q-23 0 -55 -3t-39 -3q-21 0 -33 8.5t-12 19.5t10.5 19t28.5 8q10 0 38.5 -3t47.5 -3q24 0 63 4t54 4 q36 0 46.5 -16t10.5 -68v-98q45 97 127 149.5t186 52.5q267 0 332 -206q47 101 131.5 153.5t198.5 52.5q85 0 146.5 -18.5t100.5 -51.5t62 -87t32 -117t9 -150v-317v-29q0 -107 17 -143.5t86 -36.5q21 0 49.5 3t36.5 3q20 0 31.5 -8.5t11.5 -19.5t-9.5 -19t-27.5 -8 q-4 0 -79.5 8t-148.5 8q-68 0 -138.5 -8t-76.5 -8q-18 0 -28.5 8t-10.5 19t12.5 19.5t33.5 8.5q10 0 35.5 -3t43.5 -3q67 0 84 37.5t17 140.5v31v414q0 138 -73.5 212t-205.5 74q-95 0 -158.5 -29t-98 -89.5t-48.5 -139t-14 -192.5v-250v-29q0 -47 1 -69.5t6 -48.5 t15.5 -36.5t29.5 -18t48 -7.5q22 0 51 3t37 3q21 0 33 -8.5t12 -19.5t-10.5 -19t-28.5 -8q-4 0 -78.5 8t-148.5 8q-68 0 -140.5 -8t-78.5 -8q-18 0 -27.5 8t-9.5 19t11.5 19.5t31.5 8.5q8 0 35.5 -3t46.5 -3q67 0 83.5 36.5t16.5 141.5v31v414q0 140 -73 213t-211 73 q-174 0 -245 -109.5t-71 -340.5v-250v-29q0 -33 0.5 -51t2.5 -40.5t6 -34t11 -24t18 -18t26.5 -9t36.5 -3.5t50.5 3t37.5 3q21 0 32 -8.5t11 -19.5t-9.5 -19t-27.5 -8q-6 0 -80 8t-144 8q-79 0 -158.5 -8t-82.5 -8q-18 0 -28.5 8t-10.5 19z" />
<glyph unicode="n" horiz-adv-x="1351" d="M39 27q0 11 12 19.5t33 8.5q5 0 38 -3t60 -3q31 0 50.5 7.5t30.5 19t16.5 39.5t6.5 52.5t1 74.5v16v461v31q0 44 -1.5 68t-6.5 49t-16 36t-29.5 18t-47.5 7q-23 0 -55 -3t-39 -3q-21 0 -33 8.5t-12 19.5t10.5 19t28.5 8q10 0 38.5 -3t47.5 -3q24 0 63 4t54 4q37 0 46 -16 t9 -68v-98q63 105 154.5 154.5t222.5 49.5q210 0 315 -124q43 -51 54.5 -117t11.5 -185v-317v-29q0 -48 1 -71t6 -49t16 -36t30 -17t49 -7q27 0 60.5 3t38.5 3q21 0 33 -8.5t12 -19.5t-9.5 -19t-27.5 -8q-3 0 -83 8t-159 8q-77 0 -156 -8t-82 -8q-18 0 -28 8t-10 19t12 19.5 t33 8.5q5 0 38 -3t60 -3q26 0 43.5 4t29 16t18 23.5t9.5 38.5t3.5 48t0.5 63v16v414q0 136 -86 211t-243 75q-195 0 -279 -110.5t-84 -339.5v-250v-29q0 -40 0.5 -60.5t4 -45t9.5 -35t17.5 -21.5t29 -14.5t42.5 -3.5q27 0 61 3t39 3q21 0 32 -8.5t11 -19.5t-9.5 -19 t-27.5 -8q-3 0 -82 8t-156 8q-79 0 -158.5 -8t-82.5 -8q-18 0 -28.5 8t-10.5 19z" />
<glyph unicode="o" horiz-adv-x="1103" d="M72 485q0 235 129 374.5t350 139.5q223 0 352 -138.5t129 -375.5q0 -238 -128.5 -376t-354.5 -138q-219 0 -348 139.5t-129 374.5zM139 485q0 -224 108 -345.5t306 -121.5q196 0 304 122.5t108 344.5q0 220 -109.5 343.5t-302.5 123.5q-196 0 -305 -123t-109 -344z" />
<glyph unicode="p" horiz-adv-x="1130" d="M-10 -352q0 11 12 19.5t33 8.5q5 0 38 -3t60 -3q69 0 86 36t17 142v31v840v31q0 44 -1.5 68t-6.5 49t-16 36t-29.5 18t-47.5 7q-23 0 -54 -3t-38 -3q-21 0 -33 8.5t-12 19.5t9.5 19t27.5 8q10 0 39.5 -3t48.5 -3q24 0 62 4t53 4q37 0 47 -16t10 -68v-113 q47 106 134.5 161.5t207.5 55.5q196 0 309 -135.5t113 -376.5q0 -243 -114.5 -379.5t-307.5 -136.5q-229 0 -340 195v-287v-29q0 -58 2 -85.5t12.5 -53t31.5 -33.5t58 -8q27 0 60.5 3t38.5 3q21 0 33 -8.5t12 -19.5t-10.5 -20t-28.5 -9q-3 0 -82 9.5t-156 9.5 q-79 0 -158.5 -9.5t-82.5 -9.5q-18 0 -27.5 8.5t-9.5 20.5zM297 395q0 -182 90 -281.5t240 -99.5q173 0 268.5 123.5t95.5 354.5q0 218 -97 340t-263 122q-156 0 -245 -98t-89 -285v-176z" />
<glyph unicode="q" horiz-adv-x="1138" d="M119 494q0 235 117 370t309 135q117 0 205.5 -56.5t132.5 -160.5v160q0 35 5.5 50.5t24.5 15.5q17 0 22 -13.5t5 -42.5v-16v-1063v-27q0 -48 1 -71t6 -49.5t16 -37t30 -17.5t49 -7q27 0 61.5 3t39.5 3q21 0 32 -8.5t11 -19.5t-9.5 -19t-27.5 -8q-3 0 -82 9t-156 9 q-79 0 -158.5 -9t-82.5 -9q-18 0 -27.5 8t-9.5 19t11.5 19.5t31.5 8.5q5 0 38 -3t60 -3q31 0 50.5 7.5t30.5 19t16.5 39.5t6.5 52.5t1 74.5v16v293q-50 -93 -137.5 -144t-200.5 -51q-193 0 -307.5 138.5t-114.5 384.5zM186 494q0 -231 96 -355.5t269 -124.5q150 0 239 99.5 t89 283.5v191q0 175 -90 270.5t-242 95.5q-166 0 -263.5 -121.5t-97.5 -338.5z" />
<glyph unicode="r" horiz-adv-x="972" d="M39 27q0 11 12 19.5t33 8.5q5 0 38 -3t60 -3q31 0 50.5 7.5t30.5 19t16.5 39.5t6.5 52.5t1 74.5v16v461v31q0 44 -1.5 68t-6.5 49t-16 36t-29.5 18t-47.5 7q-23 0 -55 -3t-39 -3q-21 0 -33 8.5t-12 19.5t10.5 19t28.5 8q10 0 38.5 -3t47.5 -3q24 0 63 4t54 4q37 0 46 -16 t9 -68v-53q105 159 279 159q117 0 186.5 -64.5t69.5 -174.5q0 -72 -33.5 -112t-93.5 -40q-30 0 -48 17t-18 47q0 29 16.5 46t45.5 17q14 0 30 -7t23 -7q22 0 22 53q0 79 -56.5 129.5t-156.5 50.5q-111 0 -186.5 -79t-75.5 -211v-408v-29q0 -40 0.5 -60.5t4 -45t9.5 -35 t17.5 -21.5t29 -14.5t42.5 -3.5q27 0 61 3t39 3q21 0 32 -8.5t11 -19.5t-9.5 -19t-27.5 -8q-3 0 -82 8t-156 8q-79 0 -158.5 -8t-82.5 -8q-18 0 -28.5 8t-10.5 19z" />
<glyph unicode="s" horiz-adv-x="915" d="M84 401q0 24 7.5 37t17.5 13q13 0 21.5 -12t8.5 -33q0 -69 2 -104.5t14.5 -80.5t37.5 -80q91 -127 284 -127q135 0 220 69t85 171q0 109 -77 156t-246 61q-182 16 -265 67.5t-83 174.5q0 122 94 205t250 83q96 0 164.5 -35.5t125.5 -113.5q-1 22 -2.5 43t-2.5 33t-1 16 q0 22 8 34.5t19 12.5q10 0 18.5 -14t8.5 -37q0 -14 -6.5 -62t-6.5 -83q0 -52 7.5 -108.5t7.5 -61.5q0 -13 -8 -23t-17 -10q-10 0 -19.5 10t-9.5 21q0 7 2 21t2 22q0 134 -84 216.5t-212 82.5q-121 0 -201 -71.5t-80 -172.5q0 -44 14 -76t36.5 -51.5t64.5 -33t85.5 -20 t112.5 -12.5q190 -18 276.5 -74t86.5 -184q0 -130 -104 -214.5t-281 -84.5q-203 0 -320 160q6 -67 6 -88q0 -28 -9.5 -44.5t-20.5 -16.5q-9 0 -18 12t-9 26q0 6 5 49t5 83q0 64 -7 147.5t-7 101.5z" />
<glyph unicode="t" horiz-adv-x="823" d="M41 940q0 14 14 18.5t49 4.5h25h49q48 0 57 25t9 161q0 55 28 55q25 0 25 -55v-33v-92v-6q0 -39 7.5 -47t39.5 -8h10h133q27 0 39 -0.5t25.5 -2.5t18.5 -7t5 -13q0 -14 -13.5 -18t-49.5 -4h-25h-133q-39 0 -48 -11t-9 -53v-586q0 -133 38.5 -194.5t129.5 -61.5 q109 0 145.5 68t36.5 229q0 12 -1 34t-1 30q0 26 8.5 41.5t18.5 15.5q28 0 28 -51q0 -20 1 -46t1 -30v-74q0 -128 -60 -194t-175 -66q-126 0 -178.5 72t-52.5 227v586q0 42 -9.5 53t-48.5 11h-49h-7q-46 0 -63.5 3.5t-17.5 18.5z" />
<glyph unicode="u" horiz-adv-x="1312" d="M27 948q0 12 9.5 20.5t26.5 8.5q10 0 39.5 -4t49.5 -4q24 0 63.5 5t56.5 5q37 0 45.5 -18t8.5 -68v-592q0 -134 82 -211.5t227 -77.5q183 0 259.5 111t76.5 342v252v31q0 44 -1.5 68t-6.5 49t-16 36t-29.5 18t-47.5 7q-23 0 -54 -2t-38 -2q-21 0 -33 7.5t-12 18.5 q0 12 9.5 20.5t27.5 8.5q10 0 39 -4t49 -4q24 0 62.5 5t54.5 5q36 0 46.5 -17t10.5 -69v-635q0 -126 18 -167.5t87 -41.5q25 0 56.5 3t37.5 3q21 0 33 -8.5t12 -19.5t-10.5 -19t-28.5 -8q-10 0 -38.5 4t-47.5 4q-24 0 -63 -5t-54 -5q-36 0 -45.5 16.5t-9.5 69.5v90 q-57 -104 -142.5 -153.5t-207.5 -49.5q-99 0 -175.5 30.5t-121.5 86.5q-45 54 -56.5 120.5t-11.5 186.5v322v31q0 106 -16.5 142t-83.5 36q-23 0 -55 -2t-39 -2q-43 0 -43 26z" />
<glyph unicode="v" horiz-adv-x="1036" d="M-45 950q0 11 10.5 19t28.5 8q8 0 67 -8t111 -8q44 0 111.5 9t89.5 9q14 0 27.5 -9.5t13.5 -17.5q0 -9 -13 -17.5t-28 -8.5q-2 0 -17.5 1t-42 2t-57.5 1q-33 0 -48 -9t-15 -30q0 -13 4 -21l321 -827l322 827q4 8 4 21q0 39 -64 39q-33 0 -71 -2t-43 -2q-39 0 -39 26 q0 10 13 17.5t32 7.5q26 0 91.5 -8t102.5 -8q44 0 100 7t68 7q22 0 34.5 -7.5t12.5 -17.5q0 -11 -12.5 -18.5t-32.5 -7.5q-11 0 -21 0.5t-15.5 1t-6.5 0.5q-45 0 -64 -13t-34 -53l-330 -852q-14 -39 -47 -39q-35 0 -47 39l-330 852q-13 35 -26.5 48t-48.5 16q-14 1 -33 1.5 t-31 1t-24 2.5t-17.5 7t-5.5 14z" />
<glyph unicode="w" horiz-adv-x="1488" d="M-27 948q0 10 11 17.5t30 7.5q8 0 69 -6t112 -6q66 0 141 7t84 7q13 0 25 -8.5t12 -16.5q0 -28 -41 -28q-2 0 -29.5 2t-54.5 2q-69 0 -91 -8.5t-22 -45.5q0 -9 10 -59l199 -764l268 873q8 24 18 34.5t27 10.5q18 0 28.5 -10.5t18.5 -34.5l269 -873l200 764q9 45 9 59 q0 37 -22 45.5t-91 8.5q-27 0 -54.5 -2t-29.5 -2q-39 0 -39 28q0 8 11 16.5t24 8.5q9 0 84 -7t141 -7q51 0 113 6t70 6q19 0 28.5 -7.5t9.5 -17.5q0 -24 -38 -24q-6 0 -17 1t-16 1q-54 0 -79 -13t-32 -45l-221 -845q-8 -27 -20 -39.5t-33 -12.5q-34 0 -49 52l-263 860 l-262 -860q-15 -52 -51 -52q-21 0 -33 12.5t-20 39.5l-221 845q-7 32 -32 45t-79 13q-5 0 -16 -1t-17 -1q-39 0 -39 24z" />
<glyph unicode="x" horiz-adv-x="1107" d="M-25 31q0 10 12.5 20t26.5 10q13 0 36 -3t32 -3q61 0 111 62l331 405l-295 359q-22 26 -42.5 36.5t-51.5 10.5q-10 0 -25.5 -1t-19.5 -1q-23 0 -36 8t-13 18q0 9 12.5 19t26.5 10q3 0 28.5 -4t72 -8t98.5 -4q44 0 111.5 8t86.5 8q13 0 24 -7.5t11 -15.5q0 -30 -49 -30 q-1 0 -13 0.5t-34 1t-47 0.5q-62 0 -62 -31q0 -17 17 -41l235 -291l238 287q16 19 16 39q0 35 -59 35q-23 0 -45 -0.5t-35 -1t-15 -0.5q-49 0 -49 28q0 9 13 17t28 8q16 0 87 -8t124 -8q58 0 120 8t65 8q13 0 23.5 -8t10.5 -19q0 -10 -13 -18t-36 -8q-3 0 -20 1t-33 1 q-22 0 -48.5 -14t-41.5 -33l-291 -361l336 -403q30 -35 51.5 -49.5t54.5 -14.5q8 0 30.5 3t37.5 3q14 0 26.5 -10t12.5 -20q0 -11 -12 -21t-25 -10q-4 0 -68.5 6t-123.5 6q-61 0 -114 -3.5t-81 -7t-29 -3.5q-15 0 -27 9t-12 20q0 12 15 21t41 9q13 0 55.5 -2t71.5 -2 q45 0 45 27q0 9 -13 22l-309 375l-309 -371q-12 -12 -12 -24q0 -17 11.5 -23t37.5 -6q31 0 72 3t51 3q25 0 40 -9.5t15 -20.5t-12 -20t-27 -9q-1 0 -29 3.5t-81 7t-115 3.5q-57 0 -120.5 -6t-68.5 -6q-13 0 -26 10t-13 21z" />
<glyph unicode="y" horiz-adv-x="1069" d="M-55 -180q0 54 25.5 85.5t68.5 31.5q34 0 53 -17.5t19 -48.5q0 -28 -19 -47t-47 -19q-4 0 -13.5 2.5t-13.5 2.5q-6 0 -6 -15q0 -51 53 -94t132 -43q134 0 225 119q42 56 66 111t24 85q0 14 -6 29l-340 858q-16 38 -34.5 52t-61.5 14q-1 0 -7 -0.5t-16.5 -1t-23.5 -0.5 q-22 0 -35 8t-13 18q0 11 10 19t25 8q1 0 25 -3.5t68.5 -7t97.5 -3.5q60 0 133 8t86 8q14 0 28.5 -9.5t14.5 -17.5q0 -9 -13 -17.5t-30 -8.5q-14 0 -26 0.5t-19 1t-8 0.5q-11 0 -34 1t-34 1q-66 0 -66 -39q0 -11 5 -21l313 -817l311 817q6 12 6 21q0 39 -67 39 q-33 0 -60.5 -1.5t-43 -3t-17.5 -1.5q-13 0 -25 9.5t-12 18.5t11.5 18t23.5 9q5 0 85 -8t155 -8q43 0 81.5 3.5t59.5 7t24 3.5q17 0 30 -9t13 -18q0 -10 -17 -18t-46 -8q-12 0 -25 1t-14 1q-39 0 -57 -15t-33 -51l-352 -895q-71 -179 -164 -264.5t-221 -85.5 q-111 0 -181.5 60.5t-70.5 144.5z" />
<glyph unicode="z" horiz-adv-x="1017" d="M53 45q0 27 58 87q2 3 4 5l4 4l725 783h-588q-59 0 -85 -14.5t-26 -63.5q0 -52 2.5 -98.5t4.5 -72t2 -28.5q0 -11 -9.5 -22t-17.5 -11q-27 0 -27 39q0 4 2 28t2 44q0 36 -4 98t-4 88q0 43 19.5 54.5t74.5 11.5h39h572q62 0 87 -8t25 -33q0 -19 -13.5 -39t-47.5 -57 l-727 -783h625q40 0 58.5 2.5t35 15t21.5 36.5t5 67q0 56 -5 122t-5 75q0 12 9.5 23.5t17.5 11.5q12 0 20 -11.5t8 -31.5q0 -3 -1.5 -20.5t-3 -46t-1.5 -60.5q0 -31 4.5 -83t4.5 -73q0 -56 -27 -70t-115 -14h-610q-33 0 -48 1t-33.5 5t-25 13.5t-6.5 25.5z" />
<glyph unicode="{" d="M180 494v73q18 -2 51 -2q141 0 198.5 66.5t57.5 224.5v238q0 112 12.5 180t48.5 116.5t98.5 67.5t164.5 19h33v-70h-37q-76 0 -122 -13t-72 -47.5t-35 -83t-9 -130.5v-242q0 -165 -37.5 -245t-154.5 -116q117 -36 154.5 -115.5t37.5 -244.5v-242q0 -82 9 -130.5t35 -83 t72 -47.5t122 -13h37v-68h-33q-102 0 -164.5 19t-98.5 67t-48.5 116t-12.5 179v238q0 160 -58 225.5t-204 65.5q-7 0 -22 -1t-23 -1z" />
<glyph unicode="|" d="M475 -483v2048h74v-2048h-74z" />
<glyph unicode="}" d="M182 -344h39q76 0 121 12.5t70.5 46.5t34 82t8.5 131v242q0 164 38.5 244t155.5 116q-117 36 -155.5 116.5t-38.5 244.5v242q0 55 -3.5 92.5t-13 70t-26 52.5t-43 34t-63 19.5t-87.5 5.5h-37v70h33q101 0 163.5 -19t98 -67.5t48 -116.5t12.5 -180v-238 q0 -158 57.5 -224.5t200.5 -66.5q33 0 51 2v-73q-8 0 -23 1t-22 1q-147 0 -205.5 -66t-58.5 -225v-238q0 -111 -12.5 -179t-48 -116t-98 -67t-163.5 -19h-33v70z" />
<glyph unicode="~" horiz-adv-x="1705" d="M178 489v74q207 150 387 150q84 0 193 -39q29 -10 96.5 -35t102 -36.5t88 -22.5t98.5 -11q86 0 178.5 40t208.5 120v-72q-211 -149 -387 -149q-52 0 -108 11.5t-89 22.5t-92 33q-10 4 -41.5 15.5t-43.5 16t-39 13.5t-42.5 13t-38.5 9t-43.5 7t-40.5 2q-86 0 -177.5 -40 t-209.5 -122z" />
<glyph unicode="&#xa1;" horiz-adv-x="638" d="M223 1274q0 38 28 66t68 28t68.5 -28t28.5 -66q0 -41 -28 -68.5t-69 -27.5q-40 0 -68 27.5t-28 68.5zM287 18l4 998v10q0 51 26 51q31 0 31 -35v-26l4 -998q0 -27 -7 -37t-26 -10q-20 0 -26 8.5t-6 38.5z" />
<glyph unicode="&#xa2;" horiz-adv-x="1280" d="M266 674q0 200 108 328t288 141v172q0 19 0.5 25.5t6 13t17.5 6.5q17 0 22 -6.5t5 -22.5v-16v-170q147 -6 236 -80t89 -178q0 -59 -31 -96t-83 -37q-80 0 -80 61q0 24 15.5 38.5t41.5 14.5q23 0 43 -12l21 -12q7 0 13.5 14.5t6.5 36.5q0 81 -74.5 142t-197.5 67v-842 q150 6 229 103q29 34 40.5 82t17 76t22.5 28q27 0 27 -33q0 -47 -25.5 -104t-67.5 -97q-88 -85 -243 -94v-172q0 -45 -29 -45q-16 0 -19 10t-3 35v172q-189 12 -292.5 130t-103.5 321zM330 672q0 -192 84 -296t248 -114v842q-153 -11 -242.5 -126.5t-89.5 -305.5z" />
<glyph unicode="&#xa3;" horiz-adv-x="1280" d="M-41 186q0 86 62 141.5t165 55.5q91 0 180.5 -33.5t198.5 -101.5q21 64 21 135q0 153 -109 330h-289q-31 0 -43 4.5t-12 23.5q0 27 55 27h256q-67 143 -67 256q0 165 107 266t288 101q150 0 250 -81.5t100 -197.5q0 -57 -26 -90t-64 -33q-71 0 -71 60q0 25 13 37.5 t28.5 15.5t28.5 15.5t13 37.5q0 71 -81 133t-199 62q-140 0 -231 -90t-91 -236q0 -100 78 -256h453h12q24 0 34.5 -5t10.5 -22q0 -28 -57 -28h-416q98 -171 98 -314q0 -108 -34 -182q146 -95 237.5 -138.5t167.5 -43.5q98 0 158.5 74t60.5 190q0 106 -52 168.5t-130 62.5 q-19 0 -32 -4t-19 -7.5t-9.5 -15.5t-4 -16t-1.5 -20q-3 -34 -15.5 -50t-41.5 -16q-27 0 -43 19.5t-16 46.5q0 51 39 78.5t112 27.5q121 0 201 -77.5t80 -208.5q0 -129 -80.5 -218t-206.5 -89q-81 0 -175.5 41.5t-258.5 136.5q-143 -181 -356 -181q-125 0 -201 58t-76 151z M23 180q0 -72 56.5 -117t147.5 -45q188 0 314 172q-104 76 -185 113t-157 37q-84 0 -130 -42t-46 -118z" />
<glyph unicode="&#xa4;" horiz-adv-x="1241" d="M94 418l207 205q-92 118 -92 262t92 262l-207 205l58 59l206 -207q119 94 263 94q145 0 264 -94l205 207l59 -59l-207 -205q92 -118 92 -262t-92 -262l207 -205l-59 -60l-205 207q-118 -92 -264 -92q-145 0 -263 92l-206 -207zM291 887q0 -137 97 -234.5t235 -97.5 t234.5 97.5t96.5 234.5t-96.5 233.5t-234.5 96.5q-137 0 -234.5 -97.5t-97.5 -232.5z" />
<glyph unicode="&#xa5;" horiz-adv-x="1280" d="M-37 1337q0 12 10.5 20.5t28.5 8.5q7 0 37 -4t80 -8t104 -4q53 0 127.5 8t93.5 8t30 -8t11 -21q0 -26 -65 -26q-15 0 -59.5 4t-73.5 4q-23 0 -36 -9.5t-13 -23.5q0 -16 28 -63l373 -598l369 596q24 39 24 63q0 20 -13.5 27.5t-43.5 7.5q-27 0 -72.5 -4t-62.5 -4 q-23 0 -38.5 8t-15.5 18q0 13 11 21t30 8q6 0 75.5 -7t133.5 -7q68 0 124 3.5t85 7t31 3.5q18 0 29.5 -8.5t11.5 -20.5q0 -10 -13.5 -18t-35.5 -8q-8 0 -30.5 2t-37.5 2q-42 0 -68.5 -24.5t-66.5 -90.5l-199 -323h289q40 0 56 -4t16 -17q0 -22 -74 -22h-315l-140 -226h457 q39 0 55.5 -4.5t16.5 -17.5q0 -21 -74 -21h-481v-307v-35q0 -110 19.5 -141t94.5 -31q20 0 53 2t46 2q19 0 32 -8t13 -18q0 -29 -39 -29q-11 0 -96 9t-158 9t-157 -9t-95 -9q-19 0 -30 8t-11 21q0 26 57 26q5 0 34 -2t54 -2t42 3t30 7.5t20.5 18t12.5 25t7 39t2.5 49 t0.5 65.5v307h-479h-8q-66 0 -66 23q0 20 74 20h453l-142 226h-311h-8q-66 0 -66 22q0 21 74 21h285l-207 327q-4 6 -13 20t-12.5 19.5t-11.5 16.5t-12 15.5t-12 12.5t-14 11l-14 7t-17 5.5t-19 1.5q-11 0 -34 -1t-36 -1q-19 0 -32 8t-13 18z" />
<glyph unicode="&#xa6;" d="M475 -350v758h74v-758h-74zM475 674v758h74v-758h-74z" />
<glyph unicode="&#xa7;" d="M80 641q0 88 56 152.5t175 119.5q-112 100 -112 215q0 114 84 190.5t225 76.5q113 0 183 -41t110 -131q-1 28 -4.5 62.5t-3.5 43.5q0 12 9 22.5t19 10.5q11 0 20 -11t9 -24q0 -2 -2 -20.5t-4 -53t-2 -75.5q0 -52 2.5 -93.5t5.5 -62.5l2 -21q0 -16 -8.5 -27t-16.5 -11 q-28 0 -28 49q0 10 1 23.5t1 17.5q0 77 -33.5 144.5t-100.5 112t-153 44.5q-120 0 -186 -60.5t-66 -163.5q0 -80 52 -136.5t175 -129.5q40 -24 98 -57.5t90.5 -53t76.5 -47t68 -46.5t51.5 -45t41 -49t22.5 -52t9 -61q0 -175 -241 -306q126 -105 126 -243q0 -112 -88 -184 t-239 -72q-99 0 -166 40.5t-121 133.5q1 -29 3.5 -66.5t2.5 -46.5q0 -12 -9 -23.5t-21 -11.5q-11 0 -22 12t-11 25q0 3 3 23.5t6 57.5t3 79q0 58 -3 107.5t-6 75.5t-3 28q0 26 8.5 43.5t17.5 17.5q13 0 24 -17t11 -46q0 -16 -2 -39t-2 -31q0 -142 76 -231.5t203 -89.5 q123 0 194.5 59t71.5 160q0 52 -17.5 94t-67 86.5t-88 71.5t-130.5 85q-26 16 -39 25q-169 110 -217 149q-102 85 -119 176q-4 22 -4 46zM152 647q0 -67 37.5 -120t117.5 -107l369 -246q198 113 198 254q0 70 -46.5 125.5t-149.5 122.5l-326 213q-200 -83 -200 -242z" />
<glyph unicode="&#xa8;" d="M256 1255q0 28 19 46t47 18t45.5 -18t17.5 -46q0 -27 -18 -45t-45 -18t-46.5 19t-19.5 44zM639 1255q0 28 17.5 46t45.5 18t46 -18t18 -46q0 -27 -18 -45t-46 -18q-27 0 -45 19t-18 44z" />
<glyph unicode="&#xa9;" horiz-adv-x="1705" d="M125 719q0 145 55.5 277.5t159.5 238.5q208 211 512 211q305 0 518 -213q103 -103 157 -234.5t54 -279.5q0 -306 -209 -512q-106 -104 -240.5 -160.5t-279.5 -56.5t-276.5 55.5t-235.5 159.5t-159.5 236.5t-55.5 277.5zM188 719q0 -131 51 -251.5t146 -215.5 q96 -96 216.5 -147.5t250.5 -51.5t252.5 52t220.5 149q193 187 193 465q0 276 -193 469q-194 194 -473 194q-276 0 -465 -192q-96 -97 -147.5 -219t-51.5 -252zM475 717q0 213 105.5 335t279.5 122q128 0 218.5 -70t103.5 -182h-80q-22 88 -87.5 137t-160.5 49 q-135 0 -213 -102.5t-78 -288.5q0 -178 80 -281.5t211 -103.5q101 0 173 57.5t89 151.5h74q-11 -120 -108 -198.5t-236 -78.5q-167 0 -269 122t-102 331z" />
<glyph unicode="&#xaa;" horiz-adv-x="823" d="M35 850q0 91 62.5 145t178.5 60q24 1 60.5 2.5t56 2.5t43.5 3.5t40.5 6t29.5 9.5q69 31 69 115q0 156 -223 156q-96 0 -160.5 -37.5t-64.5 -93.5q0 -11 5.5 -18t12.5 -7q2 0 7 8t16 16.5t27 8.5q53 0 53 -47q0 -26 -21 -41t-59 -15q-37 0 -59.5 24t-22.5 62 q0 69 75.5 118.5t192.5 49.5q143 0 206 -52t63 -163v-350v-41q0 -38 18.5 -59t50.5 -21q53 0 69.5 36.5t16.5 117.5q0 3 -1 9t-1 9q0 29 17 29q20 0 20 -29q0 -108 -23.5 -156.5t-97.5 -48.5q-117 0 -117 140v16q-41 -74 -118.5 -115t-175.5 -41q-109 0 -177.5 54t-68.5 137 zM84 852q0 -71 57 -115.5t152 -44.5q127 0 204.5 73.5t77.5 209.5v123q-26 -29 -62 -44.5t-65.5 -19.5t-89.5 -8q-143 -8 -208.5 -45t-65.5 -129z" />
<glyph unicode="&#xab;" horiz-adv-x="788" d="M113 487q0 13 14 33l199 256q14 17 25 24t34 7h6q21 0 21 -16q0 -4 -11 -19l-190 -252q-18 -24 -18 -33q0 -8 18 -32l190 -252q11 -15 11 -19q0 -16 -21 -16h-6q-26 1 -36.5 7.5t-22.5 23.5l-199 256q-14 20 -14 32zM369 487q0 11 16 33l199 256q14 17 25 24t34 7h6 q21 0 21 -16q0 -2 -13 -19l-190 -252q-16 -21 -16 -33q0 -11 16 -32l190 -252q13 -17 13 -19q0 -16 -21 -16h-6q-26 1 -36.5 7.5t-22.5 23.5l-199 256q-16 22 -16 32z" />
<glyph unicode="&#xac;" horiz-adv-x="1705" d="M254 793v61h1198v-502h-61v441h-1137z" />
<glyph unicode="&#xad;" horiz-adv-x="671" d="M94 487q0 35 60 35h366q60 0 60 -30q0 -35 -60 -35h-366q-60 0 -60 30z" />
<glyph unicode="&#xae;" horiz-adv-x="1705" d="M125 719q0 145 55.5 277.5t159.5 238.5q208 211 512 211t518 -211q103 -103 157 -235.5t54 -280.5q0 -304 -209 -510q-107 -106 -241 -162.5t-279 -56.5t-276.5 55.5t-235.5 159.5t-159.5 236.5t-55.5 277.5zM188 719q0 -130 51.5 -250.5t147.5 -216.5t215.5 -147.5 t249.5 -51.5t253.5 52t221.5 149q191 188 191 465q0 134 -50.5 254.5t-144.5 214.5q-197 194 -471 194q-278 0 -467 -192q-95 -97 -146 -218.5t-51 -252.5zM573 305v850h304q178 0 262 -55.5t84 -179.5q0 -87 -56.5 -147.5t-150.5 -70.5l192 -397h-104l-182 383h-260v-383 h-89zM662 760h190q146 0 207 34.5t61 131.5q0 83 -65 120t-201 37h-192v-323z" />
<glyph unicode="&#xaf;" d="M227 1260q0 24 60 24h450q60 0 60 -24q0 -16 -13.5 -21.5t-46.5 -5.5h-450h-2q-32 0 -45 5.5t-13 21.5z" />
<glyph unicode="&#xb0;" horiz-adv-x="673" d="M68 1178q0 113 79.5 191.5t190.5 78.5q109 0 188.5 -79t79.5 -191q0 -110 -78.5 -189.5t-191.5 -79.5q-114 0 -191 78t-77 191zM119 1178q0 -92 64 -156t155 -64q92 0 154.5 64.5t62.5 155.5t-63 155t-154 64t-155 -63.5t-64 -155.5z" />
<glyph unicode="&#xb1;" horiz-adv-x="1705" d="M254 72v61h1198v-61h-1198zM254 733v62h569v356h62v-356h567v-62h-567v-358h-62v358h-569z" />
<glyph unicode="&#xb2;" horiz-adv-x="845" d="M111 645q0 191 231 268q45 15 111.5 32.5t106 31t63.5 29.5q67 47 67 147q0 92 -67 147.5t-187 55.5q-122 0 -194 -56t-72 -129q0 -18 6 -18q3 0 13 2t18 2q19 0 30 -10t11 -27q0 -20 -14.5 -32.5t-36.5 -12.5q-72 0 -72 84q0 93 84.5 157t226.5 64q135 0 217 -62.5 t82 -164.5q0 -99 -78 -164q-28 -22 -67.5 -36.5t-109.5 -32t-103 -27.5q-113 -36 -169.5 -97t-60.5 -157q60 86 154 86q81 0 158 -68q4 -3 16.5 -14.5t16.5 -15t15.5 -13t17.5 -13t17 -10.5t19 -9.5t19 -6t22 -5t23 -1.5q46 0 79 36t33 87q0 30 -7 48t-15 18q-1 0 -5 -5 t-12 -10.5t-18 -5.5q-14 0 -22.5 8.5t-8.5 22.5q0 37 49 37q33 0 53.5 -28.5t20.5 -80.5q0 -74 -42 -121t-107 -47q-35 0 -69.5 15.5t-53 30.5t-60.5 51q-76 63 -147 63q-47 0 -85 -24.5t-46 -57.5h2q2 0 6 1t6 1q12 0 22.5 -9t10.5 -21q0 -15 -11.5 -25t-31.5 -10 q-25 0 -40 26t-15 76z" />
<glyph unicode="&#xb3;" horiz-adv-x="845" d="M98 754q0 43 26 71.5t62 28.5q52 0 52 -43q0 -15 -11 -24t-28 -9q-8 0 -19 4t-14 4q-12 0 -21.5 -13.5t-9.5 -35.5q0 -72 76.5 -124t200.5 -52q136 0 217.5 73t81.5 193q0 96 -61 152.5t-161 56.5q-49 0 -93.5 -14t-45.5 -14q-14 0 -14 10q0 8 18 22l332 297h-448 q-43 0 -54.5 -8.5t-11.5 -42.5q0 -46 4 -95t4 -50q0 -23 -16 -23q-19 0 -19 23q0 5 3.5 26.5t3.5 36.5q0 40 -2.5 84.5t-2.5 48.5q0 23 12.5 28t69.5 5h33h395q64 0 64 -27q0 -19 -19 -38l-276 -248q43 6 74 6q112 0 183 -63.5t71 -170.5q0 -134 -94 -214t-252 -80 q-140 0 -225 62.5t-85 156.5z" />
<glyph unicode="&#xb4;" d="M274 1116q0 13 21 25l403 256q11 8 23 8q11 0 19 -7.5t8 -19.5q0 -25 -29 -41l-400 -225q-13 -8 -26 -8q-19 0 -19 12z" />
<glyph unicode="&#xb5;" horiz-adv-x="1040" d="M-115 -426l316 1483h67l-123 -584q-22 -107 -22 -166q0 -132 67 -203t189 -71q131 0 238 122.5t153 340.5l119 561h69l-192 -887q-6 -30 -6 -59q0 -72 80 -72q23 0 37 2l-13 -61q-22 -5 -51 -5q-121 0 -121 113q0 23 10 78q-126 -203 -346 -203q-107 0 -180 54t-96 151 l-125 -594h-70z" />
<glyph unicode="&#xb6;" d="M98 1130q0 156 107.5 252.5t288.5 96.5h432v-58h-133v-1421h-58v1421h-198v-1421h-58v782q-178 7 -279.5 102t-101.5 246z" />
<glyph unicode="&#xb7;" horiz-adv-x="638" d="M227 676q0 40 27.5 67t67.5 27q39 0 64.5 -26.5t25.5 -67.5q0 -38 -26 -64t-64 -26q-39 0 -67 27t-28 63z" />
<glyph unicode="&#xb8;" d="M322 -354q0 6 5.5 11t12.5 5t34.5 -13t71.5 -25.5t93 -12.5q64 0 102.5 32.5t38.5 86.5q0 47 -32.5 76.5t-86.5 29.5q-12 0 -31 -2t-26 -2q-5 0 -10 4.5t-5 11.5q0 2 2.5 22t2.5 38v92h38v-131q25 2 54 2q71 0 114 -37t43 -100q0 -69 -53.5 -112.5t-142.5 -43.5 q-77 0 -151 24.5t-74 43.5z" />
<glyph unicode="&#xb9;" horiz-adv-x="845" d="M221 565q0 6 8 11.5t21 5.5q2 0 30.5 -2t53.5 -2q48 0 58.5 22.5t10.5 93.5v11v509v9q0 74 -11 95t-62 21q-18 0 -35 -0.5t-28 -1t-13 -0.5q-29 0 -29 15q0 8 7.5 13t17.5 5q6 0 27.5 -3t37.5 -3q24 0 56 3t39 3q25 0 30.5 -9t5.5 -42v-614v-19q0 -66 11 -87t59 -21 q29 0 58 2l28 2q13 0 22 -5.5t9 -11.5t-7.5 -11t-19.5 -5q-14 0 -73.5 5t-104.5 5q-49 0 -109.5 -5t-72.5 -5q-10 0 -17.5 5t-7.5 11z" />
<glyph unicode="&#xba;" horiz-adv-x="827" d="M53 1020q0 164 97.5 262t263.5 98q167 0 263.5 -97t96.5 -263q0 -167 -96.5 -264t-265.5 -97q-164 0 -261.5 98.5t-97.5 262.5zM104 1020q0 -157 81.5 -242.5t230.5 -85.5q147 0 227 86t80 242q0 154 -82 240t-225 86q-148 0 -230 -85.5t-82 -240.5z" />
<glyph unicode="&#xbb;" horiz-adv-x="788" d="M121 184q0 6 10 19l191 252q16 21 16 32q0 12 -16 33l-191 252q-10 13 -10 19q0 16 20 16h6q26 -1 36 -7.5t22 -23.5l198 -256q17 -24 17 -33q0 -8 -17 -32l-198 -256q-14 -18 -24.5 -24.5t-33.5 -6.5h-6q-20 0 -20 16zM379 184q0 3 12 19l191 252q16 21 16 32 q0 12 -16 33l-191 252q-12 16 -12 19q0 16 20 16h7q26 -1 36.5 -7.5t22.5 -23.5l199 -256q16 -22 16 -33q0 -10 -16 -32l-199 -256q-14 -17 -25 -24t-34 -7h-7q-20 0 -20 16z" />
<glyph unicode="&#xbc;" horiz-adv-x="1955" d="M211 616q0 6 8 11.5t21 5.5q2 0 27.5 -2t49.5 -2q46 0 57 21t11 87v11v475v8q0 68 -11 88t-59 20q-23 0 -47 -1l-24 -1q-29 0 -29 15q0 16 25 16q5 0 25 -2t36 -2q23 0 53.5 3t36.5 3q24 0 29.5 -9t5.5 -40v-573v-17q0 -61 11.5 -81.5t56.5 -20.5q27 0 53.5 2t27.5 2 q13 0 21 -5.5t8 -11.5q0 -14 -24 -14q-15 0 -71.5 4t-100.5 4q-46 0 -103.5 -4t-68.5 -4q-25 0 -25 14zM479 -6q0 8 15 31l884 1318q16 24 29 32.5t39 8.5q29 0 29 -14q0 -6 -17 -31l-885 -1316q-17 -25 -28 -33t-37 -8q-29 0 -29 12zM1225 260q0 19 20 39l395 442 q32 35 43 35q29 0 29 -26v-27v-453h35q29 0 54 0.5t38.5 1t15.5 0.5q39 0 39 -18t-28 -18q-1 0 -12.5 0.5t-32.5 1t-45 0.5h-64v-93v-16q0 -63 10 -82.5t54 -19.5q18 0 38.5 2t22.5 2q13 0 21 -5.5t8 -11.5q0 -14 -23 -14l-51 4q-50 4 -102 4q-49 0 -99.5 -4t-52.5 -4 q-25 0 -25 14q0 6 8 11.5t21 5.5q4 0 24.5 -2t37.5 -2q44 0 54.5 20t10.5 80v18v93h-375q-69 0 -69 22zM1266 270h403l4 459z" />
<glyph unicode="&#xbd;" horiz-adv-x="1955" d="M211 616q0 6 8 11.5t21 5.5q2 0 27.5 -2t49.5 -2q46 0 57 21t11 87v11v475v8q0 68 -11 88t-59 20q-23 0 -47 -1l-24 -1q-29 0 -29 15q0 16 25 16q5 0 25 -2t36 -2q23 0 53.5 3t36.5 3q24 0 29.5 -9t5.5 -40v-573v-17q0 -61 11.5 -81.5t56.5 -20.5q27 0 53.5 2t27.5 2 q13 0 21 -5.5t8 -11.5q0 -14 -24 -14q-15 0 -71.5 4t-100.5 4q-46 0 -103.5 -4t-68.5 -4q-25 0 -25 14zM479 -6q0 8 15 31l884 1318q16 24 29 32.5t39 8.5q29 0 29 -14q0 -6 -17 -31l-885 -1316q-17 -25 -28 -33t-37 -8q-29 0 -29 12zM1255 90q0 179 220 250q44 14 107 30 t100.5 28t60.5 28q63 43 63 137q0 86 -63.5 137.5t-177.5 51.5q-117 0 -185.5 -51.5t-68.5 -120.5q0 -17 8 -17q2 0 11 2t16 2q38 0 38 -35q0 -19 -13.5 -29.5t-35.5 -10.5q-67 0 -67 77q0 88 81.5 147.5t215.5 59.5q129 0 207.5 -58.5t78.5 -152.5t-75 -153 q-27 -20 -65 -34t-104 -30t-98 -26q-108 -33 -162 -90.5t-57 -147.5q57 80 146 80q77 0 151 -62q4 -3 20 -17.5t21 -18.5t18.5 -14.5t22 -14.5t22 -9.5t26.5 -7.5t28 -2q43 0 75.5 34t32.5 81q0 29 -7 45.5t-15 16.5l-11 -9q-10 -10 -22 -10q-14 0 -22.5 8t-8.5 21 q0 33 48 33q32 0 51.5 -26t19.5 -75q0 -70 -40.5 -112.5t-102.5 -42.5q-33 0 -65.5 14t-51 27.5t-57.5 46.5q-68 59 -142 59q-44 0 -79 -22.5t-43 -53.5q2 0 6.5 1t7.5 1q10 0 19.5 -8.5t9.5 -19.5q0 -33 -41 -33q-24 0 -38 25t-14 71z" />
<glyph unicode="&#xbe;" horiz-adv-x="1955" d="M94 793q0 40 25 67t59 27q47 0 47 -41q0 -13 -10 -22t-25 -9q-8 0 -18.5 4t-13.5 4q-10 0 -19.5 -12.5t-9.5 -32.5q0 -67 72.5 -115.5t191.5 -48.5q130 0 207.5 67.5t77.5 180.5q0 90 -57.5 142.5t-153.5 52.5q-47 0 -89 -13.5t-44 -13.5q-15 0 -15 8t19 23l317 276h-430 q-39 0 -49 -8t-10 -39q0 -43 3 -89t3 -48q0 -20 -16 -20q-17 0 -17 20q0 6 3 25.5t3 33.5q0 39 -2 80.5t-2 44.5q0 22 11.5 26.5t64.5 4.5h33h379q59 0 59 -25q0 -18 -18 -36l-264 -230q58 4 71 4q107 0 174.5 -58.5t67.5 -158.5q0 -125 -89 -199.5t-241 -74.5 q-133 0 -214 58t-81 145zM479 -6q0 8 15 31l884 1318q16 24 29 32.5t39 8.5q29 0 29 -14q0 -6 -17 -31l-885 -1316q-17 -25 -28 -33t-37 -8q-29 0 -29 12zM1225 260q0 19 20 39l395 442q32 35 43 35q29 0 29 -26v-27v-453h35q29 0 54 0.5t38.5 1t15.5 0.5q39 0 39 -18 t-28 -18q-1 0 -12.5 0.5t-32.5 1t-45 0.5h-64v-93v-16q0 -63 10 -82.5t54 -19.5q18 0 38.5 2t22.5 2q13 0 21 -5.5t8 -11.5q0 -14 -23 -14l-51 4q-50 4 -102 4q-49 0 -99.5 -4t-52.5 -4q-25 0 -25 14q0 6 8 11.5t21 5.5q4 0 24.5 -2t37.5 -2q44 0 54.5 20t10.5 80v18v93 h-375q-69 0 -69 22zM1266 270h403l4 459z" />
<glyph unicode="&#xbf;" horiz-adv-x="1124" d="M123 315q0 41 5.5 75.5t20 63.5t28.5 51.5t41 45t47.5 37.5t58.5 35t63 32t72 34t76 36q42 19 67 44t37.5 61t16 72t3.5 95q0 5 -1 14.5t-1 14.5q0 45 29 45q31 0 31 -53v-64q0 -85 -14.5 -132.5t-52.5 -83t-120 -79.5q-30 -16 -78.5 -40t-74.5 -37.5t-61.5 -34.5 t-54.5 -40.5t-38 -46.5t-27 -60t-8 -74q0 -144 105.5 -227t286.5 -83q196 0 311 86t115 215q0 63 -29 98.5t-80 35.5q-20 0 -20 -13q0 -4 3 -17t3 -22q0 -27 -20 -46t-48 -19q-34 0 -52 17t-18 48q0 52 38 80.5t106 28.5q79 0 128.5 -52.5t49.5 -138.5q0 -152 -130.5 -248 t-352.5 -96q-210 0 -335.5 93t-125.5 249zM600 1274q0 38 26 64t64 26q39 0 66.5 -27t27.5 -63q0 -40 -27 -67t-67 -27q-39 0 -64.5 26.5t-25.5 67.5z" />
<glyph unicode="&#xc0;" horiz-adv-x="1347" d="M-92 31q0 30 55 30q8 0 26 -2t27 -2q66 0 98 18.5t54 76.5l469 1204q7 22 15.5 27.5t33.5 5.5q40 0 53 -39l435 -1196q21 -58 54 -76.5t99 -18.5q9 0 26 1t25 1q56 0 56 -28q0 -10 -13.5 -20.5t-27.5 -10.5q-3 0 -29.5 3.5t-76.5 7t-109 3.5q-76 0 -141 -5t-99.5 -10 t-36.5 -5q-16 0 -27.5 9.5t-11.5 19.5q0 30 49 30q6 0 43 -2t68 -2q50 0 73 12t23 41q0 27 -4 39l-135 379q-102 2 -303 2q-199 0 -297 -2l-146 -381q-10 -30 -10 -39q0 -29 22 -41t74 -12q27 0 64 2t47 2q49 0 49 -30q0 -10 -10 -19.5t-23 -9.5q-4 0 -41.5 5t-104.5 10 t-144 5q-54 0 -102.5 -3.5t-77 -7t-33.5 -3.5q-13 0 -24 10t-11 21zM397 571q242 -4 275 -4q40 0 286 4l-274 748zM438 1772q0 12 8 19t19 7t22 -8l402 -256q22 -13 22 -25t-18 -12q-14 0 -27 8l-399 226q-29 16 -29 41z" />
<glyph unicode="&#xc1;" horiz-adv-x="1347" d="M-92 31q0 30 55 30q8 0 26 -2t27 -2q66 0 98 18.5t54 76.5l469 1204q7 22 15.5 27.5t33.5 5.5q40 0 53 -39l435 -1196q21 -58 54 -76.5t99 -18.5q9 0 26 1t25 1q56 0 56 -28q0 -10 -13.5 -20.5t-27.5 -10.5q-3 0 -29.5 3.5t-76.5 7t-109 3.5q-76 0 -141 -5t-99.5 -10 t-36.5 -5q-16 0 -27.5 9.5t-11.5 19.5q0 30 49 30q6 0 43 -2t68 -2q50 0 73 12t23 41q0 27 -4 39l-135 379q-102 2 -303 2q-199 0 -297 -2l-146 -381q-10 -30 -10 -39q0 -29 22 -41t74 -12q27 0 64 2t47 2q49 0 49 -30q0 -10 -10 -19.5t-23 -9.5q-4 0 -41.5 5t-104.5 10 t-144 5q-54 0 -102.5 -3.5t-77 -7t-33.5 -3.5q-13 0 -24 10t-11 21zM397 571q242 -4 275 -4q40 0 286 4l-274 748zM436 1509q0 13 21 25l403 256q11 8 23 8q11 0 18.5 -7t7.5 -19q0 -25 -28 -41l-400 -226q-13 -8 -26 -8q-19 0 -19 12z" />
<glyph unicode="&#xc2;" horiz-adv-x="1347" d="M-92 31q0 30 55 30q8 0 26 -2t27 -2q66 0 98 18.5t54 76.5l469 1204q7 22 15.5 27.5t33.5 5.5q40 0 53 -39l435 -1196q21 -58 54 -76.5t99 -18.5q9 0 26 1t25 1q56 0 56 -28q0 -10 -13.5 -20.5t-27.5 -10.5q-3 0 -29.5 3.5t-76.5 7t-109 3.5q-76 0 -141 -5t-99.5 -10 t-36.5 -5q-16 0 -27.5 9.5t-11.5 19.5q0 30 49 30q6 0 43 -2t68 -2q50 0 73 12t23 41q0 27 -4 39l-135 379q-102 2 -303 2q-199 0 -297 -2l-146 -381q-10 -30 -10 -39q0 -29 22 -41t74 -12q27 0 64 2t47 2q49 0 49 -30q0 -10 -10 -19.5t-23 -9.5q-4 0 -41.5 5t-104.5 10 t-144 5q-54 0 -102.5 -3.5t-77 -7t-33.5 -3.5q-13 0 -24 10t-11 21zM395 1513q0 7 6 13l203 252q14 19 28.5 24.5t41.5 5.5q24 0 38.5 -5.5t28.5 -24.5l203 -252q6 -9 6 -13q0 -18 -18 -18q-22 0 -33 14l-188 224q-19 22 -37 22q-20 0 -39 -22l-189 -224q-10 -14 -32 -14 q-19 0 -19 18zM397 571q242 -4 275 -4q40 0 286 4l-274 748z" />
<glyph unicode="&#xc3;" horiz-adv-x="1347" d="M-92 31q0 30 55 30q8 0 26 -2t27 -2q66 0 98 18.5t54 76.5l469 1204q7 22 15.5 27.5t33.5 5.5q40 0 53 -39l435 -1196q21 -58 54 -76.5t99 -18.5q9 0 26 1t25 1q56 0 56 -28q0 -10 -13.5 -20.5t-27.5 -10.5q-3 0 -29.5 3.5t-76.5 7t-109 3.5q-76 0 -141 -5t-99.5 -10 t-36.5 -5q-16 0 -27.5 9.5t-11.5 19.5q0 30 49 30q6 0 43 -2t68 -2q50 0 73 12t23 41q0 27 -4 39l-135 379q-102 2 -303 2q-199 0 -297 -2l-146 -381q-10 -30 -10 -39q0 -29 22 -41t74 -12q27 0 64 2t47 2q49 0 49 -30q0 -10 -10 -19.5t-23 -9.5q-4 0 -41.5 5t-104.5 10 t-144 5q-54 0 -102.5 -3.5t-77 -7t-33.5 -3.5q-13 0 -24 10t-11 21zM391 1589q0 41 38 81t99 40q53 0 105 -21t94 -42t72 -21q35 0 60.5 18.5t35.5 41t20.5 41t20.5 18.5q6 0 13 -10.5t7 -22.5q0 -48 -42.5 -91.5t-104.5 -43.5q-57 0 -147.5 42t-137.5 42q-30 0 -50.5 -16 t-29 -35t-17.5 -35t-19 -16q-5 0 -11 9.5t-6 20.5zM397 571q242 -4 275 -4q40 0 286 4l-274 748z" />
<glyph unicode="&#xc4;" horiz-adv-x="1347" d="M-92 31q0 30 55 30q8 0 26 -2t27 -2q66 0 98 18.5t54 76.5l469 1204q7 22 15.5 27.5t33.5 5.5q40 0 53 -39l435 -1196q21 -58 54 -76.5t99 -18.5q9 0 26 1t25 1q56 0 56 -28q0 -10 -13.5 -20.5t-27.5 -10.5q-3 0 -29.5 3.5t-76.5 7t-109 3.5q-76 0 -141 -5t-99.5 -10 t-36.5 -5q-16 0 -27.5 9.5t-11.5 19.5q0 30 49 30q6 0 43 -2t68 -2q50 0 73 12t23 41q0 27 -4 39l-135 379q-102 2 -303 2q-199 0 -297 -2l-146 -381q-10 -30 -10 -39q0 -29 22 -41t74 -12q27 0 64 2t47 2q49 0 49 -30q0 -10 -10 -19.5t-23 -9.5q-4 0 -41.5 5t-104.5 10 t-144 5q-54 0 -102.5 -3.5t-77 -7t-33.5 -3.5q-13 0 -24 10t-11 21zM397 571q242 -4 275 -4q40 0 286 4l-274 748zM418 1649q0 28 18.5 45.5t46.5 17.5t46 -17.5t18 -45.5q0 -27 -18.5 -45.5t-45.5 -18.5t-46 19.5t-19 44.5zM801 1649q0 28 17.5 45.5t45.5 17.5t46 -17.5 t18 -45.5q0 -27 -18.5 -45.5t-45.5 -18.5t-45 19t-18 45z" />
<glyph unicode="&#xc5;" horiz-adv-x="1347" d="M-92 31q0 30 55 30q8 0 26 -2t27 -2q66 0 98 18.5t54 76.5l469 1204q7 22 15.5 27.5t33.5 5.5q40 0 53 -39l435 -1196q21 -58 54 -76.5t99 -18.5q9 0 26 1t25 1q56 0 56 -28q0 -10 -13.5 -20.5t-27.5 -10.5q-3 0 -29.5 3.5t-76.5 7t-109 3.5q-76 0 -141 -5t-99.5 -10 t-36.5 -5q-16 0 -27.5 9.5t-11.5 19.5q0 30 49 30q6 0 43 -2t68 -2q50 0 73 12t23 41q0 27 -4 39l-135 379q-102 2 -303 2q-199 0 -297 -2l-146 -381q-10 -30 -10 -39q0 -29 22 -41t74 -12q27 0 64 2t47 2q49 0 49 -30q0 -10 -10 -19.5t-23 -9.5q-4 0 -41.5 5t-104.5 10 t-144 5q-54 0 -102.5 -3.5t-77 -7t-33.5 -3.5q-13 0 -24 10t-11 21zM397 571q242 -4 275 -4q40 0 286 4l-274 748zM469 1677q0 93 65 158.5t158 65.5t157 -65.5t64 -158.5t-64 -157t-157 -64q-94 0 -158.5 64.5t-64.5 156.5zM516 1677q0 -72 52 -123t124 -51q74 0 124 50.5 t50 123.5q0 74 -50.5 125t-123.5 51q-72 0 -124 -52t-52 -124z" />
<glyph unicode="&#xc6;" horiz-adv-x="2021" d="M-133 29q0 11 12 18.5t33 7.5q6 0 23 -1t26 -1q42 0 63.5 16t53.5 60l799 1147q10 17 10 24q0 25 -35 25l-5 -1q-5 -1 -11 -1q-4 0 -12.5 1t-12.5 1q-12 0 -31 -2t-26 -2q-25 0 -38.5 8.5t-13.5 20.5q0 10 11 18t30 8q1 0 45.5 -4t131.5 -8t190 -4q163 0 339.5 2t190.5 2 q102 0 132 -16t30 -82q0 -2 -2 -66t-2 -125q0 -52 3 -96.5t6 -69.5t3 -28q0 -16 -10 -28.5t-20 -12.5q-8 0 -16.5 13t-8.5 26q0 1 1 19t2 51.5t1 72.5v63q0 61 -0.5 91t-8 60t-15 40t-31.5 19.5t-47 11t-72 2.5l-416 8h-8q-44 0 -69 -7.5t-38 -29.5t-16.5 -49.5t-3.5 -79.5 v-346q0 -38 10.5 -45.5t55.5 -7.5h166h69q46 0 72.5 6.5t39.5 24.5t16 39t3 61q0 32 -1.5 61.5t-3 47.5t-1.5 22q0 43 29 43q13 0 21 -11t8 -30q0 -16 -9.5 -110t-9.5 -173q0 -102 10.5 -208.5t10.5 -110.5q0 -26 -9 -41t-22 -15q-11 0 -20 13.5t-9 36.5q0 2 1.5 25.5 t3 66.5t1.5 94q0 23 -1.5 39.5t-8 29.5t-11 21t-20 14t-25.5 9t-36 4.5t-43 1.5h-55h-168q-42 0 -53 -12t-11 -50v-393v-74q0 -24 1 -42t5.5 -31.5t8 -22.5t14.5 -15t18 -9t25 -5t30 -2h38h421q36 0 57.5 0.5t43 5t32.5 9.5t22 18.5t14.5 27t7 41t4 53.5t0.5 71q0 50 -1 91 t-2 62.5t-1 22.5q0 21 7 34t17 13q29 0 29 -55q0 -5 -2 -35t-4 -79.5t-2 -103.5q0 -33 1 -64t2 -50t1 -23q0 -61 -29 -77.5t-104 -16.5h-46q-136 0 -349 7t-292 7q-71 0 -152.5 -8t-90.5 -8q-18 0 -28.5 8.5t-10.5 20.5q0 26 55 26q9 0 32.5 -2t39.5 -2q20 0 34 0.5t27 4.5 t21.5 6t15.5 11t11.5 14t7.5 21.5t4.5 26t2.5 34t1 40v49.5v266h-545l-281 -403q-10 -13 -10 -35q0 -37 68 -37q21 0 59.5 3t56.5 3q20 0 33 -7.5t13 -16.5q0 -13 -12.5 -22t-33.5 -9q-9 0 -79 6t-129 6q-55 0 -102 -2t-72 -4t-27 -2q-19 0 -31 8t-12 17zM465 580h506v727 h-15z" />
<glyph unicode="&#xc7;" horiz-adv-x="1230" d="M100 680q0 338 151.5 526.5t410.5 188.5q281 0 401 -240v37q0 42 -4 84t-4 43q0 21 8 34t18 13q13 0 22 -11t9 -32l-2 -21q-1 -22 -2.5 -64t-1.5 -93q0 -90 2 -164.5t4 -112.5t2 -39q0 -17 -8 -29t-19 -12q-12 0 -21 11.5t-9 31.5q0 3 2 28.5t2 47.5q0 216 -106.5 330.5 t-288.5 114.5q-227 0 -361.5 -179t-134.5 -497q0 -310 137.5 -486t368.5 -176q422 0 422 447q0 43 22 43q29 0 29 -62q0 -222 -126 -346.5t-349 -124.5q-276 0 -425 182.5t-149 526.5zM457 -354q0 6 5.5 11t12.5 5t34.5 -13t71.5 -25.5t93 -12.5q64 0 102.5 32.5t38.5 86.5 q0 47 -32.5 76.5t-86.5 29.5q-12 0 -31 -2t-26 -2q-5 0 -9.5 4.5t-4.5 11.5q0 2 2 22t2 38v92h39v-131q25 2 53 2q71 0 114.5 -37t43.5 -100q0 -69 -54 -112.5t-143 -43.5q-77 0 -151 24.5t-74 43.5z" />
<glyph unicode="&#xc8;" horiz-adv-x="1392" d="M53 29q0 26 58 26q5 0 34 -2t54 -2t42 3.5t30 7.5t20.5 18t12 24.5t6.5 38.5t2.5 49t0.5 66v850q0 45 -0.5 66t-2.5 49t-6.5 38.5t-12 24.5t-20.5 18t-30 7.5t-42 3.5q-19 0 -53 -2t-48 -2q-19 0 -32 8t-13 18q0 13 11 21t30 8q3 0 34 -2.5t89 -5t125 -2.5q128 0 350 4 t316 4q104 0 135 -16t31 -82q0 -3 -2 -29.5t-3.5 -74.5t-1.5 -101q0 -58 6.5 -118t6.5 -62q0 -14 -10.5 -27.5t-20.5 -13.5q-9 0 -17 14t-8 35q0 1 1 23.5t2 66t1 96.5v76.5t-4 56t-7 42t-15 27.5t-21 18t-33 8.5t-42.5 5t-57.5 0.5l-430 8h-10q-45 0 -70 -7t-38 -29.5 t-16 -49t-3 -80.5v-346q0 -38 10.5 -45.5t57.5 -7.5h169h74q47 0 74 6.5t40 25t16 39t3 62.5q0 32 -1.5 61t-3 47t-1.5 21q0 43 29 43q31 0 31 -49q0 -8 -10.5 -100t-10.5 -175q0 -103 11.5 -209.5t11.5 -109.5q0 -26 -10 -41t-23 -15t-21 13t-8 37q0 2 1.5 25.5t3 66.5 t1.5 94q0 36 -6.5 57.5t-16 34.5t-37 18.5t-52 7t-78.5 1.5h-17h-172q-44 0 -54.5 -11.5t-10.5 -50.5v-393v-72q0 -33 2 -54t10 -36t15.5 -22.5t27.5 -11.5t36.5 -4.5t51.5 -0.5h434q37 0 59 0.5t45 5.5t34 9.5t22 19.5t15 28.5t7.5 42.5t4 56.5t0.5 75.5q0 45 -1 83 t-2 57.5t-1 21.5q0 22 8 35.5t18 13.5q29 0 29 -49q0 -5 -4 -80t-4 -146q0 -44 2 -89t2 -46q0 -62 -30.5 -78t-112.5 -16h-39q-141 0 -362.5 7t-301.5 7q-74 0 -158 -8t-94 -8q-19 0 -30 8t-11 21zM461 1772q0 12 7.5 19t18.5 7q12 0 23 -8l401 -256q23 -13 23 -25t-19 -12 q-13 0 -26 8l-400 226q-28 16 -28 41z" />
<glyph unicode="&#xc9;" horiz-adv-x="1392" d="M53 29q0 26 58 26q5 0 34 -2t54 -2t42 3.5t30 7.5t20.5 18t12 24.5t6.5 38.5t2.5 49t0.5 66v850q0 45 -0.5 66t-2.5 49t-6.5 38.5t-12 24.5t-20.5 18t-30 7.5t-42 3.5q-19 0 -53 -2t-48 -2q-19 0 -32 8t-13 18q0 13 11 21t30 8q3 0 34 -2.5t89 -5t125 -2.5q128 0 350 4 t316 4q104 0 135 -16t31 -82q0 -3 -2 -29.5t-3.5 -74.5t-1.5 -101q0 -58 6.5 -118t6.5 -62q0 -14 -10.5 -27.5t-20.5 -13.5q-9 0 -17 14t-8 35q0 1 1 23.5t2 66t1 96.5v76.5t-4 56t-7 42t-15 27.5t-21 18t-33 8.5t-42.5 5t-57.5 0.5l-430 8h-10q-45 0 -70 -7t-38 -29.5 t-16 -49t-3 -80.5v-346q0 -38 10.5 -45.5t57.5 -7.5h169h74q47 0 74 6.5t40 25t16 39t3 62.5q0 32 -1.5 61t-3 47t-1.5 21q0 43 29 43q31 0 31 -49q0 -8 -10.5 -100t-10.5 -175q0 -103 11.5 -209.5t11.5 -109.5q0 -26 -10 -41t-23 -15t-21 13t-8 37q0 2 1.5 25.5t3 66.5 t1.5 94q0 36 -6.5 57.5t-16 34.5t-37 18.5t-52 7t-78.5 1.5h-17h-172q-44 0 -54.5 -11.5t-10.5 -50.5v-393v-72q0 -33 2 -54t10 -36t15.5 -22.5t27.5 -11.5t36.5 -4.5t51.5 -0.5h434q37 0 59 0.5t45 5.5t34 9.5t22 19.5t15 28.5t7.5 42.5t4 56.5t0.5 75.5q0 45 -1 83 t-2 57.5t-1 21.5q0 22 8 35.5t18 13.5q29 0 29 -49q0 -5 -4 -80t-4 -146q0 -44 2 -89t2 -46q0 -62 -30.5 -78t-112.5 -16h-39q-141 0 -362.5 7t-301.5 7q-74 0 -158 -8t-94 -8q-19 0 -30 8t-11 21zM459 1509q0 14 20 25l404 256q11 8 22 8t19 -7t8 -19q0 -25 -29 -41 l-399 -226q-13 -8 -27 -8q-18 0 -18 12z" />
<glyph unicode="&#xca;" horiz-adv-x="1392" d="M53 29q0 26 58 26q5 0 34 -2t54 -2t42 3.5t30 7.5t20.5 18t12 24.5t6.5 38.5t2.5 49t0.5 66v850q0 45 -0.5 66t-2.5 49t-6.5 38.5t-12 24.5t-20.5 18t-30 7.5t-42 3.5q-19 0 -53 -2t-48 -2q-19 0 -32 8t-13 18q0 13 11 21t30 8q3 0 34 -2.5t89 -5t125 -2.5q128 0 350 4 t316 4q104 0 135 -16t31 -82q0 -3 -2 -29.5t-3.5 -74.5t-1.5 -101q0 -58 6.5 -118t6.5 -62q0 -14 -10.5 -27.5t-20.5 -13.5q-9 0 -17 14t-8 35q0 1 1 23.5t2 66t1 96.5v76.5t-4 56t-7 42t-15 27.5t-21 18t-33 8.5t-42.5 5t-57.5 0.5l-430 8h-10q-45 0 -70 -7t-38 -29.5 t-16 -49t-3 -80.5v-346q0 -38 10.5 -45.5t57.5 -7.5h169h74q47 0 74 6.5t40 25t16 39t3 62.5q0 32 -1.5 61t-3 47t-1.5 21q0 43 29 43q31 0 31 -49q0 -8 -10.5 -100t-10.5 -175q0 -103 11.5 -209.5t11.5 -109.5q0 -26 -10 -41t-23 -15t-21 13t-8 37q0 2 1.5 25.5t3 66.5 t1.5 94q0 36 -6.5 57.5t-16 34.5t-37 18.5t-52 7t-78.5 1.5h-17h-172q-44 0 -54.5 -11.5t-10.5 -50.5v-393v-72q0 -33 2 -54t10 -36t15.5 -22.5t27.5 -11.5t36.5 -4.5t51.5 -0.5h434q37 0 59 0.5t45 5.5t34 9.5t22 19.5t15 28.5t7.5 42.5t4 56.5t0.5 75.5q0 45 -1 83 t-2 57.5t-1 21.5q0 22 8 35.5t18 13.5q29 0 29 -49q0 -5 -4 -80t-4 -146q0 -44 2 -89t2 -46q0 -62 -30.5 -78t-112.5 -16h-39q-141 0 -362.5 7t-301.5 7q-74 0 -158 -8t-94 -8q-19 0 -30 8t-11 21zM418 1513q0 7 6 13l203 252q14 19 28 24.5t41 5.5q25 0 39.5 -5.5 t28.5 -24.5l203 -252q6 -9 6 -13q0 -18 -19 -18q-21 0 -32 14l-189 224q-19 22 -37 22q-20 0 -39 -22l-188 -224q-11 -14 -33 -14q-18 0 -18 18z" />
<glyph unicode="&#xcb;" horiz-adv-x="1392" d="M53 29q0 26 58 26q5 0 34 -2t54 -2t42 3.5t30 7.5t20.5 18t12 24.5t6.5 38.5t2.5 49t0.5 66v850q0 45 -0.5 66t-2.5 49t-6.5 38.5t-12 24.5t-20.5 18t-30 7.5t-42 3.5q-19 0 -53 -2t-48 -2q-19 0 -32 8t-13 18q0 13 11 21t30 8q3 0 34 -2.5t89 -5t125 -2.5q128 0 350 4 t316 4q104 0 135 -16t31 -82q0 -3 -2 -29.5t-3.5 -74.5t-1.5 -101q0 -58 6.5 -118t6.5 -62q0 -14 -10.5 -27.5t-20.5 -13.5q-9 0 -17 14t-8 35q0 1 1 23.5t2 66t1 96.5v76.5t-4 56t-7 42t-15 27.5t-21 18t-33 8.5t-42.5 5t-57.5 0.5l-430 8h-10q-45 0 -70 -7t-38 -29.5 t-16 -49t-3 -80.5v-346q0 -38 10.5 -45.5t57.5 -7.5h169h74q47 0 74 6.5t40 25t16 39t3 62.5q0 32 -1.5 61t-3 47t-1.5 21q0 43 29 43q31 0 31 -49q0 -8 -10.5 -100t-10.5 -175q0 -103 11.5 -209.5t11.5 -109.5q0 -26 -10 -41t-23 -15t-21 13t-8 37q0 2 1.5 25.5t3 66.5 t1.5 94q0 36 -6.5 57.5t-16 34.5t-37 18.5t-52 7t-78.5 1.5h-17h-172q-44 0 -54.5 -11.5t-10.5 -50.5v-393v-72q0 -33 2 -54t10 -36t15.5 -22.5t27.5 -11.5t36.5 -4.5t51.5 -0.5h434q37 0 59 0.5t45 5.5t34 9.5t22 19.5t15 28.5t7.5 42.5t4 56.5t0.5 75.5q0 45 -1 83 t-2 57.5t-1 21.5q0 22 8 35.5t18 13.5q29 0 29 -49q0 -5 -4 -80t-4 -146q0 -44 2 -89t2 -46q0 -62 -30.5 -78t-112.5 -16h-39q-141 0 -362.5 7t-301.5 7q-74 0 -158 -8t-94 -8q-19 0 -30 8t-11 21zM440 1649q0 27 19 45t47 18t45.5 -17.5t17.5 -45.5q0 -27 -18 -45.5 t-45 -18.5t-46.5 19.5t-19.5 44.5zM823 1649q0 28 18 45.5t46 17.5t45.5 -17.5t17.5 -45.5q0 -27 -18 -45.5t-45 -18.5t-45.5 19.5t-18.5 44.5z" />
<glyph unicode="&#xcc;" horiz-adv-x="690" d="M51 29q0 26 58 26q5 0 34 -2t54 -2t42 3.5t30 7.5t20.5 18t12 24.5t6.5 38.5t2.5 49t0.5 66v850q0 45 -0.5 66t-2.5 49t-6.5 38.5t-12 24.5t-20.5 18t-30 7.5t-42 3.5q-19 0 -53 -2t-48 -2q-19 0 -32 8t-13 18q0 13 11 21t30 8q11 0 96 -10t158 -10t157 10t95 10 q19 0 30 -8t11 -21q0 -26 -57 -26q-5 0 -34 2t-54 2q-82 0 -98.5 -35.5t-16.5 -171.5v-850v-35q0 -109 20 -140.5t95 -31.5q20 0 53 2t47 2q19 0 32 -8t13 -18q0 -13 -11 -21t-30 -8q-11 0 -95 9t-157 9t-158 -9t-96 -9q-19 0 -30 8t-11 21zM111 1772q0 12 7.5 19t18.5 7 q12 0 23 -8l401 -256q23 -13 23 -25t-19 -12q-13 0 -26 8l-400 226q-28 16 -28 41z" />
<glyph unicode="&#xcd;" horiz-adv-x="690" d="M51 29q0 26 58 26q5 0 34 -2t54 -2t42 3.5t30 7.5t20.5 18t12 24.5t6.5 38.5t2.5 49t0.5 66v850q0 45 -0.5 66t-2.5 49t-6.5 38.5t-12 24.5t-20.5 18t-30 7.5t-42 3.5q-19 0 -53 -2t-48 -2q-19 0 -32 8t-13 18q0 13 11 21t30 8q11 0 96 -10t158 -10t157 10t95 10 q19 0 30 -8t11 -21q0 -26 -57 -26q-5 0 -34 2t-54 2q-82 0 -98.5 -35.5t-16.5 -171.5v-850v-35q0 -109 20 -140.5t95 -31.5q20 0 53 2t47 2q19 0 32 -8t13 -18q0 -13 -11 -21t-30 -8q-11 0 -95 9t-157 9t-158 -9t-96 -9q-19 0 -30 8t-11 21zM109 1509q0 14 20 25l403 256 q11 8 23 8q11 0 19 -7t8 -19q0 -25 -29 -41l-399 -226q-13 -8 -27 -8q-18 0 -18 12z" />
<glyph unicode="&#xce;" horiz-adv-x="690" d="M51 29q0 26 58 26q5 0 34 -2t54 -2t42 3.5t30 7.5t20.5 18t12 24.5t6.5 38.5t2.5 49t0.5 66v850q0 45 -0.5 66t-2.5 49t-6.5 38.5t-12 24.5t-20.5 18t-30 7.5t-42 3.5q-19 0 -53 -2t-48 -2q-19 0 -32 8t-13 18q0 13 11 21t30 8q11 0 96 -10t158 -10t157 10t95 10 q19 0 30 -8t11 -21q0 -26 -57 -26q-5 0 -34 2t-54 2q-82 0 -98.5 -35.5t-16.5 -171.5v-850v-35q0 -109 20 -140.5t95 -31.5q20 0 53 2t47 2q19 0 32 -8t13 -18q0 -13 -11 -21t-30 -8q-11 0 -95 9t-157 9t-158 -9t-96 -9q-19 0 -30 8t-11 21zM68 1513q0 7 6 13l202 252 q14 19 28.5 24.5t41.5 5.5q25 0 39.5 -5.5t28.5 -24.5l202 -252q7 -10 7 -13q0 -18 -19 -18q-22 0 -33 14l-188 224q-19 22 -37 22q-20 0 -39 -22l-188 -224q-10 -14 -33 -14q-18 0 -18 18z" />
<glyph unicode="&#xcf;" horiz-adv-x="690" d="M51 29q0 26 58 26q5 0 34 -2t54 -2t42 3.5t30 7.5t20.5 18t12 24.5t6.5 38.5t2.5 49t0.5 66v850q0 45 -0.5 66t-2.5 49t-6.5 38.5t-12 24.5t-20.5 18t-30 7.5t-42 3.5q-19 0 -53 -2t-48 -2q-19 0 -32 8t-13 18q0 13 11 21t30 8q11 0 96 -10t158 -10t157 10t95 10 q19 0 30 -8t11 -21q0 -26 -57 -26q-5 0 -34 2t-54 2q-82 0 -98.5 -35.5t-16.5 -171.5v-850v-35q0 -109 20 -140.5t95 -31.5q20 0 53 2t47 2q19 0 32 -8t13 -18q0 -13 -11 -21t-30 -8q-11 0 -95 9t-157 9t-158 -9t-96 -9q-19 0 -30 8t-11 21zM90 1649q0 27 19 45t47 18 t45.5 -17.5t17.5 -45.5q0 -27 -18 -45.5t-45 -18.5t-46.5 19.5t-19.5 44.5zM473 1649q0 28 18 45.5t46 17.5t45.5 -17.5t17.5 -45.5q0 -27 -18 -45.5t-45 -18.5t-45.5 19.5t-18.5 44.5z" />
<glyph unicode="&#xd0;" horiz-adv-x="1484" d="M14 727q0 25 78 25h236v356q0 44 -0.5 65.5t-2.5 49t-7 39t-12.5 25t-20.5 18t-30 7.5t-42 3q-19 0 -53 -2t-47 -2q-19 0 -32 8t-13 18q0 13 11 21t30 8q18 0 99.5 -10t143.5 -10q41 0 173.5 9t222.5 9q321 0 476.5 -164.5t155.5 -507.5q0 -341 -166 -516.5t-491 -175.5 q-88 0 -212 9t-159 9q-62 0 -143.5 -9t-99.5 -9q-19 0 -30 8t-11 21q0 26 57 26q5 0 34 -2t54 -2t42 3t30 7.5t20.5 18t12.5 25t7 39t2.5 49t0.5 65.5v447h-238q-41 0 -58.5 4t-17.5 18zM395 223q0 -98 21 -139q16 -26 75.5 -33.5t202.5 -7.5q316 0 467.5 162t151.5 502 q0 333 -145.5 474.5t-460.5 141.5q-223 0 -273 -20q-27 -10 -33 -50t-6 -143v-358h365q40 0 58 -5.5t18 -19.5t-17.5 -18t-58.5 -4h-365v-447v-35z" />
<glyph unicode="&#xd1;" horiz-adv-x="1570" d="M53 29q0 26 58 26q5 0 34 -2t54 -2q29 0 48 2.5t32.5 14t20 22.5t10.5 39.5t4.5 53.5t0.5 75v850q0 50 -0.5 75t-4.5 53.5t-10.5 39.5t-20 22.5t-32.5 14t-48 2.5q-19 0 -53 -2t-48 -2q-19 0 -32 8t-13 18q0 13 11 21t30 8q1 0 23.5 -2t66 -4t95.5 -2q23 0 42.5 0.5t31 1 t12.5 0.5q35 0 52 -12.5t40 -51.5l733 -1226v1038q0 37 -0.5 58t-2 45.5t-4.5 37t-9 26.5t-14 19.5t-21 11.5t-28.5 7.5t-37.5 1.5q-19 0 -52 -2t-46 -2q-19 0 -32 8t-13 18q0 13 11 21t30 8q11 0 95 -10t157 -10t157 10t95 10q19 0 30 -8t11 -21q0 -26 -58 -26q-5 0 -33 2 t-53 2q-22 0 -38 -1.5t-28.5 -7.5t-21 -11.5t-14 -20.5t-8.5 -26.5t-4.5 -37t-2 -45t-0.5 -57.5v-1038q0 -32 -16 -53t-41 -21q-38 0 -65 49l-752 1260v-1047v-35q0 -109 20 -140.5t95 -31.5q20 0 53 2t47 2q19 0 31 -8t12 -18q0 -29 -39 -29q-11 0 -96 9t-158 9t-157 -9 t-95 -9q-19 0 -30 8t-11 21zM504 1589q0 41 38 81t99 40q53 0 104.5 -21t93.5 -42t72 -21q35 0 60.5 18.5t36 41t21 41t20.5 18.5q6 0 13 -10.5t7 -22.5q0 -48 -42.5 -91.5t-104.5 -43.5q-57 0 -147.5 42t-137.5 42q-30 0 -51 -16t-29 -35t-17.5 -35t-19.5 -16 q-5 0 -10.5 9.5t-5.5 20.5z" />
<glyph unicode="&#xd2;" horiz-adv-x="1398" d="M102 682q0 333 160 523t438 190q275 0 435.5 -191t160.5 -522q0 -328 -159.5 -519.5t-438.5 -191.5q-276 0 -436 191t-160 520zM174 682q0 -308 142.5 -488t381.5 -180t383 180.5t144 487.5t-144 488.5t-383 181.5t-381.5 -181t-142.5 -489zM465 1772q0 12 8 19t19 7 t22 -8l401 -256q23 -13 23 -25t-18 -12q-14 0 -27 8l-399 226q-29 16 -29 41z" />
<glyph unicode="&#xd3;" horiz-adv-x="1398" d="M102 682q0 333 160 523t438 190q275 0 435.5 -191t160.5 -522q0 -328 -159.5 -519.5t-438.5 -191.5q-276 0 -436 191t-160 520zM174 682q0 -308 142.5 -488t381.5 -180t383 180.5t144 487.5t-144 488.5t-383 181.5t-381.5 -181t-142.5 -489zM463 1509q0 14 20 25l404 256 q11 8 22 8t19 -7t8 -19q0 -25 -29 -41l-399 -226q-13 -8 -27 -8q-18 0 -18 12z" />
<glyph unicode="&#xd4;" horiz-adv-x="1398" d="M102 682q0 333 160 523t438 190q275 0 435.5 -191t160.5 -522q0 -328 -159.5 -519.5t-438.5 -191.5q-276 0 -436 191t-160 520zM174 682q0 -308 142.5 -488t381.5 -180t383 180.5t144 487.5t-144 488.5t-383 181.5t-381.5 -181t-142.5 -489zM422 1513q0 7 6 13l203 252 q14 19 28 24.5t41 5.5q25 0 39.5 -5.5t28.5 -24.5l203 -252q6 -9 6 -13q0 -18 -19 -18q-21 0 -32 14l-189 224q-19 22 -37 22q-19 0 -38 -22l-189 -224q-11 -14 -33 -14q-18 0 -18 18z" />
<glyph unicode="&#xd5;" horiz-adv-x="1398" d="M102 682q0 333 160 523t438 190q275 0 435.5 -191t160.5 -522q0 -328 -159.5 -519.5t-438.5 -191.5q-276 0 -436 191t-160 520zM174 682q0 -308 142.5 -488t381.5 -180t383 180.5t144 487.5t-144 488.5t-383 181.5t-381.5 -181t-142.5 -489zM418 1589q0 41 38 81t99 40 q53 0 104.5 -21t93.5 -42t72 -21q35 0 60.5 18.5t36 41t21 41t20.5 18.5q6 0 13 -10.5t7 -22.5q0 -48 -42.5 -91.5t-104.5 -43.5q-57 0 -147.5 42t-137.5 42q-30 0 -51 -16t-29 -35t-17.5 -35t-19.5 -16q-5 0 -10.5 9.5t-5.5 20.5z" />
<glyph unicode="&#xd6;" horiz-adv-x="1398" d="M102 682q0 333 160 523t438 190q275 0 435.5 -191t160.5 -522q0 -328 -159.5 -519.5t-438.5 -191.5q-276 0 -436 191t-160 520zM174 682q0 -308 142.5 -488t381.5 -180t383 180.5t144 487.5t-144 488.5t-383 181.5t-381.5 -181t-142.5 -489zM444 1649q0 27 19 45t47 18 t45.5 -17.5t17.5 -45.5q0 -27 -18 -45.5t-45 -18.5t-46.5 19.5t-19.5 44.5zM827 1649q0 28 18 45.5t46 17.5t45.5 -17.5t17.5 -45.5q0 -27 -18 -45.5t-45 -18.5t-45.5 19.5t-18.5 44.5z" />
<glyph unicode="&#xd7;" horiz-adv-x="1705" d="M315 119l492 491l-492 492l45 45l492 -492l491 492l46 -45l-492 -492l492 -491l-46 -45l-491 491l-492 -491z" />
<glyph unicode="&#xd8;" horiz-adv-x="1398" d="M98 676q0 330 163 525.5t425 195.5q184 0 342 -97l92 144q15 24 35 24q10 0 17.5 -7.5t7.5 -18.5q0 -7 -9 -25l-94 -149q113 -112 166 -255t53 -331q0 -328 -163 -521.5t-435 -193.5q-109 0 -198 31t-181 102l-110 -172q-14 -22 -37 -22q-20 0 -20 26q0 18 8 31l116 178 q-178 211 -178 535zM172 690q0 -326 141 -491l682 1052q-127 103 -307 103q-225 0 -370.5 -184.5t-145.5 -479.5zM354 154q75 -75 157 -108.5t187 -33.5q236 0 381.5 181.5t145.5 488.5q0 331 -183 532z" />
<glyph unicode="&#xd9;" horiz-adv-x="1497" d="M4 1337q0 29 39 29q11 0 96 -10t158 -10t157 10t95 10q19 0 30 -8t11 -21q0 -26 -58 -26q-5 0 -34 2t-54 2t-42 -3.5t-30 -7.5t-20.5 -18t-12 -24.5t-6.5 -38.5t-2.5 -49t-0.5 -66v-700q0 -200 100.5 -297t312.5 -97q206 0 316 100.5t110 293.5v700q0 50 -0.5 75 t-4.5 53.5t-10.5 39.5t-20 22.5t-32.5 14t-48 2.5q-19 0 -52 -2t-47 -2q-19 0 -32 8t-13 18q0 29 39 29q11 0 96 -10t158 -10t157 10t95 10q19 0 30 -8t11 -21q0 -26 -57 -26q-5 0 -34 2t-54 2q-82 0 -98.5 -35.5t-16.5 -171.5v-698q0 -216 -122 -327.5t-355 -111.5 q-265 0 -380.5 105.5t-115.5 333.5v698v58t-1.5 45.5t-4.5 37.5t-8.5 25.5t-13.5 20.5t-20.5 11t-28.5 7.5t-38 1.5q-19 0 -51.5 -2t-46.5 -2q-19 0 -32 8t-13 18zM514 1772q0 12 8 19t19 7t22 -8l402 -256q22 -13 22 -25t-18 -12q-14 0 -27 8l-399 226q-29 16 -29 41z" />
<glyph unicode="&#xda;" horiz-adv-x="1497" d="M4 1337q0 29 39 29q11 0 96 -10t158 -10t157 10t95 10q19 0 30 -8t11 -21q0 -26 -58 -26q-5 0 -34 2t-54 2t-42 -3.5t-30 -7.5t-20.5 -18t-12 -24.5t-6.5 -38.5t-2.5 -49t-0.5 -66v-700q0 -200 100.5 -297t312.5 -97q206 0 316 100.5t110 293.5v700q0 50 -0.5 75 t-4.5 53.5t-10.5 39.5t-20 22.5t-32.5 14t-48 2.5q-19 0 -52 -2t-47 -2q-19 0 -32 8t-13 18q0 29 39 29q11 0 96 -10t158 -10t157 10t95 10q19 0 30 -8t11 -21q0 -26 -57 -26q-5 0 -34 2t-54 2q-82 0 -98.5 -35.5t-16.5 -171.5v-698q0 -216 -122 -327.5t-355 -111.5 q-265 0 -380.5 105.5t-115.5 333.5v698v58t-1.5 45.5t-4.5 37.5t-8.5 25.5t-13.5 20.5t-20.5 11t-28.5 7.5t-38 1.5q-19 0 -51.5 -2t-46.5 -2q-19 0 -32 8t-13 18zM512 1509q0 14 20 25l404 256q11 8 22 8t19 -7t8 -19q0 -25 -29 -41l-399 -226q-13 -8 -27 -8q-18 0 -18 12z " />
<glyph unicode="&#xdb;" horiz-adv-x="1497" d="M4 1337q0 29 39 29q11 0 96 -10t158 -10t157 10t95 10q19 0 30 -8t11 -21q0 -26 -58 -26q-5 0 -34 2t-54 2t-42 -3.5t-30 -7.5t-20.5 -18t-12 -24.5t-6.5 -38.5t-2.5 -49t-0.5 -66v-700q0 -200 100.5 -297t312.5 -97q206 0 316 100.5t110 293.5v700q0 50 -0.5 75 t-4.5 53.5t-10.5 39.5t-20 22.5t-32.5 14t-48 2.5q-19 0 -52 -2t-47 -2q-19 0 -32 8t-13 18q0 29 39 29q11 0 96 -10t158 -10t157 10t95 10q19 0 30 -8t11 -21q0 -26 -57 -26q-5 0 -34 2t-54 2q-82 0 -98.5 -35.5t-16.5 -171.5v-698q0 -216 -122 -327.5t-355 -111.5 q-265 0 -380.5 105.5t-115.5 333.5v698v58t-1.5 45.5t-4.5 37.5t-8.5 25.5t-13.5 20.5t-20.5 11t-28.5 7.5t-38 1.5q-19 0 -51.5 -2t-46.5 -2q-19 0 -32 8t-13 18zM471 1513q0 7 6 13l203 252q14 19 28.5 24.5t41.5 5.5q24 0 38.5 -5.5t28.5 -24.5l203 -252q6 -9 6 -13 q0 -18 -18 -18q-22 0 -33 14l-189 224q-8 9 -11 12.5t-9.5 6.5t-15.5 3q-20 0 -39 -22l-189 -224q-10 -14 -33 -14q-18 0 -18 18z" />
<glyph unicode="&#xdc;" horiz-adv-x="1497" d="M4 1337q0 29 39 29q11 0 96 -10t158 -10t157 10t95 10q19 0 30 -8t11 -21q0 -26 -58 -26q-5 0 -34 2t-54 2t-42 -3.5t-30 -7.5t-20.5 -18t-12 -24.5t-6.5 -38.5t-2.5 -49t-0.5 -66v-700q0 -200 100.5 -297t312.5 -97q206 0 316 100.5t110 293.5v700q0 50 -0.5 75 t-4.5 53.5t-10.5 39.5t-20 22.5t-32.5 14t-48 2.5q-19 0 -52 -2t-47 -2q-19 0 -32 8t-13 18q0 29 39 29q11 0 96 -10t158 -10t157 10t95 10q19 0 30 -8t11 -21q0 -26 -57 -26q-5 0 -34 2t-54 2q-82 0 -98.5 -35.5t-16.5 -171.5v-698q0 -216 -122 -327.5t-355 -111.5 q-265 0 -380.5 105.5t-115.5 333.5v698v58t-1.5 45.5t-4.5 37.5t-8.5 25.5t-13.5 20.5t-20.5 11t-28.5 7.5t-38 1.5q-19 0 -51.5 -2t-46.5 -2q-19 0 -32 8t-13 18zM494 1649q0 28 18.5 45.5t46.5 17.5t46 -17.5t18 -45.5q0 -27 -18.5 -45.5t-45.5 -18.5t-46 19.5t-19 44.5z M877 1649q0 28 17.5 45.5t45.5 17.5t46 -17.5t18 -45.5q0 -27 -18.5 -45.5t-45.5 -18.5t-45 19t-18 45z" />
<glyph unicode="&#xdd;" horiz-adv-x="1234" d="M-49 1337q0 12 10.5 20.5t28.5 8.5q7 0 37 -4t80 -8t104 -4q53 0 128.5 8t94.5 8q39 0 39 -29q0 -26 -55 -26q-20 0 -68 4t-76 4q-22 0 -34.5 -9.5t-12.5 -23.5t29 -63l371 -598l368 596q27 43 27 63t-14 27.5t-45 7.5q-27 0 -73 -4t-63 -4q-23 0 -37 8t-14 18 q0 29 39 29q6 0 75.5 -7t133.5 -7q68 0 124.5 3.5t86 7t31.5 3.5q18 0 28.5 -8.5t10.5 -20.5q0 -10 -14 -18t-36 -8q-8 0 -29 2t-36 2q-42 0 -68.5 -24.5t-66.5 -90.5l-396 -635v-307v-35q0 -109 20 -140.5t95 -31.5q20 0 53 2t47 2q19 0 32.5 -8t13.5 -18q0 -13 -11 -21 t-30 -8q-11 0 -95 9t-157 9t-158 -9t-96 -9q-39 0 -39 29q0 26 57 26q5 0 33 -2t53 -2t42 3t30 7.5t20.5 18t12.5 25t7 39t2.5 49t0.5 65.5v307l-399 639q-4 6 -13 20t-12.5 19.5t-11.5 16.5t-12 15.5t-12 12.5t-14 11l-14 7t-17 5.5t-19 1.5q-11 0 -35 -1t-37 -1 q-19 0 -32 8t-13 18zM381 1509q0 14 20 25l404 256q11 8 22 8t19 -7t8 -19q0 -25 -29 -41l-399 -226q-13 -8 -27 -8q-18 0 -18 12z" />
<glyph unicode="&#xde;" horiz-adv-x="1288" d="M53 27q0 11 12.5 19.5t32.5 8.5q14 0 48 -2t53 -2q25 0 42 3.5t30 7.5t20.5 18t12 24.5t6.5 38.5t2.5 49t0.5 66v850q0 45 -0.5 66t-2.5 49t-6.5 38.5t-12 24.5t-20.5 18t-30 7.5t-42 3.5q-19 0 -53 -2t-48 -2q-20 0 -32.5 8.5t-12.5 19.5q0 27 45 27l82 -8q83 -8 164 -8 q62 0 118.5 4t91 8t42.5 4q45 0 45 -29q0 -26 -57 -26q-5 0 -34 2t-54 2q-66 0 -90.5 -25t-24.5 -106v-21v-33q0 -24 10 -32t37 -8q35 0 140 2t175 2q469 0 469 -389q0 -190 -123 -281.5t-374 -91.5q-70 0 -166.5 4t-120.5 4q-28 0 -37.5 -8.5t-9.5 -34.5v-39v-37 q0 -108 20 -139t95 -31q20 0 53 2t47 2q19 0 31 -8.5t12 -17.5q0 -29 -39 -29q-13 0 -98 9t-156 9t-155 -9t-97 -9q-19 0 -30 8t-11 19zM381 442q0 -50 36.5 -58.5t242.5 -8.5h12q125 0 210 16t145.5 55.5t88 106.5t27.5 168q0 171 -105.5 250.5t-320.5 79.5 q-242 0 -289 -13.5t-47 -85.5v-510z" />
<glyph unicode="&#xdf;" horiz-adv-x="1275" d="M16 18q0 10 9 18.5t18 8.5q1 0 14.5 -0.5t39 -1t55.5 -0.5q83 0 109 14t26 76v731q0 40 -14 54t-58 14q-25 0 -60 -2t-46 -2q-37 0 -37 22q0 10 10.5 17.5t26.5 7.5q11 0 36 -4t41 -4q42 0 63 3.5t32 17t14 27.5t11 46.5t20 62.5q43 107 153.5 173.5t253.5 66.5 q147 0 229 -66.5t82 -183.5q0 -82 -44 -132.5t-140 -84.5q-18 -7 -46 -16t-43.5 -14t-35 -14t-29.5 -17.5t-17 -22t-7 -29.5q0 -44 58 -65q28 -10 143 -33q148 -28 220.5 -108t72.5 -218q0 -170 -120.5 -280.5t-293.5 -110.5q-163 0 -270 119q-5 -30 -5 -35q0 -4 1 -12 t1 -12q0 -29 -24 -29q-25 0 -25 37q0 1 3 50.5t3 98.5q0 53 -2.5 101t-5 75t-2.5 31q0 49 27 49q22 0 22 -32q0 -3 -1.5 -22.5t-3 -53.5t-1.5 -72q0 -110 76.5 -181t200.5 -71q152 0 253 101t101 258q0 111 -59.5 176t-186.5 98q-20 5 -62 14.5t-59.5 14t-46 15.5t-40 22.5 t-21.5 30.5t-10 44q0 48 34.5 76t112.5 55q58 20 90 34.5t61.5 37.5t41.5 54.5t12 76.5q0 93 -66.5 149t-183.5 56q-166 0 -274.5 -105t-108.5 -266v-843v-13q0 -27 -1.5 -40t-7.5 -27t-19.5 -19.5t-36.5 -5.5q-18 0 -46 1t-38 1q-36 0 -81 -6t-55 -6q-20 0 -31.5 7.5 t-11.5 16.5z" />
<glyph unicode="&#xe0;" horiz-adv-x="1097" d="M45 244q0 130 84.5 207t239.5 86q35 2 97.5 4t90.5 4t62 8t55 16q92 47 92 164q0 223 -297 223q-128 0 -214.5 -54t-86.5 -132q0 -17 8 -27t17 -10q2 0 9 12.5t21.5 24.5t36.5 12q70 0 70 -67q0 -37 -28 -58.5t-79 -21.5q-49 0 -78.5 33.5t-29.5 89.5q0 99 100 169 t256 70q191 0 274.5 -74t83.5 -233v-500v-57q0 -56 25 -86.5t70 -30.5q29 0 50 10.5t33 27t18.5 46.5t8.5 61t2 77q0 4 -1 12t-1 12q0 41 23 41q26 0 26 -41q0 -77 -5.5 -124.5t-21.5 -88.5t-49 -59.5t-85 -18.5q-154 0 -154 199v25q-56 -106 -159.5 -165t-233.5 -59 q-147 0 -238.5 77t-91.5 196zM111 246q0 -101 77 -165.5t203 -64.5q168 0 272.5 106t104.5 300v174q-50 -58 -111.5 -75.5t-179.5 -24.5q-190 -11 -278 -65t-88 -185zM266 1378q0 12 8 19.5t19 7.5t22 -8l402 -256q22 -13 22 -25t-18 -12q-14 0 -27 8l-399 225 q-29 16 -29 41z" />
<glyph unicode="&#xe1;" horiz-adv-x="1097" d="M45 244q0 130 84.5 207t239.5 86q35 2 97.5 4t90.5 4t62 8t55 16q92 47 92 164q0 223 -297 223q-128 0 -214.5 -54t-86.5 -132q0 -17 8 -27t17 -10q2 0 9 12.5t21.5 24.5t36.5 12q70 0 70 -67q0 -37 -28 -58.5t-79 -21.5q-49 0 -78.5 33.5t-29.5 89.5q0 99 100 169 t256 70q191 0 274.5 -74t83.5 -233v-500v-57q0 -56 25 -86.5t70 -30.5q29 0 50 10.5t33 27t18.5 46.5t8.5 61t2 77q0 4 -1 12t-1 12q0 41 23 41q26 0 26 -41q0 -77 -5.5 -124.5t-21.5 -88.5t-49 -59.5t-85 -18.5q-154 0 -154 199v25q-56 -106 -159.5 -165t-233.5 -59 q-147 0 -238.5 77t-91.5 196zM111 246q0 -101 77 -165.5t203 -64.5q168 0 272.5 106t104.5 300v174q-50 -58 -111.5 -75.5t-179.5 -24.5q-190 -11 -278 -65t-88 -185zM264 1116q0 13 21 25l403 256q11 8 23 8q11 0 18.5 -7.5t7.5 -19.5q0 -25 -28 -41l-400 -225 q-13 -8 -26 -8q-19 0 -19 12z" />
<glyph unicode="&#xe2;" horiz-adv-x="1097" d="M45 244q0 130 84.5 207t239.5 86q35 2 97.5 4t90.5 4t62 8t55 16q92 47 92 164q0 223 -297 223q-128 0 -214.5 -54t-86.5 -132q0 -17 8 -27t17 -10q2 0 9 12.5t21.5 24.5t36.5 12q70 0 70 -67q0 -37 -28 -58.5t-79 -21.5q-49 0 -78.5 33.5t-29.5 89.5q0 99 100 169 t256 70q191 0 274.5 -74t83.5 -233v-500v-57q0 -56 25 -86.5t70 -30.5q29 0 50 10.5t33 27t18.5 46.5t8.5 61t2 77q0 4 -1 12t-1 12q0 41 23 41q26 0 26 -41q0 -77 -5.5 -124.5t-21.5 -88.5t-49 -59.5t-85 -18.5q-154 0 -154 199v25q-56 -106 -159.5 -165t-233.5 -59 q-147 0 -238.5 77t-91.5 196zM111 246q0 -101 77 -165.5t203 -64.5q168 0 272.5 106t104.5 300v174q-50 -58 -111.5 -75.5t-179.5 -24.5q-190 -11 -278 -65t-88 -185zM223 1120q0 7 6 13l203 251q14 19 28.5 25t41.5 6q24 0 38.5 -6t28.5 -25l203 -251q6 -9 6 -13 q0 -18 -18 -18q-22 0 -33 14l-188 223q-8 9 -11.5 12.5t-10 7t-15.5 3.5q-19 0 -39 -23l-189 -223q-11 -14 -32 -14q-19 0 -19 18z" />
<glyph unicode="&#xe3;" horiz-adv-x="1097" d="M45 244q0 130 84.5 207t239.5 86q35 2 97.5 4t90.5 4t62 8t55 16q92 47 92 164q0 223 -297 223q-128 0 -214.5 -54t-86.5 -132q0 -17 8 -27t17 -10q2 0 9 12.5t21.5 24.5t36.5 12q70 0 70 -67q0 -37 -28 -58.5t-79 -21.5q-49 0 -78.5 33.5t-29.5 89.5q0 99 100 169 t256 70q191 0 274.5 -74t83.5 -233v-500v-57q0 -56 25 -86.5t70 -30.5q29 0 50 10.5t33 27t18.5 46.5t8.5 61t2 77q0 4 -1 12t-1 12q0 41 23 41q26 0 26 -41q0 -77 -5.5 -124.5t-21.5 -88.5t-49 -59.5t-85 -18.5q-154 0 -154 199v25q-56 -106 -159.5 -165t-233.5 -59 q-147 0 -238.5 77t-91.5 196zM111 246q0 -101 77 -165.5t203 -64.5q168 0 272.5 106t104.5 300v174q-50 -58 -111.5 -75.5t-179.5 -24.5q-190 -11 -278 -65t-88 -185zM219 1196q0 41 38 81t99 40q53 0 105 -21t94 -42t72 -21q35 0 60.5 18.5t35.5 41t20.5 41t20.5 18.5 q6 0 13 -10.5t7 -22.5q0 -48 -42.5 -91.5t-104.5 -43.5q-57 0 -147.5 42t-137.5 42q-30 0 -50.5 -16t-29 -35.5t-17.5 -35.5t-19 -16q-5 0 -11 10t-6 21z" />
<glyph unicode="&#xe4;" horiz-adv-x="1097" d="M45 244q0 130 84.5 207t239.5 86q35 2 97.5 4t90.5 4t62 8t55 16q92 47 92 164q0 223 -297 223q-128 0 -214.5 -54t-86.5 -132q0 -17 8 -27t17 -10q2 0 9 12.5t21.5 24.5t36.5 12q70 0 70 -67q0 -37 -28 -58.5t-79 -21.5q-49 0 -78.5 33.5t-29.5 89.5q0 99 100 169 t256 70q191 0 274.5 -74t83.5 -233v-500v-57q0 -56 25 -86.5t70 -30.5q29 0 50 10.5t33 27t18.5 46.5t8.5 61t2 77q0 4 -1 12t-1 12q0 41 23 41q26 0 26 -41q0 -77 -5.5 -124.5t-21.5 -88.5t-49 -59.5t-85 -18.5q-154 0 -154 199v25q-56 -106 -159.5 -165t-233.5 -59 q-147 0 -238.5 77t-91.5 196zM111 246q0 -101 77 -165.5t203 -64.5q168 0 272.5 106t104.5 300v174q-50 -58 -111.5 -75.5t-179.5 -24.5q-190 -11 -278 -65t-88 -185zM246 1255q0 28 18.5 46t46.5 18t46 -18t18 -46q0 -27 -18.5 -45t-45.5 -18t-46 19t-19 44zM629 1255 q0 28 17.5 46t45.5 18t46 -18t18 -46q0 -27 -18 -45t-46 -18q-27 0 -45 19t-18 44z" />
<glyph unicode="&#xe5;" horiz-adv-x="1097" d="M45 244q0 130 84.5 207t239.5 86q35 2 97.5 4t90.5 4t62 8t55 16q92 47 92 164q0 223 -297 223q-128 0 -214.5 -54t-86.5 -132q0 -17 8 -27t17 -10q2 0 9 12.5t21.5 24.5t36.5 12q70 0 70 -67q0 -37 -28 -58.5t-79 -21.5q-49 0 -78.5 33.5t-29.5 89.5q0 99 100 169 t256 70q191 0 274.5 -74t83.5 -233v-500v-57q0 -56 25 -86.5t70 -30.5q29 0 50 10.5t33 27t18.5 46.5t8.5 61t2 77q0 4 -1 12t-1 12q0 41 23 41q26 0 26 -41q0 -77 -5.5 -124.5t-21.5 -88.5t-49 -59.5t-85 -18.5q-154 0 -154 199v25q-56 -106 -159.5 -165t-233.5 -59 q-147 0 -238.5 77t-91.5 196zM111 246q0 -101 77 -165.5t203 -64.5q168 0 272.5 106t104.5 300v174q-50 -58 -111.5 -75.5t-179.5 -24.5q-190 -11 -278 -65t-88 -185zM266 1290q0 92 64.5 156.5t158.5 64.5q93 0 157.5 -64.5t64.5 -156.5q0 -93 -64.5 -158t-157.5 -65 t-158 65t-65 158zM313 1290q0 -72 52 -124t124 -52q73 0 124 51t51 125q0 73 -50.5 123.5t-124.5 50.5q-72 0 -124 -51t-52 -123z" />
<glyph unicode="&#xe6;" horiz-adv-x="1697" d="M47 256q0 149 101 228t296 79h324v148q0 127 -70 184t-227 57q-128 0 -213.5 -53t-85.5 -131q0 -17 7 -27t16 -10q2 0 9.5 12.5t22.5 24.5t37 12q68 0 68 -67q0 -37 -27.5 -58.5t-77.5 -21.5q-49 0 -78.5 33.5t-29.5 89.5q0 99 99 169t251 70q157 0 243 -52t111 -161 q62 106 155 161.5t204 55.5q183 0 297 -117.5t114 -295.5q0 -47 -18 -58.5t-74 -11.5h-676q0 -11 -0.5 -21t-1 -15.5t-0.5 -6.5q0 -216 101 -337.5t268 -121.5q118 0 203 57t110 146q4 16 9 53t12 54.5t22 17.5q11 0 19 -12t8 -31q0 -129 -108 -228.5t-277 -99.5 q-140 0 -241 70t-144 197q-143 -271 -438 -271q-143 0 -231.5 79.5t-88.5 209.5zM109 266q0 -115 74 -185.5t200 -70.5q175 0 281 107.5t106 302.5v96h-367q-133 0 -213.5 -68.5t-80.5 -181.5zM825 563h707q-3 179 -97 284t-249 105q-151 0 -244.5 -100t-116.5 -289z" />
<glyph unicode="&#xe7;" horiz-adv-x="966" d="M70 461q0 250 129.5 395t343.5 145q159 0 261.5 -84.5t102.5 -209.5q0 -65 -35.5 -103.5t-89.5 -38.5q-41 0 -63.5 18t-22.5 50q0 26 18 42.5t46 16.5q26 0 47 -13t22 -13q7 0 14 17t7 40q0 94 -88 164.5t-221 70.5q-183 0 -293.5 -130.5t-110.5 -354.5 q0 -222 102 -340.5t293 -118.5q117 0 203 57.5t111 145.5q4 16 9 53t12 54.5t22 17.5q11 0 20 -12t9 -31q0 -62 -27.5 -120.5t-77 -105t-126.5 -74.5t-169 -28q-205 0 -326.5 132.5t-121.5 357.5zM332 -354q0 6 5.5 11t12.5 5t34.5 -13t71.5 -25.5t93 -12.5q64 0 102.5 32.5 t38.5 86.5q0 47 -32.5 76.5t-86.5 29.5q-12 0 -31 -2t-26 -2q-5 0 -9.5 4.5t-4.5 11.5q0 2 2 22t2 38v92h39v-131q25 2 53 2q71 0 114.5 -37t43.5 -100q0 -69 -54 -112.5t-143 -43.5q-77 0 -151 24.5t-74 43.5z" />
<glyph unicode="&#xe8;" horiz-adv-x="1007" d="M68 485q0 229 120 371.5t304 142.5q183 0 297 -117.5t114 -295.5q0 -47 -17 -58.5t-73 -11.5h-678q0 -11 -0.5 -21t-1 -15.5t-0.5 -6.5q0 -216 101 -337.5t268 -121.5q118 0 203 57t110 146q4 16 9 53t12 54.5t22 17.5q11 0 19 -12t8 -31q0 -129 -108 -228.5t-277 -99.5 q-198 0 -315 136t-117 378zM135 563h709q-3 179 -97 284t-249 105q-151 0 -245.5 -100.5t-117.5 -288.5zM268 1378q0 12 8 19.5t19 7.5t22 -8l402 -256q22 -13 22 -25t-18 -12q-14 0 -27 8l-399 225q-29 16 -29 41z" />
<glyph unicode="&#xe9;" horiz-adv-x="1007" d="M68 485q0 229 120 371.5t304 142.5q183 0 297 -117.5t114 -295.5q0 -47 -17 -58.5t-73 -11.5h-678q0 -11 -0.5 -21t-1 -15.5t-0.5 -6.5q0 -216 101 -337.5t268 -121.5q118 0 203 57t110 146q4 16 9 53t12 54.5t22 17.5q11 0 19 -12t8 -31q0 -129 -108 -228.5t-277 -99.5 q-198 0 -315 136t-117 378zM135 563h709q-3 179 -97 284t-249 105q-151 0 -245.5 -100.5t-117.5 -288.5zM266 1116q0 13 21 25l403 256q11 8 23 8q11 0 18.5 -7.5t7.5 -19.5q0 -25 -28 -41l-400 -225q-13 -8 -26 -8q-19 0 -19 12z" />
<glyph unicode="&#xea;" horiz-adv-x="1007" d="M68 485q0 229 120 371.5t304 142.5q183 0 297 -117.5t114 -295.5q0 -47 -17 -58.5t-73 -11.5h-678q0 -11 -0.5 -21t-1 -15.5t-0.5 -6.5q0 -216 101 -337.5t268 -121.5q118 0 203 57t110 146q4 16 9 53t12 54.5t22 17.5q11 0 19 -12t8 -31q0 -129 -108 -228.5t-277 -99.5 q-198 0 -315 136t-117 378zM135 563h709q-3 179 -97 284t-249 105q-151 0 -245.5 -100.5t-117.5 -288.5zM225 1120q0 7 6 13l203 251q14 19 28.5 25t41.5 6q24 0 38.5 -6t28.5 -25l203 -251q6 -9 6 -13q0 -18 -18 -18q-22 0 -33 14l-188 223q-8 9 -11.5 12.5t-10 7 t-15.5 3.5q-19 0 -39 -23l-189 -223q-10 -14 -32 -14q-19 0 -19 18z" />
<glyph unicode="&#xeb;" horiz-adv-x="1007" d="M68 485q0 229 120 371.5t304 142.5q183 0 297 -117.5t114 -295.5q0 -47 -17 -58.5t-73 -11.5h-678q0 -11 -0.5 -21t-1 -15.5t-0.5 -6.5q0 -216 101 -337.5t268 -121.5q118 0 203 57t110 146q4 16 9 53t12 54.5t22 17.5q11 0 19 -12t8 -31q0 -129 -108 -228.5t-277 -99.5 q-198 0 -315 136t-117 378zM135 563h709q-3 179 -97 284t-249 105q-151 0 -245.5 -100.5t-117.5 -288.5zM248 1255q0 28 18.5 46t46.5 18t46 -18t18 -46q0 -27 -18.5 -45t-45.5 -18t-46 19t-19 44zM631 1255q0 28 17.5 46t45.5 18t46 -18t18 -46q0 -27 -18 -45t-46 -18 q-27 0 -45 19t-18 44z" />
<glyph unicode="&#xec;" horiz-adv-x="616" d="M47 1378q0 12 8 19.5t19 7.5t22 -8l402 -256q22 -13 22 -25t-18 -12q-14 0 -27 8l-399 225q-29 16 -29 41zM49 27q0 11 12 19.5t33 8.5q5 0 38.5 -3t60.5 -3q69 0 85.5 35.5t16.5 142.5v31v461v31q0 106 -16.5 142t-83.5 36q-23 0 -54.5 -3t-38.5 -3q-21 0 -33 8.5 t-12 19.5t10.5 19t28.5 8q10 0 38.5 -3t47.5 -3q25 0 64.5 4t54.5 4q38 0 47.5 -17.5t9.5 -66.5v-637v-29q0 -40 0.5 -60.5t4 -45t9.5 -35t17.5 -21.5t29 -14.5t42.5 -3.5q27 0 60 3t38 3q21 0 33 -8.5t12 -19.5t-10.5 -19t-28.5 -8q-3 0 -81.5 8t-155.5 8q-79 0 -158 -8 t-82 -8q-18 0 -28.5 8t-10.5 19z" />
<glyph unicode="&#xed;" horiz-adv-x="616" d="M45 1116q0 13 21 25l403 256q11 8 23 8q11 0 18.5 -7.5t7.5 -19.5q0 -25 -29 -41l-399 -225q-13 -8 -27 -8q-18 0 -18 12zM49 27q0 11 12 19.5t33 8.5q5 0 38.5 -3t60.5 -3q69 0 85.5 35.5t16.5 142.5v31v461v31q0 106 -16.5 142t-83.5 36q-23 0 -54.5 -3t-38.5 -3 q-21 0 -33 8.5t-12 19.5t10.5 19t28.5 8q10 0 38.5 -3t47.5 -3q25 0 64.5 4t54.5 4q38 0 47.5 -17.5t9.5 -66.5v-637v-29q0 -40 0.5 -60.5t4 -45t9.5 -35t17.5 -21.5t29 -14.5t42.5 -3.5q27 0 60 3t38 3q21 0 33 -8.5t12 -19.5t-10.5 -19t-28.5 -8q-3 0 -81.5 8t-155.5 8 q-79 0 -158 -8t-82 -8q-18 0 -28.5 8t-10.5 19z" />
<glyph unicode="&#xee;" horiz-adv-x="616" d="M4 1120q0 7 6 13l203 251q14 19 28.5 25t41.5 6q24 0 38.5 -6t28.5 -25l203 -251q6 -9 6 -13q0 -18 -18 -18q-22 0 -33 14l-189 223q-1 1 -4 4.5t-3.5 4t-3 3.5t-3.5 3.5t-3.5 2.5t-4 2.5t-4 1.5t-5 1h-5.5q-19 0 -39 -23l-189 -223q-11 -14 -32 -14q-19 0 -19 18zM49 27 q0 11 12 19.5t33 8.5q5 0 38.5 -3t60.5 -3q69 0 85.5 35.5t16.5 142.5v31v461v31q0 106 -16.5 142t-83.5 36q-23 0 -54.5 -3t-38.5 -3q-21 0 -33 8.5t-12 19.5t10.5 19t28.5 8q10 0 38.5 -3t47.5 -3q25 0 64.5 4t54.5 4q38 0 47.5 -17.5t9.5 -66.5v-637v-29q0 -40 0.5 -60.5 t4 -45t9.5 -35t17.5 -21.5t29 -14.5t42.5 -3.5q27 0 60 3t38 3q21 0 33 -8.5t12 -19.5t-10.5 -19t-28.5 -8q-3 0 -81.5 8t-155.5 8q-79 0 -158 -8t-82 -8q-18 0 -28.5 8t-10.5 19z" />
<glyph unicode="&#xef;" horiz-adv-x="616" d="M27 1255q0 28 18.5 46t46.5 18t46 -18t18 -46q0 -27 -18 -45t-46 -18q-27 0 -46 19t-19 44zM49 27q0 11 12 19.5t33 8.5q5 0 38.5 -3t60.5 -3q69 0 85.5 35.5t16.5 142.5v31v461v31q0 106 -16.5 142t-83.5 36q-23 0 -54.5 -3t-38.5 -3q-21 0 -33 8.5t-12 19.5t10.5 19 t28.5 8q10 0 38.5 -3t47.5 -3q25 0 64.5 4t54.5 4q38 0 47.5 -17.5t9.5 -66.5v-637v-29q0 -40 0.5 -60.5t4 -45t9.5 -35t17.5 -21.5t29 -14.5t42.5 -3.5q27 0 60 3t38 3q21 0 33 -8.5t12 -19.5t-10.5 -19t-28.5 -8q-3 0 -81.5 8t-155.5 8q-79 0 -158 -8t-82 -8 q-18 0 -28.5 8t-10.5 19zM410 1255q0 28 17.5 46t45.5 18t46 -18t18 -46q0 -27 -18.5 -45t-45.5 -18t-45 19t-18 44z" />
<glyph unicode="&#xf0;" horiz-adv-x="1103" d="M72 457q0 223 128.5 356t350.5 133q140 0 234.5 -49t164.5 -162q-74 223 -288 410l-213 -74q-29 -10 -59 -22.5t-45 -18.5t-21 -6q-9 0 -16 7t-7 16q0 6 2 11t8 9.5t12 7.5t19 7.5t23.5 8t30.5 10t36 11.5l189 66q-44 32 -88.5 59.5t-73.5 42t-53 27t-35 21.5t-11 18 q0 8 8.5 14t18.5 6q26 0 107.5 -43t193.5 -125l203 66q26 8 53.5 21t44.5 20.5t25 7.5q9 0 15.5 -8t6.5 -17t-4.5 -15t-16.5 -11.5t-24 -9.5t-38.5 -12t-47.5 -15l-182 -62q159 -151 234 -312.5t75 -352.5q0 -257 -124.5 -393t-358.5 -136q-220 0 -348.5 133t-128.5 355z M137 451q0 -205 109 -319t307 -114q197 0 304.5 115.5t107.5 325.5q0 205 -110 321.5t-302 116.5q-199 0 -307.5 -116t-108.5 -330z" />
<glyph unicode="&#xf1;" horiz-adv-x="1351" d="M39 27q0 11 12 19.5t33 8.5q5 0 38 -3t60 -3q31 0 50.5 7.5t30.5 19t16.5 39.5t6.5 52.5t1 74.5v16v461v31q0 44 -1.5 68t-6.5 49t-16 36t-29.5 18t-47.5 7q-23 0 -55 -3t-39 -3q-21 0 -33 8.5t-12 19.5t10.5 19t28.5 8q10 0 38.5 -3t47.5 -3q24 0 63 4t54 4q37 0 46 -16 t9 -68v-98q63 105 154.5 154.5t222.5 49.5q210 0 315 -124q43 -51 54.5 -117t11.5 -185v-317v-29q0 -48 1 -71t6 -49t16 -36t30 -17t49 -7q27 0 60.5 3t38.5 3q21 0 33 -8.5t12 -19.5t-9.5 -19t-27.5 -8q-3 0 -83 8t-159 8q-77 0 -156 -8t-82 -8q-18 0 -28 8t-10 19t12 19.5 t33 8.5q5 0 38 -3t60 -3q26 0 43.5 4t29 16t18 23.5t9.5 38.5t3.5 48t0.5 63v16v414q0 136 -86 211t-243 75q-195 0 -279 -110.5t-84 -339.5v-250v-29q0 -40 0.5 -60.5t4 -45t9.5 -35t17.5 -21.5t29 -14.5t42.5 -3.5q27 0 61 3t39 3q21 0 32 -8.5t11 -19.5t-9.5 -19 t-27.5 -8q-3 0 -82 8t-156 8q-79 0 -158.5 -8t-82.5 -8q-18 0 -28.5 8t-10.5 19zM414 1196q0 41 38 81t99 40q53 0 104.5 -21t93.5 -42t72 -21q35 0 60.5 18.5t35.5 41t20.5 41t20.5 18.5q6 0 13.5 -11t7.5 -22q0 -48 -43 -91.5t-105 -43.5q-57 0 -147 42t-137 42 q-30 0 -51 -16t-29 -35.5t-17.5 -35.5t-19.5 -16q-5 0 -10.5 10t-5.5 21z" />
<glyph unicode="&#xf2;" horiz-adv-x="1103" d="M72 485q0 235 129 374.5t350 139.5q223 0 352 -138.5t129 -375.5q0 -238 -128.5 -376t-354.5 -138q-219 0 -348 139.5t-129 374.5zM139 485q0 -224 108 -345.5t306 -121.5q196 0 304 122.5t108 344.5q0 220 -109.5 343.5t-302.5 123.5q-196 0 -305 -123t-109 -344z M317 1378q0 12 8 19.5t19 7.5q12 0 23 -8l401 -256q23 -13 23 -25t-19 -12q-14 0 -27 8l-399 225q-29 16 -29 41z" />
<glyph unicode="&#xf3;" horiz-adv-x="1103" d="M72 485q0 235 129 374.5t350 139.5q223 0 352 -138.5t129 -375.5q0 -238 -128.5 -376t-354.5 -138q-219 0 -348 139.5t-129 374.5zM139 485q0 -224 108 -345.5t306 -121.5q196 0 304 122.5t108 344.5q0 220 -109.5 343.5t-302.5 123.5q-196 0 -305 -123t-109 -344z M315 1116q0 13 21 25l403 256q11 8 23 8q11 0 18.5 -7.5t7.5 -19.5q0 -25 -28 -41l-400 -225q-13 -8 -26 -8q-19 0 -19 12z" />
<glyph unicode="&#xf4;" horiz-adv-x="1103" d="M72 485q0 235 129 374.5t350 139.5q223 0 352 -138.5t129 -375.5q0 -238 -128.5 -376t-354.5 -138q-219 0 -348 139.5t-129 374.5zM139 485q0 -224 108 -345.5t306 -121.5q196 0 304 122.5t108 344.5q0 220 -109.5 343.5t-302.5 123.5q-196 0 -305 -123t-109 -344z M274 1120q0 6 7 13l202 251q14 19 28.5 25t41.5 6q45 0 68 -31l202 -251q6 -9 6 -13q0 -18 -18 -18q-22 0 -33 14l-188 223q-8 9 -11.5 12.5t-10 7t-15.5 3.5q-19 0 -39 -23l-188 -223q-10 -14 -33 -14q-19 0 -19 18z" />
<glyph unicode="&#xf5;" horiz-adv-x="1103" d="M72 485q0 235 129 374.5t350 139.5q223 0 352 -138.5t129 -375.5q0 -238 -128.5 -376t-354.5 -138q-219 0 -348 139.5t-129 374.5zM139 485q0 -224 108 -345.5t306 -121.5q196 0 304 122.5t108 344.5q0 220 -109.5 343.5t-302.5 123.5q-196 0 -305 -123t-109 -344z M270 1196q0 41 38.5 81t99.5 40q53 0 104.5 -21t93.5 -42t72 -21q35 0 60.5 18.5t35.5 41t20.5 41t20.5 18.5q6 0 13.5 -11t7.5 -22q0 -48 -43 -91.5t-105 -43.5q-57 0 -147.5 42t-137.5 42q-30 0 -50.5 -16t-29 -35.5t-17.5 -35.5t-19 -16q-5 0 -11 10t-6 21z" />
<glyph unicode="&#xf6;" horiz-adv-x="1103" d="M72 485q0 235 129 374.5t350 139.5q223 0 352 -138.5t129 -375.5q0 -238 -128.5 -376t-354.5 -138q-219 0 -348 139.5t-129 374.5zM139 485q0 -224 108 -345.5t306 -121.5q196 0 304 122.5t108 344.5q0 220 -109.5 343.5t-302.5 123.5q-196 0 -305 -123t-109 -344z M297 1255q0 28 18.5 46t46.5 18t46 -18t18 -46q0 -27 -18 -45t-46 -18q-27 0 -46 19t-19 44zM680 1255q0 28 17.5 46t45.5 18t46 -18t18 -46q0 -27 -18.5 -45t-45.5 -18t-45 19t-18 44z" />
<glyph unicode="&#xf7;" horiz-adv-x="1705" d="M254 580v61h1198v-61h-1198zM762 270q0 38 27.5 65t64.5 27q38 0 64 -26t26 -64q0 -37 -26 -64.5t-64 -27.5t-65 26.5t-27 63.5zM762 948q0 37 27.5 64.5t64.5 27.5t63.5 -27t26.5 -65t-26 -64t-64 -26t-65 26t-27 64z" />
<glyph unicode="&#xf8;" horiz-adv-x="1103" d="M70 471q0 245 129 387.5t346 142.5q122 0 225 -43l86 132q14 22 33 22q18 0 18 -22q0 -9 -12 -27l-84 -127q223 -141 223 -451q0 -233 -131.5 -374.5t-349.5 -141.5q-182 0 -305 97l-105 -160q-1 -2 -3.5 -5.5t-4 -5t-3.5 -4t-3.5 -3.5t-3.5 -2.5t-4.5 -2t-5.5 -0.5 q-19 0 -19 25q0 13 8 26l107 164q-141 147 -141 373zM133 481q0 -211 111 -334l497 766q-86 41 -188 41q-190 0 -305 -128.5t-115 -344.5zM279 111q112 -95 270 -95q188 0 304 128t116 339q0 283 -187 408z" />
<glyph unicode="&#xf9;" horiz-adv-x="1312" d="M27 948q0 12 9.5 20.5t26.5 8.5q10 0 39.5 -4t49.5 -4q24 0 63.5 5t56.5 5q37 0 45.5 -18t8.5 -68v-592q0 -134 82 -211.5t227 -77.5q183 0 259.5 111t76.5 342v252v31q0 44 -1.5 68t-6.5 49t-16 36t-29.5 18t-47.5 7q-23 0 -54 -2t-38 -2q-21 0 -33 7.5t-12 18.5 q0 12 9.5 20.5t27.5 8.5q10 0 39 -4t49 -4q24 0 62.5 5t54.5 5q36 0 46.5 -17t10.5 -69v-635q0 -126 18 -167.5t87 -41.5q25 0 56.5 3t37.5 3q21 0 33 -8.5t12 -19.5t-10.5 -19t-28.5 -8q-10 0 -38.5 4t-47.5 4q-24 0 -63 -5t-54 -5q-36 0 -45.5 16.5t-9.5 69.5v90 q-57 -104 -142.5 -153.5t-207.5 -49.5q-99 0 -175.5 30.5t-121.5 86.5q-45 54 -56.5 120.5t-11.5 186.5v322v31q0 106 -16.5 142t-83.5 36q-23 0 -55 -2t-39 -2q-43 0 -43 26zM422 1378q0 12 8 19.5t19 7.5t22 -8l401 -256q23 -13 23 -25t-18 -12q-14 0 -27 8l-399 225 q-29 16 -29 41z" />
<glyph unicode="&#xfa;" horiz-adv-x="1312" d="M27 948q0 12 9.5 20.5t26.5 8.5q10 0 39.5 -4t49.5 -4q24 0 63.5 5t56.5 5q37 0 45.5 -18t8.5 -68v-592q0 -134 82 -211.5t227 -77.5q183 0 259.5 111t76.5 342v252v31q0 44 -1.5 68t-6.5 49t-16 36t-29.5 18t-47.5 7q-23 0 -54 -2t-38 -2q-21 0 -33 7.5t-12 18.5 q0 12 9.5 20.5t27.5 8.5q10 0 39 -4t49 -4q24 0 62.5 5t54.5 5q36 0 46.5 -17t10.5 -69v-635q0 -126 18 -167.5t87 -41.5q25 0 56.5 3t37.5 3q21 0 33 -8.5t12 -19.5t-10.5 -19t-28.5 -8q-10 0 -38.5 4t-47.5 4q-24 0 -63 -5t-54 -5q-36 0 -45.5 16.5t-9.5 69.5v90 q-57 -104 -142.5 -153.5t-207.5 -49.5q-99 0 -175.5 30.5t-121.5 86.5q-45 54 -56.5 120.5t-11.5 186.5v322v31q0 106 -16.5 142t-83.5 36q-23 0 -55 -2t-39 -2q-43 0 -43 26zM420 1116q0 14 20 25l404 256q11 8 22 8t19 -7.5t8 -19.5q0 -25 -29 -41l-399 -225 q-13 -8 -27 -8q-18 0 -18 12z" />
<glyph unicode="&#xfb;" horiz-adv-x="1312" d="M27 948q0 12 9.5 20.5t26.5 8.5q10 0 39.5 -4t49.5 -4q24 0 63.5 5t56.5 5q37 0 45.5 -18t8.5 -68v-592q0 -134 82 -211.5t227 -77.5q183 0 259.5 111t76.5 342v252v31q0 44 -1.5 68t-6.5 49t-16 36t-29.5 18t-47.5 7q-23 0 -54 -2t-38 -2q-21 0 -33 7.5t-12 18.5 q0 12 9.5 20.5t27.5 8.5q10 0 39 -4t49 -4q24 0 62.5 5t54.5 5q36 0 46.5 -17t10.5 -69v-635q0 -126 18 -167.5t87 -41.5q25 0 56.5 3t37.5 3q21 0 33 -8.5t12 -19.5t-10.5 -19t-28.5 -8q-10 0 -38.5 4t-47.5 4q-24 0 -63 -5t-54 -5q-36 0 -45.5 16.5t-9.5 69.5v90 q-57 -104 -142.5 -153.5t-207.5 -49.5q-99 0 -175.5 30.5t-121.5 86.5q-45 54 -56.5 120.5t-11.5 186.5v322v31q0 106 -16.5 142t-83.5 36q-23 0 -55 -2t-39 -2q-43 0 -43 26zM379 1120q0 7 6 13l203 251q14 19 28.5 25t40.5 6q45 0 68 -31l203 -251q6 -9 6 -13 q0 -18 -19 -18q-21 0 -32 14l-189 223q-8 9 -11.5 12.5t-10 7t-15.5 3.5q-19 0 -39 -23l-188 -223q-11 -14 -33 -14q-18 0 -18 18z" />
<glyph unicode="&#xfc;" horiz-adv-x="1312" d="M27 948q0 12 9.5 20.5t26.5 8.5q10 0 39.5 -4t49.5 -4q24 0 63.5 5t56.5 5q37 0 45.5 -18t8.5 -68v-592q0 -134 82 -211.5t227 -77.5q183 0 259.5 111t76.5 342v252v31q0 44 -1.5 68t-6.5 49t-16 36t-29.5 18t-47.5 7q-23 0 -54 -2t-38 -2q-21 0 -33 7.5t-12 18.5 q0 12 9.5 20.5t27.5 8.5q10 0 39 -4t49 -4q24 0 62.5 5t54.5 5q36 0 46.5 -17t10.5 -69v-635q0 -126 18 -167.5t87 -41.5q25 0 56.5 3t37.5 3q21 0 33 -8.5t12 -19.5t-10.5 -19t-28.5 -8q-10 0 -38.5 4t-47.5 4q-24 0 -63 -5t-54 -5q-36 0 -45.5 16.5t-9.5 69.5v90 q-57 -104 -142.5 -153.5t-207.5 -49.5q-99 0 -175.5 30.5t-121.5 86.5q-45 54 -56.5 120.5t-11.5 186.5v322v31q0 106 -16.5 142t-83.5 36q-23 0 -55 -2t-39 -2q-43 0 -43 26zM401 1255q0 28 19 46t47 18t45.5 -18t17.5 -46q0 -27 -18 -45t-45 -18t-46.5 19t-19.5 44z M784 1255q0 28 18 46t46 18t45.5 -18t17.5 -46q0 -27 -18 -45t-45 -18t-45.5 19t-18.5 44z" />
<glyph unicode="&#xfd;" horiz-adv-x="1069" d="M-55 -180q0 54 25.5 85.5t68.5 31.5q34 0 53 -17.5t19 -48.5q0 -28 -19 -47t-47 -19q-4 0 -13.5 2.5t-13.5 2.5q-6 0 -6 -15q0 -51 53 -94t132 -43q134 0 225 119q42 56 66 111t24 85q0 14 -6 29l-340 858q-16 38 -34.5 52t-61.5 14q-1 0 -7 -0.5t-16.5 -1t-23.5 -0.5 q-22 0 -35 8t-13 18q0 11 10 19t25 8q1 0 25 -3.5t68.5 -7t97.5 -3.5q60 0 133 8t86 8q14 0 28.5 -9.5t14.5 -17.5q0 -9 -13 -17.5t-30 -8.5q-14 0 -26 0.5t-19 1t-8 0.5q-11 0 -34 1t-34 1q-66 0 -66 -39q0 -11 5 -21l313 -817l311 817q6 12 6 21q0 39 -67 39 q-33 0 -60.5 -1.5t-43 -3t-17.5 -1.5q-13 0 -25 9.5t-12 18.5t11.5 18t23.5 9q5 0 85 -8t155 -8q43 0 81.5 3.5t59.5 7t24 3.5q17 0 30 -9t13 -18q0 -10 -17 -18t-46 -8q-12 0 -25 1t-14 1q-39 0 -57 -15t-33 -51l-352 -895q-71 -179 -164 -264.5t-221 -85.5 q-111 0 -181.5 60.5t-70.5 144.5zM297 1116q0 14 20 25l404 256q11 8 22 8t19 -7.5t8 -19.5q0 -25 -29 -41l-399 -225q-13 -8 -27 -8q-18 0 -18 12z" />
<glyph unicode="&#xfe;" horiz-adv-x="1130" d="M-10 -352q0 11 12 19.5t33 8.5q5 0 38 -3t60 -3q66 0 84.5 32t18.5 124v53v1233v76q0 80 -22.5 105.5t-86.5 25.5q-19 0 -47.5 -2t-36.5 -2q-21 0 -33 8.5t-12 19.5t9.5 19t27.5 8q10 0 39.5 -4t48.5 -4q24 0 62.5 5t54.5 5q38 0 47.5 -18.5t9.5 -67.5v-504 q41 105 130.5 161t217.5 56q188 0 301 -135.5t113 -374.5q0 -243 -114.5 -380.5t-307.5 -137.5q-229 0 -340 195v-287v-29q0 -46 1.5 -70t6.5 -49t16.5 -36t30.5 -18t49 -7q29 0 62 3t37 3q21 0 33 -8.5t12 -19.5t-10.5 -20t-28.5 -9q-2 0 -81 9.5t-157 9.5 q-81 0 -159.5 -9.5t-79.5 -9.5q-18 0 -28.5 9t-10.5 20zM297 395q0 -182 89.5 -281.5t240.5 -99.5q173 0 268.5 123.5t95.5 354.5q0 217 -96.5 339.5t-263.5 122.5q-156 0 -245 -98t-89 -285v-176z" />
<glyph unicode="&#xff;" horiz-adv-x="1069" d="M-55 -180q0 54 25.5 85.5t68.5 31.5q34 0 53 -17.5t19 -48.5q0 -28 -19 -47t-47 -19q-4 0 -13.5 2.5t-13.5 2.5q-6 0 -6 -15q0 -51 53 -94t132 -43q134 0 225 119q42 56 66 111t24 85q0 14 -6 29l-340 858q-16 38 -34.5 52t-61.5 14q-1 0 -7 -0.5t-16.5 -1t-23.5 -0.5 q-22 0 -35 8t-13 18q0 11 10 19t25 8q1 0 25 -3.5t68.5 -7t97.5 -3.5q60 0 133 8t86 8q14 0 28.5 -9.5t14.5 -17.5q0 -9 -13 -17.5t-30 -8.5q-14 0 -26 0.5t-19 1t-8 0.5q-11 0 -34 1t-34 1q-66 0 -66 -39q0 -11 5 -21l313 -817l311 817q6 12 6 21q0 39 -67 39 q-33 0 -60.5 -1.5t-43 -3t-17.5 -1.5q-13 0 -25 9.5t-12 18.5t11.5 18t23.5 9q5 0 85 -8t155 -8q43 0 81.5 3.5t59.5 7t24 3.5q17 0 30 -9t13 -18q0 -10 -17 -18t-46 -8q-12 0 -25 1t-14 1q-39 0 -57 -15t-33 -51l-352 -895q-71 -179 -164 -264.5t-221 -85.5 q-111 0 -181.5 60.5t-70.5 144.5zM279 1255q0 28 18.5 46t46.5 18t46 -18t18 -46q0 -27 -18 -45t-46 -18q-27 0 -46 19t-19 44zM662 1255q0 28 17.5 46t45.5 18t45.5 -18t17.5 -46q0 -27 -18 -45t-45 -18t-45 19t-18 44z" />
<glyph unicode="&#x152;" horiz-adv-x="2127" d="M100 682q0 337 173.5 518.5t498.5 181.5q60 0 195 -13t209 -13q98 0 309 4t325 4q99 0 127.5 -16t28.5 -82q0 -6 -1 -32.5t-2 -69.5t-1 -89q0 -52 2.5 -96.5t5 -69.5t2.5 -28q0 -15 -8.5 -28t-17.5 -13q-8 0 -17.5 13t-9.5 26q0 1 1.5 18.5t3 49.5t1.5 69v51 q0 67 -0.5 99.5t-8 65t-14.5 43t-31 21t-46 11.5t-70 2l-403 8h-9q-29 0 -49 -3t-33.5 -12.5t-21 -20t-11 -32.5t-4.5 -42t-1 -56v-346q0 -38 10 -45.5t53 -7.5h160h67q43 0 69 7t38.5 24.5t16 38.5t3.5 59q0 34 -1.5 65t-3 48.5t-1.5 19.5q0 43 27 43q11 0 20 -11t9 -30 q0 -18 -9.5 -112t-9.5 -171q0 -98 10.5 -205t10.5 -114q0 -26 -9 -41t-22 -15q-11 0 -19 13t-8 37q0 16 2 44.5t2 39.5q0 18 1 51t1 51q0 23 -1.5 39.5t-8 29.5t-11 21t-19.5 14t-24.5 9t-34.5 4.5t-41.5 1.5h-53.5h-162q-41 0 -51 -12t-10 -50v-393v-61q0 -36 1.5 -57.5 t8 -38.5t13.5 -25t25 -12.5t35 -5.5t50 -1h409h48t38 4t30 5.5t22 12t16.5 16.5t11 26t7 32.5t3 44.5t1.5 53.5v67.5q0 39 -2 71.5t-3.5 50t-1.5 18.5q0 20 8.5 33.5t16.5 13.5q29 0 29 -55q0 -5 -2.5 -35.5t-4.5 -82t-2 -108.5q0 -32 1 -60.5t2.5 -46.5t1.5 -22 q0 -62 -30 -78t-106 -16h-34q-160 0 -355 8t-231 8q-70 0 -241 -23.5t-273 -23.5q-287 0 -451 191.5t-164 519.5zM170 692q0 -329 152 -505.5t438 -176.5q110 0 204.5 20.5t133.5 43.5q38 21 47.5 56.5t9.5 113.5v18v842q0 56 -1.5 81.5t-11.5 53.5t-30 45 q-24 20 -121.5 38.5t-236.5 18.5q-282 0 -433 -167.5t-151 -481.5z" />
<glyph unicode="&#x153;" horiz-adv-x="1810" d="M72 485q0 237 117.5 376.5t320.5 139.5q277 0 391 -282q135 280 391 280q183 0 298.5 -118t115.5 -295q0 -47 -18 -58.5t-74 -11.5h-678v-43q0 -216 101 -337.5t268 -121.5q118 0 203 57t110 146q4 16 9 53t12 54.5t22 17.5q11 0 19 -12t8 -31q0 -129 -108 -228.5 t-277 -99.5q-281 0 -408 285q-118 -285 -385 -285q-204 0 -321 138.5t-117 375.5zM137 485q0 -223 97.5 -345t273.5 -122q167 0 265.5 124t98.5 343q0 220 -97 343.5t-267 123.5t-270.5 -124t-100.5 -343zM936 563h709q-3 179 -97.5 284t-249.5 105q-151 0 -245 -100.5 t-117 -288.5z" />
<glyph unicode="&#x178;" horiz-adv-x="1234" d="M-49 1337q0 12 10.5 20.5t28.5 8.5q7 0 37 -4t80 -8t104 -4q53 0 128.5 8t94.5 8q39 0 39 -29q0 -26 -55 -26q-20 0 -68 4t-76 4q-22 0 -34.5 -9.5t-12.5 -23.5t29 -63l371 -598l368 596q27 43 27 63t-14 27.5t-45 7.5q-27 0 -73 -4t-63 -4q-23 0 -37 8t-14 18 q0 29 39 29q6 0 75.5 -7t133.5 -7q68 0 124.5 3.5t86 7t31.5 3.5q18 0 28.5 -8.5t10.5 -20.5q0 -10 -14 -18t-36 -8q-8 0 -29 2t-36 2q-42 0 -68.5 -24.5t-66.5 -90.5l-396 -635v-307v-35q0 -109 20 -140.5t95 -31.5q20 0 53 2t47 2q19 0 32.5 -8t13.5 -18q0 -13 -11 -21 t-30 -8q-11 0 -95 9t-157 9t-158 -9t-96 -9q-39 0 -39 29q0 26 57 26q5 0 33 -2t53 -2t42 3t30 7.5t20.5 18t12.5 25t7 39t2.5 49t0.5 65.5v307l-399 639q-4 6 -13 20t-12.5 19.5t-11.5 16.5t-12 15.5t-12 12.5t-14 11l-14 7t-17 5.5t-19 1.5q-11 0 -35 -1t-37 -1 q-19 0 -32 8t-13 18zM362 1649q0 27 19 45t47 18t46 -17.5t18 -45.5q0 -27 -18.5 -45.5t-45.5 -18.5t-46.5 19.5t-19.5 44.5zM745 1649q0 28 18 45.5t46 17.5t45.5 -17.5t17.5 -45.5q0 -27 -18 -45.5t-45 -18.5t-45.5 19.5t-18.5 44.5z" />
<glyph unicode="&#x2c6;" d="M233 1120q0 6 7 13l202 251q14 19 28.5 25t41.5 6q45 0 68 -31l202 -251q6 -9 6 -13q0 -18 -18 -18q-22 0 -33 14l-188 223q-8 9 -11.5 12.5t-10 7t-15.5 3.5q-19 0 -39 -23l-188 -223q-11 -14 -33 -14q-19 0 -19 18z" />
<glyph unicode="&#x2dc;" d="M229 1196q0 41 38.5 81t99.5 40q53 0 104.5 -21t93.5 -42t72 -21q35 0 60.5 18.5t35.5 41t20.5 41t20.5 18.5q6 0 13.5 -11t7.5 -22q0 -48 -43 -91.5t-105 -43.5q-57 0 -147.5 42t-137.5 42q-30 0 -50.5 -16t-29 -35.5t-17.5 -35.5t-19 -16q-5 0 -11 10t-6 21z" />
<glyph unicode="&#x2000;" horiz-adv-x="950" />
<glyph unicode="&#x2001;" horiz-adv-x="1901" />
<glyph unicode="&#x2002;" horiz-adv-x="950" />
<glyph unicode="&#x2003;" horiz-adv-x="1901" />
<glyph unicode="&#x2004;" horiz-adv-x="633" />
<glyph unicode="&#x2005;" horiz-adv-x="475" />
<glyph unicode="&#x2006;" horiz-adv-x="316" />
<glyph unicode="&#x2007;" horiz-adv-x="316" />
<glyph unicode="&#x2008;" horiz-adv-x="237" />
<glyph unicode="&#x2009;" horiz-adv-x="380" />
<glyph unicode="&#x200a;" horiz-adv-x="105" />
<glyph unicode="&#x2010;" horiz-adv-x="671" d="M94 487q0 35 60 35h366q60 0 60 -30q0 -35 -60 -35h-366q-60 0 -60 30z" />
<glyph unicode="&#x2011;" horiz-adv-x="671" d="M94 487q0 35 60 35h366q60 0 60 -30q0 -35 -60 -35h-366q-60 0 -60 30z" />
<glyph unicode="&#x2012;" horiz-adv-x="671" d="M94 487q0 35 60 35h366q60 0 60 -30q0 -35 -60 -35h-366q-60 0 -60 30z" />
<glyph unicode="&#x2013;" d="M0 465v59h1024v-59h-1024z" />
<glyph unicode="&#x2014;" horiz-adv-x="2048" d="M0 465v59h2048v-59h-2048z" />
<glyph unicode="&#x2018;" horiz-adv-x="638" d="M199 1040q0 68 21 142.5t50 128.5t58.5 89.5t48.5 35.5q20 0 20 -25q0 -7 -21 -36.5t-45.5 -65.5t-45.5 -95.5t-21 -119.5q0 -45 43 -45q3 0 20.5 3t30.5 3q34 0 55 -24t21 -58q0 -49 -28 -77t-78 -28q-62 0 -95.5 44t-33.5 128z" />
<glyph unicode="&#x2019;" horiz-adv-x="638" d="M203 1288q0 50 27.5 78.5t76.5 28.5q62 0 95.5 -45t33.5 -129q0 -68 -21 -142.5t-50 -128.5t-58.5 -89.5t-48.5 -35.5q-20 0 -20 25q0 7 21 36.5t45.5 65.5t45.5 95.5t21 119.5q0 45 -43 45q-3 0 -19.5 -3t-29.5 -3q-34 0 -55 24t-21 58z" />
<glyph unicode="&#x201a;" horiz-adv-x="638" d="M188 53q0 49 28.5 77t78.5 28q62 0 94.5 -44t32.5 -128q0 -68 -21 -142.5t-50 -128.5t-58.5 -89.5t-48.5 -35.5q-9 0 -15 7t-6 18q0 7 21 36t45.5 65t45.5 95t21 119q0 45 -43 45q-3 0 -19.5 -2t-29.5 -2q-34 0 -55 24t-21 58z" />
<glyph unicode="&#x201c;" horiz-adv-x="792" d="M78 1038q0 68 21 142.5t50 128.5t58.5 89.5t48.5 35.5q20 0 20 -25q0 -7 -21 -36.5t-45.5 -65.5t-45.5 -95.5t-21 -119.5q0 -45 43 -45q3 0 21 3t31 3q34 0 54.5 -24t20.5 -58q0 -50 -28.5 -78.5t-77.5 -28.5q-62 0 -95.5 45t-33.5 129zM477 1038q0 68 20.5 142.5 t49 128.5t58 89.5t48.5 35.5q9 0 15 -7t6 -18q0 -7 -20.5 -36.5t-45 -65.5t-45 -95.5t-20.5 -119.5q0 -45 43 -45q3 0 19.5 3t29.5 3q34 0 55 -24t21 -58q0 -49 -28.5 -78t-78.5 -29q-62 0 -94.5 44.5t-32.5 129.5z" />
<glyph unicode="&#x201d;" horiz-adv-x="792" d="M90 1288q0 50 28 78.5t77 28.5q62 0 95.5 -45t33.5 -129q0 -68 -21 -142.5t-50 -128.5t-59 -89.5t-49 -35.5q-20 0 -20 25q0 7 21 36.5t45.5 65.5t45.5 95.5t21 119.5q0 45 -43 45q-3 0 -19.5 -3t-29.5 -3q-34 0 -55 24t-21 58zM487 1288q0 50 28.5 78.5t78.5 28.5 q62 0 94.5 -44.5t32.5 -129.5q0 -68 -20.5 -142.5t-49 -128.5t-58 -89.5t-48.5 -35.5q-9 0 -15 7t-6 18q0 7 20.5 36.5t45 65.5t45 95.5t20.5 119.5q0 45 -43 45q-3 0 -19.5 -3t-29.5 -3q-34 0 -55 24t-21 58z" />
<glyph unicode="&#x201e;" horiz-adv-x="792" d="M80 53q0 49 28 77t78 28q62 0 94.5 -44t32.5 -128q0 -68 -20.5 -142.5t-49 -128.5t-58 -89.5t-48.5 -35.5q-20 0 -20 25q0 7 20.5 36t45 65t45 95t20.5 119q0 45 -43 45q-3 0 -19.5 -2t-29.5 -2q-34 0 -55 24t-21 58zM479 53q0 49 27.5 77t77.5 28q62 0 95.5 -44 t33.5 -128q0 -68 -21 -142.5t-50 -128.5t-58.5 -89.5t-48.5 -35.5q-9 0 -15 7t-6 18q0 7 21 36t45.5 65t45.5 95t21 119q0 45 -43 45q-3 0 -19.5 -2t-29.5 -2q-34 0 -55 24t-21 58z" />
<glyph unicode="&#x2022;" horiz-adv-x="1208" d="M307 762q0 123 87 209t210 86q122 0 208.5 -86t86.5 -209q0 -122 -87 -209.5t-210 -87.5t-209 87t-86 210z" />
<glyph unicode="&#x2026;" horiz-adv-x="2048" d="M246 66q0 41 28.5 68.5t69.5 27.5q40 0 67 -27.5t27 -68.5q0 -39 -27.5 -67t-66.5 -28q-40 0 -69 28.5t-29 66.5zM928 66q0 41 28.5 68.5t69.5 27.5q40 0 67 -27.5t27 -68.5q0 -39 -27.5 -67t-66.5 -28q-40 0 -69 28.5t-29 66.5zM1612 66q0 41 28.5 68.5t69.5 27.5 q40 0 67 -27.5t27 -68.5q0 -39 -27.5 -67t-66.5 -28q-40 0 -69 28.5t-29 66.5z" />
<glyph unicode="&#x202f;" horiz-adv-x="380" />
<glyph unicode="&#x2039;" horiz-adv-x="565" d="M125 487q0 11 16 33l199 256q14 17 25 24t34 7h7q20 0 20 -16q0 -6 -10 -19l-191 -252q-18 -24 -18 -33q0 -8 18 -32l191 -252q10 -13 10 -19q0 -16 -20 -16h-7q-26 1 -36.5 7.5t-22.5 23.5l-199 256q-16 22 -16 32z" />
<glyph unicode="&#x203a;" horiz-adv-x="567" d="M141 184q0 4 11 19l190 252q18 24 18 32q0 9 -18 33l-190 252q-11 15 -11 19q0 16 21 16h6q26 -1 36.5 -7.5t22.5 -23.5l199 -256q16 -22 16 -33q0 -10 -16 -32l-199 -256q-14 -17 -25 -24t-34 -7h-6q-21 0 -21 16z" />
<glyph unicode="&#x205f;" horiz-adv-x="475" />
<glyph unicode="&#x2122;" horiz-adv-x="1705" d="M285 1411v41h409v-41h-174v-485h-57v485h-178zM827 926v526h88l181 -455l168 455h86v-526h-47v489l-185 -489h-45l-196 489v-489h-50z" />
<glyph unicode="&#xe000;" horiz-adv-x="983" d="M0 0v983h983v-983h-983z" />
<glyph unicode="&#xfb01;" horiz-adv-x="1222" d="M39 27q0 11 12 19.5t33 8.5q5 0 38 -3t60 -3q31 0 50.5 7.5t30.5 19t16.5 39.5t6.5 52.5t1 74.5v16v672h-58q-30 0 -56 -1t-40 -2t-16 -1q-35 0 -35 26q0 25 41 25q3 0 38.5 -2t67.5 -2h58q-2 18 -2 53q0 164 78 252t219 88q112 0 176.5 -42.5t64.5 -111.5 q0 -38 -21 -58.5t-59 -20.5q-71 0 -71 65q0 27 17 39.5t34.5 15.5t17.5 7q0 27 -43 45t-110 18q-244 0 -244 -281q0 -19 4 -69h144q30 0 56 1t40 2t16 1q35 0 35 -27q0 -24 -41 -24q-3 0 -38.5 1t-67.5 1h-144v-670v-29q0 -40 0.5 -60.5t4 -45t9.5 -35t17.5 -21.5t29 -14.5 t42.5 -3.5q27 0 61 3t39 3q21 0 32 -8.5t11 -19.5t-9.5 -19t-27.5 -8q-3 0 -82 8t-156 8q-79 0 -158.5 -8t-82.5 -8q-18 0 -28.5 8t-10.5 19zM655 27q0 11 12 19.5t33 8.5q5 0 38.5 -3t60.5 -3q26 0 43.5 4t29 16t18 23.5t9.5 38.5t3.5 48t0.5 63v16v461v31q0 106 -16.5 142 t-83.5 36q-23 0 -55 -3t-39 -3q-21 0 -33 8.5t-12 19.5t10 19t28 8q10 0 38.5 -3t47.5 -3q25 0 64.5 4t54.5 4q38 0 48 -18t10 -66v-637v-29q0 -48 1 -71t6 -49t16 -36t30 -17t49 -7q27 0 60 3t38 3q21 0 33 -8.5t12 -19.5q0 -27 -36 -27q-3 0 -82 8t-156 8q-79 0 -159 -8 t-83 -8q-18 0 -28.5 8t-10.5 19zM862 1165q0 31 22.5 53.5t53.5 22.5t51.5 -22t20.5 -54q0 -31 -20.5 -51t-51.5 -20t-53.5 21t-22.5 50z" />
<glyph unicode="&#xfb02;" horiz-adv-x="1232" d="M39 27q0 11 12 19.5t33 8.5q5 0 38 -3t60 -3q31 0 50.5 7.5t30.5 19t16.5 39.5t6.5 52.5t1 74.5v16v672h-58q-30 0 -56 -1t-40 -2t-16 -1q-35 0 -35 26q0 25 41 25q3 0 38.5 -2t67.5 -2h58q-2 18 -2 55q0 168 78.5 255t228.5 87q41 0 106 -17.5t105 -17.5q21 0 59.5 4 t55.5 4q20 0 31.5 -4t16.5 -17t6 -24t1 -38v-1002v-29q0 -58 2 -85.5t12.5 -53t31.5 -33.5t58 -8q27 0 60.5 3t38.5 3q21 0 33 -8.5t12 -19.5t-10.5 -19t-28.5 -8q-3 0 -82 8t-156 8q-79 0 -157.5 -8t-81.5 -8q-18 0 -28.5 8t-10.5 19t12 19.5t33 8.5q5 0 38 -3t60 -3 q69 0 85.5 35.5t16.5 142.5v31v825v33q0 41 -1 64t-6 48t-14.5 36.5t-26.5 19.5t-42 8q-10 0 -22 -2q22 -25 22 -69q0 -88 -78 -88q-71 0 -71 65q0 27 17 39.5t34.5 16t17.5 8.5q0 28 -42.5 46.5t-110.5 18.5q-244 0 -244 -283q0 -21 4 -71h144q30 0 56 1t40 2t16 1 q35 0 35 -27q0 -24 -41 -24q-3 0 -38.5 1t-67.5 1h-144v-670v-29q0 -40 0.5 -60.5t4 -45t9.5 -35t17.5 -21.5t29 -14.5t42.5 -3.5q27 0 61 3t39 3q21 0 32 -8.5t11 -19.5t-9.5 -19t-27.5 -8q-3 0 -82 8t-156 8q-79 0 -158.5 -8t-82.5 -8q-18 0 -28.5 8t-10.5 19z" />
</font>
</defs>
</svg>
